<svg width="145" height="20" viewBox="0 0 145 20" fill="none" xmlns="http://www.w3.org/2000/svg">
<path d="M47.4117 2.87604V16.5678H45.8046L37.5695 6.35972V16.5678H35.6094V2.87604H37.2212L45.4516 13.086V2.87604H47.4117Z" fill="#171216"/>
<path d="M60.2601 11.8347V16.5676H58.3191V11.7949L52.8689 2.87207H54.9622L59.3543 10.0862L63.7683 2.87587H65.7084L60.2601 11.8347Z" fill="#171216"/>
<path d="M83.8916 16.5678L83.8716 6.59228L78.9115 14.9028H78.0094L73.0493 6.64449V16.5678H71.1672V2.87604H72.7753L78.4995 12.4994L84.1466 2.87604H85.7537L85.7736 16.5678H83.8916Z" fill="#171216"/>
<path d="M104.215 10.6711C104.672 11.2514 104.901 11.9849 104.901 12.8715C104.901 14.058 104.454 14.9708 103.558 15.61C102.662 16.2491 101.358 16.5684 99.6463 16.5678H93.0981V2.87604H99.2591C100.828 2.87604 102.04 3.18897 102.897 3.81483C103.753 4.44069 104.181 5.30797 104.18 6.41667C104.18 7.13366 104.014 7.75287 103.681 8.27432C103.354 8.79005 102.889 9.20359 102.338 9.4675C103.132 9.68962 103.757 10.0908 104.215 10.6711ZM95.0592 4.46126V8.84196H99.0783C100.085 8.84196 100.859 8.65623 101.402 8.28476C101.944 7.9133 102.215 7.36875 102.215 6.65113C102.215 5.93478 101.944 5.39055 101.402 5.01845C100.859 4.64636 100.085 4.46062 99.0783 4.46126H95.0592ZM102.078 14.4367C102.64 14.0722 102.921 13.4986 102.921 12.7158C102.921 11.1907 101.804 10.4278 99.5683 10.4272H95.0592V14.9835H99.5683C100.68 14.9835 101.516 14.8009 102.078 14.4358V14.4367Z" fill="#171216"/>
<path d="M112.647 15.1601C111.627 14.1165 111.118 12.6167 111.118 10.6607V2.87699H113.078V10.5838C113.078 13.5182 114.366 14.9851 116.941 14.9844C118.195 14.9844 119.156 14.6228 119.823 13.8995C120.491 13.1762 120.824 12.0709 120.823 10.5838V2.87604H122.726V10.6597C122.726 12.6297 122.217 14.1327 121.197 15.1686C120.178 16.2045 118.753 16.7228 116.923 16.7234C115.093 16.7241 113.667 16.2029 112.647 15.1601Z" fill="#171216"/>
<path d="M130.986 16.2451C130.026 15.9287 129.271 15.5148 128.722 15.0035L129.448 13.4781C129.97 13.947 130.64 14.3267 131.457 14.6172C132.265 14.9091 133.118 15.0582 133.977 15.0576C135.114 15.0576 135.963 14.8652 136.525 14.4805C137.087 14.0957 137.368 13.5838 137.368 12.9446C137.376 12.7332 137.338 12.5225 137.259 12.3263C137.18 12.1301 137.06 11.9527 136.908 11.8055C136.581 11.5006 136.191 11.2703 135.766 11.1306C135.315 10.9737 134.678 10.7975 133.854 10.6019C133.005 10.4104 132.17 10.1621 131.355 9.85867C130.727 9.61742 130.168 9.22631 129.727 8.71959C129.276 8.20511 129.05 7.5109 129.05 6.63698C129.042 5.93548 129.243 5.24739 129.629 4.66068C130.014 4.07405 130.599 3.60481 131.384 3.25297C132.17 2.90112 133.143 2.72488 134.305 2.72424C135.113 2.72444 135.917 2.82974 136.697 3.03749C137.418 3.21781 138.101 3.52235 138.716 3.93736L138.069 5.5017C137.498 5.13856 136.877 4.85886 136.226 4.67112C135.603 4.48613 134.956 4.39025 134.305 4.38635C133.194 4.38635 132.361 4.58853 131.806 4.99291C131.251 5.39728 130.974 5.91619 130.977 6.54965C130.969 6.76283 131.007 6.9752 131.088 7.1726C131.169 7.37 131.292 7.54789 131.447 7.69442C131.784 8.00104 132.181 8.23414 132.614 8.37882C133.235 8.58556 133.866 8.75857 134.506 8.8971C135.352 9.08847 136.184 9.33679 136.996 9.64035C137.619 9.88575 138.173 10.2763 138.614 10.7794C139.065 11.2857 139.29 11.9701 139.29 12.8326C139.296 13.5318 139.091 14.2166 138.702 14.7985C138.31 15.3927 137.715 15.8622 136.917 16.2071C136.12 16.552 135.14 16.7248 133.977 16.7254C132.961 16.728 131.951 16.5657 130.986 16.2451Z" fill="#171216"/>
<path d="M7.01221 9.36797L12.999 0L17.8336 9.36797H7.06359" fill="#42526E"/>
<path d="M14.6167 19.7124L27.6446 15.6137L26.4209 1.22046L14.6167 19.7124Z" fill="#171216"/>
<path d="M9.79321 10.3455L14.6278 19.7125L20.6146 10.3455H9.79321Z" fill="#42526E"/>
<path d="M13.0279 0L1.22457 18.492L0 4.0124L13.0279 0Z" fill="#171216"/>
<path d="M143.008 2.68793C142.723 2.68868 142.445 2.77371 142.208 2.93229C141.971 3.09087 141.787 3.31588 141.679 3.57889C141.57 3.84191 141.542 4.13113 141.598 4.41003C141.654 4.68892 141.792 4.94498 141.994 5.14585C142.196 5.34672 142.453 5.4834 142.732 5.53862C143.012 5.59384 143.302 5.56512 143.565 5.45609C143.829 5.34706 144.054 5.16262 144.212 4.92605C144.37 4.68949 144.455 4.41142 144.455 4.12696C144.394 3.32201 143.759 2.68793 143.008 2.68793ZM143.008 5.33534C142.688 5.33359 142.381 5.20572 142.154 4.97948C141.927 4.75325 141.799 4.44691 141.797 4.12696C141.793 3.96717 141.822 3.80825 141.881 3.65982C141.941 3.5114 142.03 3.37657 142.143 3.2635C142.256 3.15043 142.392 3.06148 142.54 3.00203C142.689 2.94258 142.848 2.91387 143.008 2.91764C143.329 2.91939 143.637 3.04736 143.864 3.27377C144.091 3.50019 144.219 3.80677 144.221 4.12696C144.163 4.7601 143.644 5.33534 143.008 5.33534ZM143.701 3.78144C143.706 3.71204 143.697 3.64232 143.672 3.57705C143.648 3.51178 143.61 3.45251 143.561 3.4033C143.511 3.35408 143.452 3.31608 143.387 3.29189C143.321 3.2677 143.251 3.2579 143.182 3.26316H142.432V4.818H142.663V4.24182H143.123L143.408 4.7601H143.694L143.347 4.18392H143.405C143.586 4.18392 143.701 4.01116 143.701 3.78144ZM143.182 4.06621H142.663V3.55078H143.182C143.22 3.54902 143.258 3.55518 143.293 3.56887C143.328 3.58256 143.361 3.60348 143.387 3.63028C143.414 3.65708 143.435 3.68918 143.449 3.72453C143.463 3.75987 143.469 3.79769 143.467 3.83555C143.471 4.01116 143.298 4.06906 143.182 4.06906V4.06621Z" fill="#171216"/>
</svg>
