<svg xmlns:xlink="http://www.w3.org/1999/xlink" xmlns="http://www.w3.org/2000/svg" width="171" height="52" viewBox="0 0 171 52" fill="none">
<path d="M112.914 46.0497C113.348 46.6529 113.609 47.3423 113.609 48.2041C113.609 49.3244 113.175 50.1862 112.307 50.7894C111.439 51.3926 110.224 51.7373 108.575 51.7373H102.5V38.5522H108.228C109.703 38.5522 110.831 38.8108 111.699 39.414C112.48 40.0173 112.914 40.879 112.914 41.9132C112.914 42.6026 112.741 43.292 112.394 43.809C112.046 44.3261 111.526 44.6708 110.918 44.9293C111.786 45.1017 112.394 45.4464 112.914 46.0497ZM103.888 39.6725V44.4123H108.141C109.182 44.4123 110.05 44.2399 110.658 43.809C111.265 43.3782 111.526 42.7749 111.526 41.9993C111.526 41.2237 111.265 40.6205 110.658 40.1896C110.05 39.7587 109.269 39.5864 108.141 39.5864C108.141 39.6725 103.888 39.6725 103.888 39.6725ZM111.265 49.9276C111.873 49.4967 112.133 48.8935 112.133 48.0317C112.133 46.3944 110.918 45.5326 108.488 45.5326H103.801V50.4447H108.488C109.79 50.5309 110.658 50.3585 111.265 49.9276Z" fill="#D9E1E2"/>
<path d="M129.578 48.2041H122.201L120.639 51.7373H119.163L125.238 38.5522H126.627L132.702 51.7373H131.14L129.578 48.2041ZM129.057 47.0838L125.846 40.0173L122.635 47.0838H129.057Z" fill="#D9E1E2"/>
<path d="M150.321 38.5522V51.7373H149.193L140.601 40.9652V51.6512H139.212V38.5522H140.34L148.932 49.2382V38.5522H150.321Z" fill="#D9E1E2"/>
<path d="M163.513 45.5326L160.822 48.2903V51.7373H159.434V38.5522H160.822V46.4805L168.633 38.5522H170.282L164.554 44.4985L170.716 51.7373H169.067L163.513 45.5326Z" fill="#D9E1E2"/>
<path d="M23.261 0.893066H1.30322V5.80516H23.261V0.893066Z" fill="#D9E1E2"/>
<path d="M25.5177 23.9888H3.47314V28.8147H25.5177V23.9888Z" fill="#D9E1E2"/>
<path d="M73.2515 4.1678L76.9834 0.893066L96.6846 25.6259L93.0395 28.9006L73.2515 4.1678Z" fill="#D9E1E2"/>
<path d="M117.688 0.893066V27.0909L112.741 23.9885V0.893066H117.688Z" fill="#D9E1E2"/>
<path d="M165.335 28.9007V2.09961L170.196 5.80522V23.9886L165.335 28.9007Z" fill="#D9E1E2"/>
<path d="M148.759 2.09961V27.5218L143.812 23.9886V5.80522L148.759 2.09961Z" fill="#D9E1E2"/>
<path d="M34.1963 0.893066H40.6187L50.9467 14.5952L48.2562 19.5073L34.1963 0.893066Z" fill="#D9E1E2"/>
<path d="M23.2608 0.893066L26.2985 4.85721L3.47282 28.9006L0.521973 24.9365L23.2608 0.893066Z" fill="white"/>
<path d="M76.9836 0.893066H72.0366V28.8144H76.9836V0.893066Z" fill="white"/>
<path d="M97.9866 0.893066H93.0396V28.8144H97.9866V0.893066Z" fill="white"/>
<path d="M116.386 28.9009L112.741 23.9888H135.046V28.9009H116.386Z" fill="white"/>
<path d="M147.543 28.9009L143.812 23.9888H170.196L166.55 28.9009H147.543Z" fill="white"/>
<path d="M166.55 0.893066L170.196 5.80516H143.812L147.543 0.893066H166.55Z" fill="white"/>
<path d="M56.3275 0.893066L48.5164 11.4067L45.9995 16.4911V28.9006H50.9465V16.4911L62.8367 0.893066H56.3275Z" fill="white"/>
</svg>