<svg width="218" height="48" viewBox="0 0 218 48" fill="none" xmlns="http://www.w3.org/2000/svg">
<path d="M207.71 25.0595C207.71 25.1841 207.609 25.2957 207.408 25.3943C207.315 25.4488 207.207 25.4744 207.099 25.4677C206.991 25.4611 206.888 25.4225 206.803 25.357C205.571 24.1842 204.138 23.2343 202.571 22.5508C200.904 21.7803 199.085 21.3805 197.243 21.3797H196.45C195.654 21.3654 194.859 21.4089 194.07 21.5098C193.574 21.5695 193.11 21.7846 192.748 22.1233C192.381 22.5593 192.204 23.1206 192.257 23.6845V32.7905H195.427C196.863 32.7905 197.82 32.778 198.299 32.7531C198.774 32.762 199.245 32.6685 199.679 32.4791C200.113 32.2897 200.499 32.009 200.811 31.6568C201.424 30.9617 201.754 30.0681 201.737 29.1481C201.737 28.975 201.888 28.888 202.191 28.888C202.319 28.8802 202.448 28.8993 202.568 28.9441C202.606 28.9631 202.636 28.9926 202.657 29.029C202.677 29.0654 202.685 29.1068 202.681 29.1481V37.7681C202.685 37.8093 202.677 37.8508 202.657 37.8871C202.636 37.9235 202.606 37.9531 202.568 37.972C202.448 38.0164 202.319 38.0352 202.191 38.0273C201.888 38.0273 201.737 37.9406 201.737 37.7673C201.752 36.8419 201.423 35.9431 200.811 35.2398C200.502 34.883 200.116 34.5979 199.682 34.4052C199.248 34.2124 198.775 34.1166 198.299 34.1249C197.82 34.1005 196.863 34.088 195.427 34.0875H192.253V43.8257C192.206 44.2243 192.257 44.6283 192.401 45.0035C192.546 45.3788 192.78 45.7143 193.084 45.9817C193.795 46.4207 194.628 46.6288 195.465 46.5766H195.994C196.17 46.5766 196.258 46.7391 196.258 47.0602C196.258 47.3812 196.17 47.5429 195.994 47.5429H184.209C184.032 47.5429 183.944 47.382 183.944 47.0602C183.944 46.7627 184.032 46.614 184.209 46.614H184.737C185.568 46.6611 186.393 46.4532 187.098 46.0191C187.411 45.7488 187.651 45.4077 187.799 45.0254C187.947 44.6431 187.998 44.2311 187.948 43.8249V24.0193C187.998 23.6114 187.945 23.1978 187.794 22.815C187.642 22.4322 187.397 22.0922 187.079 21.8251C186.379 21.3961 185.561 21.1885 184.737 21.2302H184.209C184.032 21.2302 183.944 21.0693 183.944 20.7475C183.944 20.45 184.032 20.3013 184.209 20.3013H205.103C206.664 23.0276 207.508 24.5391 207.634 24.836C207.674 24.9043 207.7 24.9801 207.71 25.0587" fill="#FF506B"/>
<path d="M207.527 47.547C207.324 47.547 207.224 47.3861 207.224 47.0643C207.224 46.7392 207.324 46.5816 207.527 46.5816H207.94C208.542 46.6113 209.144 46.5031 209.697 46.2654C210.113 46.0552 210.32 45.5906 210.32 44.8717L210.245 33.4943C210.278 33.0703 210.172 32.6472 209.943 32.2867C209.744 32.028 209.465 31.8389 209.149 31.7471C208.679 31.6253 208.198 31.5507 207.713 31.5244C207.562 31.5244 207.468 31.481 207.43 31.3944C207.388 31.2813 207.369 31.1612 207.374 31.0408C207.372 30.9527 207.385 30.8649 207.412 30.7808C207.423 30.7457 207.442 30.7138 207.468 30.6879C207.495 30.662 207.527 30.6428 207.563 30.6321C207.865 30.534 210.044 30.0635 214.099 29.2205V44.8684C214.099 45.5874 214.313 46.052 214.741 46.2622C215.287 46.4958 215.881 46.6039 216.476 46.5783H216.929C217.105 46.5783 217.194 46.7408 217.194 47.061C217.194 47.3812 217.104 47.5438 216.929 47.5438L207.527 47.547ZM210.115 24.2981C209.692 23.8768 209.432 23.3245 209.377 22.7353C209.322 22.146 209.476 21.5563 209.814 21.0666C210.152 20.5769 210.652 20.2175 211.228 20.0497C211.805 19.8819 212.423 19.916 212.977 20.1463C213.531 20.3766 213.987 20.7887 214.267 21.3125C214.547 21.8363 214.633 22.4394 214.512 23.0189C214.39 23.5984 214.068 24.1185 213.601 24.4906C213.133 24.8627 212.549 25.0638 211.947 25.0596C211.605 25.0626 211.266 24.9966 210.951 24.8656C210.636 24.7346 210.351 24.5415 210.115 24.2981" fill="#FF506B"/>
<path d="M82.3553 47.0635L80.9509 42.5645C80.9425 42.5305 80.9224 42.5003 80.8939 42.4793C80.8654 42.4582 80.8304 42.4476 80.7948 42.4491H69.8058C69.7702 42.4474 69.7351 42.458 69.7066 42.4791C69.678 42.5002 69.6579 42.5304 69.6497 42.5645L68.2453 47.0635C68.2137 47.159 68.1502 47.2413 68.0653 47.297C67.9803 47.3528 67.8787 47.3787 67.7769 47.3707H64.6096C64.3226 47.3707 64.2183 47.2298 64.2965 46.9481L72.8567 20.763C72.8884 20.6673 72.9519 20.5849 73.037 20.5291C73.1221 20.4732 73.2239 20.4471 73.3259 20.455H77.2342C77.3362 20.4471 77.438 20.4732 77.5231 20.5291C77.6082 20.5849 77.6717 20.6673 77.7035 20.763L86.3413 46.9481L86.381 47.1017C86.381 47.2832 86.2637 47.3728 86.029 47.3707H82.8229C82.721 47.3787 82.6192 47.3528 82.5341 47.2971C82.449 47.2414 82.3854 47.1591 82.3537 47.0635M70.6509 39.4682C70.6685 39.4867 70.6897 39.5015 70.7133 39.5115C70.7369 39.5216 70.7623 39.5268 70.7881 39.5268H79.7778C79.8035 39.5267 79.829 39.5215 79.8526 39.5115C79.8761 39.5014 79.8974 39.4867 79.915 39.4682C79.9333 39.4512 79.9451 39.4286 79.9486 39.4041C79.952 39.3796 79.9469 39.3546 79.934 39.3333L75.4003 25.0685C75.3914 25.0449 75.3754 25.0244 75.3545 25.0099C75.3335 24.9954 75.3086 24.9875 75.2829 24.9873C75.2573 24.9873 75.2322 24.9951 75.2112 25.0096C75.1902 25.0242 75.1743 25.0447 75.1656 25.0685L70.6319 39.3342C70.6191 39.3555 70.6141 39.3805 70.6177 39.405C70.6213 39.4296 70.6333 39.4521 70.6517 39.4691" fill="#252B70"/>
<path d="M90.3686 46.9854V20.8393C90.3622 20.7951 90.3647 20.7501 90.376 20.7069C90.3872 20.6637 90.4071 20.623 90.4343 20.5873C90.4616 20.5516 90.4957 20.5216 90.5347 20.4988C90.5738 20.4761 90.617 20.4612 90.6619 20.4549C90.6943 20.4505 90.7271 20.4505 90.7594 20.4549H93.7334C93.7865 20.4476 93.8405 20.4525 93.8913 20.4693C93.9421 20.486 93.9883 20.5141 94.0261 20.5514C94.064 20.5886 94.0926 20.634 94.1096 20.684C94.1266 20.734 94.1316 20.7871 94.1242 20.8393V46.9862C94.1306 47.0304 94.1281 47.0754 94.1168 47.1186C94.1056 47.1618 94.0857 47.2025 94.0585 47.2382C94.0313 47.2739 93.9971 47.3039 93.9581 47.3267C93.919 47.3494 93.8758 47.3643 93.8309 47.3706C93.7986 47.375 93.7657 47.375 93.7334 47.3706H90.7594C90.6688 47.3834 90.5768 47.3602 90.5035 47.3063C90.4302 47.2523 90.3817 47.172 90.3686 47.0829C90.3638 47.0506 90.3638 47.0177 90.3686 46.9854" fill="#252B70"/>
<path d="M111.788 27.7974H114.718C114.763 27.7912 114.809 27.7938 114.853 27.805C114.897 27.8163 114.938 27.8359 114.975 27.8629C115.011 27.8898 115.042 27.9235 115.065 27.962C115.088 28.0006 115.103 28.0432 115.109 28.0875C115.113 28.1191 115.113 28.1511 115.109 28.1826V46.987C115.116 47.0312 115.113 47.0762 115.102 47.1194C115.09 47.1627 115.071 47.2033 115.043 47.239C115.016 47.2747 114.982 47.3048 114.943 47.3275C114.904 47.3502 114.861 47.3651 114.816 47.3714C114.783 47.3759 114.751 47.3759 114.718 47.3714H111.788C111.697 47.3839 111.605 47.3606 111.532 47.3065C111.459 47.2525 111.41 47.1721 111.397 47.0829C111.393 47.0511 111.393 47.0188 111.397 46.987V45.5648C111.4 45.5447 111.396 45.5241 111.385 45.5066C111.375 45.4891 111.358 45.4758 111.339 45.4689C111.3 45.4568 111.256 45.4754 111.202 45.5266C110.64 46.2431 109.907 46.8112 109.068 47.18C108.228 47.5488 107.309 47.7067 106.392 47.6396C105.173 47.6512 103.965 47.4016 102.854 46.9082C101.753 46.4361 100.822 45.648 100.184 44.647C99.546 43.6461 99.23 42.4789 99.2774 41.2983V28.1834C99.271 28.1392 99.2735 28.0942 99.2848 28.051C99.296 28.0078 99.3158 27.9671 99.3431 27.9314C99.3703 27.8957 99.4044 27.8657 99.4435 27.843C99.4825 27.8202 99.5258 27.8053 99.5707 27.799C99.603 27.7946 99.6358 27.7946 99.6682 27.799H102.598C102.651 27.7917 102.706 27.7966 102.756 27.8134C102.807 27.8301 102.853 27.8582 102.891 27.8955C102.929 27.9327 102.958 27.9781 102.975 28.0281C102.992 28.0781 102.997 28.1312 102.989 28.1834V40.1419C102.923 41.2897 103.307 42.4188 104.063 43.2959C104.454 43.6909 104.927 43.9983 105.45 44.1973C105.973 44.3963 106.533 44.4822 107.092 44.449C107.668 44.4755 108.242 44.3851 108.78 44.1833C109.318 43.9815 109.808 43.6728 110.219 43.2764C110.619 42.8581 110.928 42.3649 111.13 41.8264C111.331 41.2879 111.42 40.715 111.392 40.1419V28.1834C111.385 28.1392 111.388 28.0942 111.399 28.051C111.41 28.0078 111.43 27.9671 111.457 27.9314C111.484 27.8957 111.519 27.8657 111.558 27.843C111.597 27.8202 111.64 27.8053 111.685 27.799C111.717 27.7946 111.75 27.7946 111.782 27.799" fill="#252B70"/>
<path d="M145.948 29.2789C146.546 29.9383 147.006 30.7075 147.301 31.5423C147.597 32.3772 147.721 33.2612 147.668 34.1435V46.9837C147.674 47.0279 147.672 47.0729 147.661 47.1162C147.649 47.1594 147.629 47.2 147.602 47.2357C147.575 47.2714 147.541 47.3015 147.502 47.3242C147.463 47.3469 147.42 47.3619 147.375 47.3681C147.342 47.3729 147.309 47.3729 147.277 47.3681H144.347C144.256 47.3809 144.165 47.3579 144.091 47.3041C144.018 47.2504 143.969 47.1702 143.956 47.0813C143.951 47.0489 143.951 47.0161 143.956 46.9837V34.9131C144.015 33.7958 143.63 32.6996 142.882 31.8567C142.513 31.4761 142.066 31.1777 141.57 30.9815C141.074 30.7852 140.541 30.6957 140.007 30.7189C139.467 30.6986 138.929 30.787 138.425 30.9788C137.921 31.1705 137.463 31.4615 137.077 31.8339C136.691 32.2321 136.392 32.7034 136.197 33.219C136.002 33.7347 135.916 34.284 135.944 34.8335V46.9837C135.95 47.0279 135.948 47.0729 135.936 47.1162C135.925 47.1594 135.905 47.2 135.878 47.2357C135.851 47.2714 135.817 47.3015 135.778 47.3242C135.739 47.3469 135.695 47.3619 135.65 47.3681C135.618 47.3729 135.585 47.3729 135.553 47.3681H132.623C132.578 47.3746 132.532 47.3723 132.488 47.3613C132.444 47.3504 132.403 47.331 132.367 47.3044C132.331 47.2778 132.3 47.2443 132.277 47.206C132.254 47.1677 132.238 47.1254 132.232 47.0813C132.227 47.0489 132.227 47.0161 132.232 46.9837V34.9131C132.291 33.7958 131.906 32.6996 131.158 31.8567C130.384 31.132 129.358 30.7262 128.289 30.7225C127.221 30.7189 126.191 31.1177 125.412 31.8372C124.667 32.6588 124.281 33.7367 124.338 34.8367V46.987C124.345 47.0312 124.342 47.0762 124.331 47.1194C124.32 47.1626 124.3 47.2033 124.273 47.239C124.246 47.2747 124.211 47.3047 124.172 47.3275C124.133 47.3502 124.09 47.3651 124.045 47.3714C124.013 47.3761 123.98 47.3761 123.948 47.3714H120.974C120.921 47.379 120.866 47.3744 120.815 47.3578C120.764 47.3411 120.718 47.313 120.68 47.2757C120.642 47.2384 120.614 47.1928 120.597 47.1427C120.58 47.0926 120.575 47.0392 120.583 46.987V28.1834C120.577 28.1392 120.579 28.0942 120.59 28.051C120.602 28.0078 120.621 27.9671 120.649 27.9314C120.676 27.8957 120.71 27.8657 120.749 27.8429C120.788 27.8202 120.831 27.8053 120.876 27.799C120.909 27.7946 120.941 27.7946 120.974 27.799H123.948C124.001 27.7917 124.055 27.7966 124.106 27.8134C124.156 27.8301 124.203 27.8582 124.24 27.8955C124.278 27.9327 124.307 27.9781 124.324 28.0281C124.341 28.078 124.346 28.1312 124.338 28.1834V29.4886C124.337 29.5112 124.342 29.5338 124.352 29.554C124.362 29.5743 124.378 29.5915 124.397 29.604C124.436 29.63 124.48 29.617 124.534 29.5649C125.154 28.8713 125.927 28.327 126.795 27.9737C127.662 27.6205 128.6 27.4679 129.537 27.5276C130.717 27.4938 131.886 27.7517 132.937 28.2777C133.878 28.7799 134.641 29.5509 135.127 30.489C135.205 30.5919 135.283 30.5919 135.361 30.489C135.948 29.5234 136.81 28.7482 137.84 28.259C138.909 27.7632 140.078 27.5131 141.26 27.5276C142.122 27.4836 142.983 27.6165 143.79 27.9177C144.597 28.2189 145.331 28.6819 145.946 29.2773" fill="#252B70"/>
<path d="M166.822 29.3561C167.462 30.0099 167.958 30.7857 168.281 31.6355C168.603 32.4853 168.745 33.3912 168.698 34.2972V46.9862C168.711 47.0754 168.687 47.166 168.632 47.238C168.577 47.3101 168.496 47.3577 168.405 47.3706C168.373 47.3751 168.34 47.3751 168.308 47.3706H165.334C165.28 47.3781 165.226 47.3733 165.176 47.3566C165.125 47.34 165.078 47.3119 165.04 47.2746C165.003 47.2373 164.974 47.1918 164.957 47.1417C164.94 47.0917 164.935 47.0385 164.943 46.9862V35.031C164.994 33.8868 164.587 32.7686 163.809 31.9161C163.423 31.518 162.955 31.2058 162.436 31.0002C161.917 30.7946 161.359 30.7004 160.8 30.7239C160.241 30.7051 159.685 30.8015 159.167 31.0068C158.649 31.2121 158.18 31.5219 157.79 31.9161C157.397 32.3265 157.09 32.81 156.889 33.3383C156.688 33.8666 156.596 34.4291 156.618 34.9928V46.9895C156.631 47.0787 156.607 47.1692 156.552 47.2413C156.497 47.3133 156.415 47.361 156.325 47.3739C156.292 47.3783 156.26 47.3783 156.227 47.3739H153.253C153.2 47.3813 153.146 47.3766 153.095 47.3599C153.044 47.3432 152.998 47.3151 152.96 47.2778C152.922 47.2405 152.894 47.195 152.877 47.145C152.86 47.0949 152.855 47.0417 152.863 46.9895V28.1835C152.856 28.1393 152.859 28.0943 152.87 28.051C152.881 28.0078 152.901 27.9672 152.928 27.9315C152.955 27.8958 152.99 27.8657 153.029 27.843C153.068 27.8203 153.111 27.8053 153.156 27.7991C153.188 27.7943 153.221 27.7943 153.253 27.7991H156.227C156.272 27.7929 156.318 27.7955 156.362 27.8067C156.406 27.8179 156.448 27.8376 156.484 27.8645C156.52 27.8914 156.551 27.9252 156.574 27.9637C156.597 28.0023 156.612 28.0449 156.618 28.0892C156.622 28.1205 156.622 28.1522 156.618 28.1835V29.565C156.617 29.5876 156.621 29.6102 156.632 29.6305C156.642 29.6507 156.657 29.668 156.677 29.6804C156.716 29.7064 156.749 29.6934 156.775 29.6414C157.372 28.9265 158.134 28.3619 158.997 27.9944C159.861 27.627 160.801 27.4672 161.739 27.5284C162.668 27.4808 163.596 27.618 164.469 27.9319C165.343 28.2458 166.142 28.73 166.821 29.3553" fill="#252B70"/>
<path d="M174.522 24.0307C174.068 23.6185 173.776 23.0636 173.694 22.4618C173.613 21.86 173.748 21.249 174.075 20.7345C174.403 20.22 174.903 19.8342 175.489 19.6438C176.075 19.4533 176.71 19.4702 177.285 19.6915C177.86 19.9127 178.338 20.3245 178.637 20.8557C178.936 21.3868 179.037 22.004 178.922 22.6006C178.808 23.1973 178.485 23.7358 178.01 24.1234C177.535 24.5109 176.937 24.723 176.32 24.7231C175.988 24.7346 175.657 24.6791 175.348 24.5601C175.039 24.441 174.757 24.2608 174.522 24.0307M174.365 46.948V28.1843C174.359 28.1401 174.362 28.0951 174.373 28.0519C174.384 28.0086 174.404 27.968 174.431 27.9323C174.458 27.8966 174.493 27.8665 174.532 27.8438C174.571 27.8211 174.614 27.8062 174.659 27.7999C174.691 27.7955 174.724 27.7955 174.756 27.7999H177.73C177.775 27.7937 177.821 27.7963 177.865 27.8075C177.909 27.8187 177.95 27.8384 177.987 27.8653C178.023 27.8923 178.054 27.926 178.077 27.9645C178.1 28.0031 178.115 28.0457 178.121 28.09C178.126 28.1213 178.126 28.153 178.121 28.1843V46.9456C178.127 46.9898 178.125 47.0348 178.114 47.078C178.102 47.1213 178.083 47.1619 178.055 47.1976C178.028 47.2333 177.994 47.2634 177.955 47.2861C177.916 47.3088 177.873 47.3237 177.828 47.33C177.795 47.3347 177.763 47.3347 177.73 47.33H174.756C174.666 47.3428 174.574 47.3198 174.501 47.266C174.427 47.2122 174.379 47.1321 174.365 47.0431C174.361 47.0108 174.361 46.9779 174.365 46.9456" fill="#252B70"/>
<path d="M14.105 47.4267H23.0196L39.3205 19.6789L34.8678 12.0877L14.105 47.4267Z" fill="#252B70"/>
<path d="M39.3206 19.6764L34.9116 27.1814L46.7969 47.4259H55.6041L39.3206 19.6764Z" fill="#FF506B"/>
<path d="M32.2375 31.7365L27.7765 39.3268L32.5308 47.4299H41.4445L32.2375 31.7365Z" fill="#60A0A5"/>
<path d="M0 47.3202L0.187528 47.4291H8.76342L32.1887 7.52696L27.7723 0L0 47.3202Z" fill="#252B70"/>
</svg>
