<svg width="190" height="48" viewBox="0 0 190 48" fill="none" xmlns="http://www.w3.org/2000/svg">
<path d="M175.149 16.586H180.497V37.9791H175.149V16.586ZM174.391 9.32125C174.391 8.45958 174.703 7.71676 175.327 7.09279C175.98 6.43911 176.798 6.11227 177.778 6.11227C178.759 6.11227 179.576 6.42426 180.229 7.04823C180.913 7.64248 181.255 8.40015 181.255 9.32125C181.255 10.2423 180.913 11.0149 180.229 11.6388C179.576 12.2331 178.759 12.5302 177.778 12.5302C176.798 12.5302 175.98 12.2182 175.327 11.5943C174.703 10.9406 174.391 10.1829 174.391 9.32125Z" fill="#07131D"/>
<path d="M152.344 6.42436H172.712V11.327H157.96V19.9734H171.865V24.6977H157.96V37.9792H152.344V6.42436Z" fill="#07131D"/>
<path d="M143.33 25.143C143.33 24.4596 143.226 23.806 143.018 23.182C142.84 22.558 142.543 22.0083 142.127 21.5329C141.711 21.0575 141.176 20.6861 140.522 20.4187C139.899 20.1216 139.156 19.973 138.294 19.973C136.69 19.973 135.323 20.4633 134.194 21.4438C133.094 22.3946 132.485 23.6277 132.366 25.143H143.33ZM148.679 27.5498C148.679 27.7875 148.679 28.0252 148.679 28.2629C148.679 28.5006 148.664 28.7383 148.634 28.976H132.366C132.426 29.7485 132.619 30.4616 132.946 31.1153C133.302 31.7392 133.763 32.2889 134.327 32.7643C134.892 33.21 135.531 33.5666 136.244 33.834C136.957 34.1014 137.7 34.2351 138.472 34.2351C139.809 34.2351 140.938 33.9974 141.86 33.522C142.781 33.0169 143.538 32.3335 144.133 31.4718L147.698 34.3242C145.588 37.1767 142.528 38.6029 138.517 38.6029C136.853 38.6029 135.323 38.3503 133.926 37.8452C132.53 37.3104 131.312 36.5676 130.272 35.6168C129.261 34.6659 128.459 33.5072 127.865 32.1404C127.3 30.7439 127.018 29.1691 127.018 27.416C127.018 25.6927 127.3 24.1328 127.865 22.7363C128.459 21.3101 129.261 20.1067 130.272 19.1262C131.282 18.116 132.47 17.3434 133.837 16.8086C135.234 16.2441 136.734 15.9618 138.339 15.9618C139.824 15.9618 141.191 16.2144 142.439 16.7195C143.717 17.1949 144.816 17.9228 145.737 18.9034C146.658 19.8542 147.371 21.0575 147.876 22.5135C148.411 23.9397 148.679 25.6184 148.679 27.5498Z" fill="#07131D"/>
<path d="M104.109 16.5858H109.19V20.0176H109.279C109.754 18.9479 110.571 18.012 111.73 17.2097C112.919 16.3778 114.315 15.9618 115.92 15.9618C117.316 15.9618 118.505 16.2144 119.485 16.7195C120.495 17.1949 121.313 17.8337 121.937 18.6359C122.59 19.4382 123.066 20.3593 123.363 21.3992C123.66 22.4392 123.808 23.5088 123.808 24.6082V37.9789H118.46V26.1235C118.46 25.4996 118.416 24.8459 118.326 24.1625C118.237 23.4791 118.044 22.87 117.747 22.3352C117.45 21.7706 117.034 21.3101 116.499 20.9535C115.994 20.597 115.311 20.4187 114.449 20.4187C113.587 20.4187 112.844 20.597 112.22 20.9535C111.597 21.2804 111.077 21.7112 110.661 22.246C110.274 22.7809 109.977 23.4048 109.769 24.1179C109.561 24.8013 109.457 25.4996 109.457 26.2127V37.9789H104.109V16.5858Z" fill="#07131D"/>
<path d="M94.0549 16.586H99.4031V37.9791H94.0549V16.586ZM93.2972 9.32125C93.2972 8.45958 93.6092 7.71676 94.2331 7.09279C94.8868 6.43911 95.7039 6.11227 96.6844 6.11227C97.6649 6.11227 98.482 6.42426 99.1357 7.04823C99.8191 7.64248 100.161 8.40015 100.161 9.32125C100.161 10.2423 99.8191 11.0149 99.1357 11.6388C98.482 12.2331 97.6649 12.5302 96.6844 12.5302C95.7039 12.5302 94.8868 12.2182 94.2331 11.5943C93.6092 10.9406 93.2972 10.1829 93.2972 9.32125Z" fill="#07131D"/>
<path d="M87.7576 13.8229C86.9256 12.6938 85.8411 11.8767 84.5041 11.3716C83.167 10.8368 81.8596 10.5694 80.582 10.5694C78.9478 10.5694 77.4622 10.8665 76.1251 11.4608C74.788 12.055 73.6292 12.8721 72.6487 13.9121C71.6979 14.952 70.9551 16.1702 70.4202 17.5667C69.9151 18.9632 69.6626 20.4786 69.6626 22.1128C69.6626 23.8361 69.9151 25.4109 70.4202 26.8371C70.9254 28.2633 71.6385 29.4964 72.5596 30.5363C73.5104 31.5465 74.6394 32.3339 75.9468 32.8985C77.2542 33.463 78.7249 33.7453 80.3591 33.7453C82.0528 33.7453 83.5533 33.4184 84.8606 32.7648C86.168 32.0814 87.2228 31.19 88.025 30.0906L92.5265 33.255C91.13 35.0081 89.4215 36.3749 87.401 37.3554C85.3806 38.3062 83.0184 38.7816 80.3146 38.7816C77.8484 38.7816 75.5754 38.3805 73.4955 37.5782C71.4453 36.7463 69.6774 35.6023 68.1918 34.1464C66.7062 32.6608 65.5474 30.9077 64.7154 28.8873C63.8834 26.8371 63.4675 24.5789 63.4675 22.1128C63.4675 19.5872 63.8983 17.3142 64.76 15.2937C65.6514 13.2435 66.8547 11.5053 68.3701 10.0791C69.9151 8.6529 71.7276 7.55353 73.8075 6.781C75.8874 6.00847 78.1455 5.62221 80.582 5.62221C81.5922 5.62221 82.647 5.7262 83.7464 5.93419C84.8458 6.11246 85.9006 6.40959 86.9108 6.82557C87.921 7.21183 88.8718 7.7021 89.7632 8.29635C90.6546 8.8906 91.4123 9.60371 92.0362 10.4357L87.7576 13.8229Z" fill="#07131D"/>
<path d="M184.976 36.4377V33.5899H186.419C186.535 33.5899 186.661 33.6234 186.797 33.6902C186.934 33.7546 187.05 33.8549 187.145 33.9912C187.243 34.125 187.291 34.2948 187.291 34.5006C187.291 34.709 187.241 34.8865 187.141 35.0331C187.041 35.1772 186.918 35.2865 186.774 35.3611C186.633 35.4357 186.499 35.473 186.373 35.473H185.331V35.01H186.18C186.265 35.01 186.356 34.9675 186.454 34.8826C186.554 34.7977 186.605 34.6704 186.605 34.5006C186.605 34.3257 186.554 34.2073 186.454 34.1456C186.356 34.0838 186.27 34.053 186.195 34.053H185.601V36.4377H184.976ZM186.697 35.0949L187.407 36.4377H186.72L186.026 35.0949H186.697ZM186.057 38.1356C185.63 38.1356 185.229 38.0559 184.856 37.8964C184.483 37.7369 184.155 37.5156 183.872 37.2326C183.589 36.9497 183.368 36.6217 183.209 36.2486C183.049 35.8756 182.969 35.4756 182.969 35.0485C182.969 34.6215 183.049 34.2215 183.209 33.8484C183.368 33.4754 183.589 33.1474 183.872 32.8644C184.155 32.5815 184.483 32.3602 184.856 32.2007C185.229 32.0412 185.63 31.9615 186.057 31.9615C186.484 31.9615 186.884 32.0412 187.257 32.2007C187.63 32.3602 187.958 32.5815 188.241 32.8644C188.524 33.1474 188.745 33.4754 188.904 33.8484C189.064 34.2215 189.144 34.6215 189.144 35.0485C189.144 35.4756 189.064 35.8756 188.904 36.2486C188.745 36.6217 188.524 36.9497 188.241 37.2326C187.958 37.5156 187.63 37.7369 187.257 37.8964C186.884 38.0559 186.484 38.1356 186.057 38.1356ZM186.057 37.3947C186.489 37.3947 186.882 37.2892 187.237 37.0783C187.592 36.8673 187.875 36.5844 188.086 36.2294C188.297 35.8743 188.403 35.4807 188.403 35.0485C188.403 34.6164 188.297 34.2228 188.086 33.8677C187.875 33.5127 187.592 33.2297 187.237 33.0188C186.882 32.8079 186.489 32.7024 186.057 32.7024C185.624 32.7024 185.231 32.8079 184.876 33.0188C184.521 33.2297 184.238 33.5127 184.027 33.8677C183.816 34.2228 183.71 34.6164 183.71 35.0485C183.71 35.4807 183.816 35.8743 184.027 36.2294C184.238 36.5844 184.521 36.8673 184.876 37.0783C185.231 37.2892 185.624 37.3947 186.057 37.3947Z" fill="#07131D"/>
<path d="M2.12524 47.7158L35.1981 5.17949C38.3284 2.24993 42.6242 9.83992 43.8044 12.0568C45.7683 15.736 48.7148 24.5247 45.9349 28.2364C45.3034 29.0833 43.3302 29.8423 42.293 30.3422C29.7535 36.4049 16.7853 41.63 4.25044 47.7158H2.12524Z" fill="url(#paint0_linear_7015_9423)"/>
<path d="M14.8261 29.6167C14.4613 29.6213 14.1714 29.3714 14.0424 29.1446L0 5.55031C0.0184404 3.46306 2.12987 2.40324 3.81255 1.74143C8.74997 -0.206975 20.8884 -1.22052 25.0513 2.54671C25.5446 2.99563 25.8765 3.57876 26.213 4.14801V14.8764C22.4097 19.435 18.7585 25.1969 14.8261 29.6167C14.8261 29.6167 14.8491 29.6028 14.8261 29.6213V29.6167Z" fill="url(#paint1_linear_7015_9423)"/>
<path d="M27.2318 38.5108L27.4623 47.9659C26.5679 47.8964 25.7012 48.2806 25.0558 47.4938C24.5948 46.9338 21.8472 42.3474 21.6167 41.7226C21.5245 41.4773 21.4139 41.2228 21.4692 40.9544C21.5337 40.6443 27.0013 38.284 27.2272 38.5061L27.2318 38.5108Z" fill="url(#paint2_linear_7015_9423)"/>
<defs>
<linearGradient id="paint0_linear_7015_9423" x1="47.8381" y1="17.5544" x2="2.76336" y2="47.6042" gradientUnits="userSpaceOnUse">
<stop stop-color="#00C9C9"/>
<stop offset="1" stop-color="#00E0F6"/>
</linearGradient>
<linearGradient id="paint1_linear_7015_9423" x1="-0.575499" y1="-13.3114" x2="26.1354" y2="50.127" gradientUnits="userSpaceOnUse">
<stop stop-color="#6E00BA"/>
<stop offset="0.495" stop-color="#A032DC"/>
<stop offset="1" stop-color="#D464FF"/>
</linearGradient>
<linearGradient id="paint2_linear_7015_9423" x1="1.09428" y1="-8.30326" x2="27.8052" y2="50.9616" gradientUnits="userSpaceOnUse">
<stop stop-color="#6E00BA"/>
<stop offset="0.495" stop-color="#A032DC"/>
<stop offset="1" stop-color="#D464FF"/>
</linearGradient>
</defs>
</svg>
