<svg width="214" height="46" viewBox="0 0 214 46" fill="none" xmlns="http://www.w3.org/2000/svg">
<path d="M15.5563 39.9349C15.7949 40.2363 16.0768 40.5006 16.3929 40.7193C17.5236 41.4996 19.0308 41.6451 20.3661 41.5786C22.5225 41.4716 24.6071 40.7285 26.5802 39.9012C29.3647 38.7361 32.7042 37.2911 34.4498 34.6675C35.1987 33.5421 35.5214 32.1081 35.0656 30.8064C34.6781 29.7002 33.8052 28.9309 32.9173 28.2123C31.0149 26.6731 26.9837 23.9088 26.9837 23.9088C26.9837 23.9088 23.8186 26.2933 23.5876 26.4658C22.3475 27.3908 21.1409 28.3526 19.8761 29.2469C18.6495 30.1147 17.096 30.7836 15.7875 29.6724C15.5261 29.4524 15.3161 29.1778 15.1725 28.8679C15.1103 30.9185 14.9859 32.9252 14.7993 34.8749L14.78 35.0754C14.673 36.1832 14.5407 37.3601 14.8196 38.4537C14.959 38.9934 15.2104 39.4977 15.5575 39.9339L15.5563 39.9349Z" fill="url(#paint0_linear_7015_9454)"/>
<path d="M6.44147 10.3066C6.49621 10.2494 7.02016 10.3935 7.10497 10.4086C13.5364 11.6041 18.4179 16.1089 23.3018 20.114C23.4703 20.2521 23.6387 20.3896 23.8089 20.5252C23.867 20.5714 23.9244 20.6179 23.9825 20.6633C24.9261 21.4097 25.8747 22.1528 26.8073 22.9128C29.1333 21.2405 31.3946 19.3862 33.5461 17.4948C34.7147 16.467 35.8385 14.9194 35.0676 13.3143C33.9319 10.9529 30.9932 8.95448 28.8281 7.60487C24.5568 4.94173 19.7311 3.49777 14.8 5.03773C11.6177 6.06827 8.74444 7.87971 6.44251 10.3066H6.44147Z" fill="#30113E"/>
<path d="M6.08104 11.0001C3.08946 14.199 1.08608 18.3254 0.84349 22.6417C0.573942 27.3949 2.7998 31.5022 6.02132 34.862C8.44726 37.3929 11.7005 39.5665 15.0224 40.7029C15.1675 40.7527 15.5296 40.8663 15.4924 40.8454C15.5296 40.8661 15.0763 40.4493 14.9003 40.2362C14.7163 40.0147 14.5612 39.7709 14.4385 39.5105C14.2357 39.0641 14.1011 38.5898 14.0392 38.1034C13.9019 37.0908 14.0184 36.0629 14.115 35.0461C14.5304 30.5552 14.6416 26.0413 14.4478 21.5353C14.4478 21.5353 14.3576 19.291 14.4478 18.5495C14.6382 16.9808 16.5777 16.3278 18.0106 16.6144C18.0588 16.627 18.1066 16.6413 18.1539 16.6558C12.4105 12.392 8.6094 11.0727 6.28071 10.7921L6.08269 10.9995L6.08104 11.0001Z" fill="url(#paint1_linear_7015_9454)"/>
<path d="M50.4122 31.914C48.8646 31.914 47.5414 31.6432 46.4427 31.1015C45.3594 30.5599 44.485 29.8557 43.8195 28.9891C43.1541 28.1225 42.6666 27.1862 42.3571 26.1802C42.0475 25.1588 41.8928 24.1761 41.8928 23.2321V22.7214C41.8928 21.7 42.0475 20.6786 42.3571 19.6572C42.6821 18.6358 43.1773 17.7073 43.8427 16.8716C44.5082 16.0359 45.3748 15.3627 46.4427 14.852C47.5105 14.3413 48.7872 14.0859 50.2729 14.0859C51.7895 14.0859 53.0895 14.349 54.1728 14.8752C55.2561 15.4014 56.115 16.1365 56.7495 17.0805C57.384 18.0245 57.7709 19.1388 57.9102 20.4233H55.5888C55.465 19.4638 55.1555 18.6745 54.6603 18.0555C54.1651 17.421 53.5383 16.949 52.78 16.6394C52.0372 16.3299 51.2015 16.1752 50.2729 16.1752C49.267 16.1752 48.3849 16.3531 47.6266 16.7091C46.8682 17.0495 46.2337 17.537 45.723 18.1715C45.2278 18.7906 44.8487 19.5102 44.5856 20.3304C44.338 21.1506 44.2142 22.0405 44.2142 23C44.2142 23.913 44.338 24.7797 44.5856 25.5999C44.8487 26.4201 45.2356 27.1475 45.7463 27.782C46.2724 28.4165 46.9224 28.9195 47.6962 29.2909C48.47 29.6468 49.3753 29.8248 50.4122 29.8248C51.8669 29.8248 53.0895 29.4611 54.08 28.7337C55.0704 28.0064 55.674 26.954 55.8906 25.5767H58.212C58.0572 26.7374 57.6626 27.7975 57.0281 28.757C56.4091 29.7165 55.5424 30.4825 54.4282 31.0551C53.3294 31.6277 51.9907 31.914 50.4122 31.914Z" fill="#30113E"/>
<path d="M69.0974 31.914C67.5807 31.914 66.273 31.6432 65.1743 31.1015C64.0755 30.5599 63.1702 29.848 62.4583 28.9659C61.7464 28.0838 61.2125 27.1397 60.8565 26.1338C60.5161 25.1279 60.3458 24.1607 60.3458 23.2321V22.7214C60.3458 21.7155 60.5238 20.7018 60.8797 19.6804C61.2357 18.659 61.7773 17.7305 62.5047 16.8948C63.2321 16.0436 64.1374 15.3627 65.2207 14.852C66.3195 14.3413 67.6117 14.0859 69.0974 14.0859C70.583 14.0859 71.8675 14.3413 72.9508 14.852C74.0496 15.3627 74.9627 16.0436 75.69 16.8948C76.4174 17.7305 76.9591 18.659 77.315 19.6804C77.6709 20.7018 77.8489 21.7155 77.8489 22.7214V23.2321C77.8489 24.1607 77.6709 25.1279 77.315 26.1338C76.9745 27.1397 76.4484 28.0838 75.7365 28.9659C75.0246 29.848 74.1193 30.5599 73.0205 31.1015C71.9217 31.6432 70.614 31.914 69.0974 31.914ZM69.0974 29.8248C70.0878 29.8248 70.9777 29.6391 71.7669 29.2677C72.5717 28.8962 73.2526 28.3933 73.8097 27.7588C74.3669 27.1088 74.7925 26.3814 75.0865 25.5767C75.3805 24.7565 75.5275 23.8976 75.5275 23C75.5275 22.056 75.3805 21.1738 75.0865 20.3536C74.7925 19.5334 74.3669 18.8138 73.8097 18.1948C73.2526 17.5602 72.5717 17.065 71.7669 16.7091C70.9777 16.3531 70.0878 16.1752 69.0974 16.1752C68.1069 16.1752 67.2093 16.3531 66.4046 16.7091C65.6153 17.065 64.9421 17.5602 64.385 18.1948C63.8279 18.8138 63.4023 19.5334 63.1082 20.3536C62.8142 21.1738 62.6672 22.056 62.6672 23C62.6672 23.8976 62.8142 24.7565 63.1082 25.5767C63.4023 26.3814 63.8279 27.1088 64.385 27.7588C64.9421 28.3933 65.6153 28.8962 66.4046 29.2677C67.2093 29.6391 68.1069 29.8248 69.0974 29.8248Z" fill="#30113E"/>
<path d="M81.5918 31.4962V14.5502H83.8667V31.4962H81.5918ZM83.4024 31.4962V29.4534H91.1558V31.4962H83.4024Z" fill="#30113E"/>
<path d="M94.2187 31.4962V14.5502H96.4936V31.4962H94.2187ZM96.0294 31.4962V29.4534H103.783V31.4962H96.0294Z" fill="#30113E"/>
<path d="M106.846 31.4962V14.5502H109.121V31.4962H106.846ZM108.656 31.4962V29.4534H116.874V31.4962H108.656ZM108.656 23.9053V21.8625H116.154V23.9053H108.656ZM108.656 16.593V14.5502H116.642V16.593H108.656Z" fill="#30113E"/>
<path d="M128.196 31.914C126.881 31.914 125.689 31.6974 124.621 31.264C123.554 30.8307 122.633 30.2194 121.859 29.4302C121.101 28.6409 120.513 27.7123 120.095 26.6445C119.677 25.5612 119.468 24.3851 119.468 23.116V22.6053C119.468 21.522 119.654 20.4774 120.025 19.4715C120.412 18.4501 120.961 17.537 121.673 16.7323C122.401 15.9121 123.283 15.2698 124.32 14.8056C125.357 14.3258 126.525 14.0859 127.825 14.0859C129.233 14.0859 130.487 14.3568 131.586 14.8984C132.684 15.4246 133.566 16.1674 134.232 17.1269C134.897 18.0709 135.284 19.1697 135.393 20.4233H133.071C132.963 19.4792 132.653 18.6977 132.143 18.0787C131.632 17.4442 130.998 16.9722 130.239 16.6627C129.496 16.3377 128.692 16.1752 127.825 16.1752C126.943 16.1752 126.13 16.3377 125.388 16.6627C124.645 16.9722 124.002 17.421 123.461 18.009C122.935 18.5971 122.525 19.3013 122.23 20.1215C121.936 20.9417 121.789 21.8625 121.789 22.8839C121.789 24.0446 121.944 25.066 122.254 25.9481C122.579 26.8148 123.027 27.5421 123.6 28.1302C124.173 28.7028 124.846 29.1361 125.62 29.4302C126.409 29.7242 127.268 29.8712 128.196 29.8712C129.512 29.8712 130.665 29.6081 131.655 29.082C132.661 28.5403 133.419 27.8439 133.93 26.9927L133.094 29.7551V24.7178H135.23V28.757C134.472 29.7474 133.497 30.5212 132.305 31.0783C131.114 31.6355 129.744 31.914 128.196 31.914ZM127.593 25.1821V23.2785H136.669V25.1821H127.593Z" fill="#30113E"/>
<path d="M139.967 31.4962V14.5502H142.242V31.4962H139.967Z" fill="#30113E"/>
<path d="M145.409 31.4962L151.515 14.5502H155.368L161.659 31.4962H159.314L153.627 16.0359L154.741 16.593H152.002L153.186 16.0359L147.684 31.4962H145.409ZM149.054 26.4356L149.82 24.3928H157.132L157.898 26.4356H149.054Z" fill="#30113E"/>
<path d="M166.771 31.4962V16.1287H169.046V31.4962H166.771ZM161.617 16.593V14.5502H174.199V16.593H161.617Z" fill="#30113E"/>
<path d="M177.257 31.4962V14.5502H179.532V31.4962H177.257ZM179.068 31.4962V29.4534H187.286V31.4962H179.068ZM179.068 23.9053V21.8625H186.566V23.9053H179.068ZM179.068 16.593V14.5502H187.054V16.593H179.068Z" fill="#30113E"/>
<defs>
<linearGradient id="paint0_linear_7015_9454" x1="18.592" y1="36.6944" x2="31.819" y2="23.3748" gradientUnits="userSpaceOnUse">
<stop stop-color="#30113E"/>
<stop offset="0.56" stop-color="#5F3C7A"/>
<stop offset="1" stop-color="#8761AD"/>
</linearGradient>
<linearGradient id="paint1_linear_7015_9454" x1="3.92393" y1="32.7629" x2="22.1291" y2="26.7227" gradientUnits="userSpaceOnUse">
<stop offset="0.08" stop-color="#62859C"/>
<stop offset="0.1" stop-color="#5D7E97"/>
<stop offset="0.21" stop-color="#466381"/>
<stop offset="0.33" stop-color="#354D70"/>
<stop offset="0.46" stop-color="#293E64"/>
<stop offset="0.61" stop-color="#22355D"/>
<stop offset="0.84" stop-color="#20335B"/>
</linearGradient>
</defs>
</svg>
