<svg width="230" height="41" viewBox="0 0 230 41" fill="none" xmlns="http://www.w3.org/2000/svg"><path d="M62.0107 18.5421L62.0501 17.9168C62.2454 15.585 62.4836 14.665 63.1466 13.5822C64.0495 12.1294 65.4578 11.2916 66.9483 11.2916C68.4354 11.2916 69.6913 12.2099 70.3577 13.7519C70.8255 14.8346 70.9831 16.0014 70.9831 18.5421H62.0107V18.5421ZM73.7243 26.7915L73.4517 26.5003C71.8841 27.6653 70.791 28.0371 68.867 28.0371C64.5599 28.0371 62.127 25.0834 62.0105 19.6678L68.5175 19.457L70.9435 19.3748L71.2193 19.332C71.9235 19.332 73.02 19.2908 74.4317 19.332C74.4317 16.4571 74.2364 14.9991 73.6899 13.6679C72.7458 11.5417 70.7105 10.2499 68.2417 10.2499C65.6941 10.2499 62.8723 11.2916 61.1488 12.8798C59.2693 14.6239 58.4041 17.0002 58.4041 20.3753C58.4041 26.2073 61.7758 29.9987 66.9482 29.9987C69.2594 29.9987 71.0223 29.4162 73.1022 27.9188L73.7241 26.7915H73.7243Z" fill="white"/><path d="M84.5492 11.3339C88.0373 11.3339 90.0351 14.4607 90.0351 20.0408C90.0351 25.3347 87.8781 28.9155 84.664 28.9155C81.1415 28.9155 78.9451 25.5438 78.9451 20.2087C78.9451 14.5412 80.9822 11.3339 84.5492 11.3339M85.178 10.2495C79.1405 10.2495 75.301 14.2499 75.301 20.4571C75.301 26.4141 78.5134 29.9982 83.8416 29.9982C89.8758 29.9982 93.7169 25.9567 93.7169 19.7067C93.7169 13.7514 90.5816 10.2495 85.1782 10.2495" fill="white"/><path d="M99.1893 18.2488C99.1893 15.8348 99.3435 15.3328 100.406 14.3751C101.696 13.2101 103.145 12.5847 104.677 12.5847C107.771 12.5847 109.772 15.5418 109.772 20.1625C109.772 24.7883 107.457 27.7505 103.889 27.7505C101.891 27.7505 100.601 27.1269 99.1893 25.4582V18.2488V18.2488ZM99.5028 10.0422C98.9528 10.1673 98.9922 10.1245 97.5051 10.4174C95.7405 10.755 94.4881 10.8783 93.0352 10.9126V11.627C95.3498 11.627 96.0129 12.165 96.0129 14.1232V33.747C96.0129 35.8286 95.8981 37.8314 95.7799 38.4122C95.5846 39.0786 94.8427 39.4573 93.3522 39.5823L92.4476 39.6646V40.3328C94.4504 40.2454 95.3498 40.2454 96.8387 40.2454C97.7347 40.2454 98.9528 40.2454 100.406 40.2882L102.366 40.3328V39.6646L101.852 39.5823C100.171 39.3305 99.6604 39.0786 99.4651 38.5013C99.3075 38.0387 99.1893 35.9588 99.1893 33.747V28.9138L99.6176 28.9978C100.951 29.3336 101.932 29.4964 102.595 29.4964C103.889 29.4964 105.067 29.164 106.121 28.5009C107.613 27.5826 108.789 26.7911 109.299 26.4587C111.845 24.6273 113.019 22.0385 113.019 18.3756C113.019 13.4191 110.433 10.2495 106.399 10.2495C104.05 10.2495 102.244 11.2501 99.2681 14.2123C99.3075 13.0404 99.3435 13.0028 99.4651 10.7121L99.5028 10.0422Z" fill="white"/><path d="M112.665 2.04576C114.389 1.70653 116.428 1.08462 118.499 0.20914L119.011 0.00012207C118.931 1.33476 118.931 1.42042 118.897 3.99545C118.854 4.9189 118.854 5.6676 118.814 6.95769V22.9133C118.814 25.084 118.931 27.2513 119.087 27.707C119.287 28.2913 119.599 28.4163 121.48 28.7487L121.908 28.8327V29.4957L120.5 29.4597C119.364 29.4597 117.992 29.4169 117.209 29.4169C115.168 29.4169 114.584 29.4169 112.545 29.4957V28.8327L112.977 28.7487C114.934 28.4163 115.211 28.2913 115.407 27.5837C115.523 27.08 115.64 25.0001 115.64 22.9133V7.87771C115.64 2.62998 115.681 2.70708 113.053 2.70708H112.665V2.04576V2.04576Z" fill="white"/><path d="M125.499 18.5421L125.539 17.9168C125.739 15.585 125.971 14.665 126.639 13.5822C127.538 12.1294 128.948 11.2916 130.437 11.2916C131.928 11.2916 133.182 12.2099 133.848 13.7519C134.316 14.8346 134.472 16.0014 134.472 18.5421H125.499ZM137.217 26.7915L136.937 26.5003C135.373 27.6653 134.278 28.0371 132.359 28.0371C128.045 28.0371 125.618 25.0834 125.5 19.6678L132.01 19.457L134.433 19.3748L134.705 19.332C135.414 19.332 136.509 19.2908 137.924 19.332C137.924 16.4571 137.724 14.9991 137.175 13.6679C136.235 11.5417 134.198 10.2499 131.729 10.2499C129.183 10.2499 126.365 11.2916 124.638 12.8798C122.76 14.6239 121.895 17.0002 121.895 20.3753C121.895 26.2073 125.267 29.9987 130.437 29.9987C132.748 29.9987 134.51 29.4162 136.593 27.9188L137.217 26.7915V26.7915Z" fill="white"/><path d="M140.714 23.7914C141.415 27.2522 143.335 29.1642 146.04 29.1642C148.154 29.1642 149.686 27.624 149.686 25.3762C149.686 23.5413 148.747 22.4979 146.549 21.9171C141.966 20.6236 141.921 20.6236 141.3 20.1627C140.28 19.3318 139.615 17.8755 139.615 16.3353C139.615 12.7511 142.358 10.4177 146.588 10.4177C148 10.4177 149.254 10.6695 150.86 11.2486C150.704 13.3782 150.662 14.0429 150.621 15.8761H149.996C149.686 13.1246 148.154 11.3343 146.083 11.3343C144.003 11.3343 142.358 13.003 142.358 15.0418C142.358 16.3353 143.181 17.2108 144.863 17.711L149.372 19.0816C151.132 19.6693 152.268 21.3329 152.268 23.4573C152.268 25.2905 151.332 27.3327 149.844 28.6674C148.663 29.7039 147.099 30.2093 145.1 30.2093C143.535 30.2093 142.087 29.9574 139.968 29.2927C140.008 28.5406 140.008 28.0369 140.008 27.8381L140.124 25.7908C140.16 25.4584 140.16 24.7885 140.16 23.7914H140.714H140.714Z" fill="white"/><path d="M160.645 14.7939H161.865C165.268 14.7939 166.523 14.9995 167.932 15.9161C169.265 16.711 170.126 18.7104 170.126 20.8743C170.126 25.5823 167.19 28.416 162.408 28.416C161.118 28.416 160.799 28.0374 160.722 26.5434L160.645 24.001V14.7939V14.7939ZM153.434 1.4544V2.37614L154.143 2.45495C156.53 2.79417 156.883 3.12312 156.963 5.12593C156.963 5.46344 156.963 5.91232 157.003 6.49825C157.039 7.62729 157.078 8.50277 157.078 9.00133V21.1261C157.078 22.25 157.039 23.7508 156.963 25.291C156.924 26.4595 156.883 26.8775 156.804 27.2527C156.609 27.9192 155.941 28.2447 154.143 28.4572L153.434 28.5839V29.4954L155.745 29.4594C157.236 29.4166 158.488 29.4166 159.158 29.4166C159.936 29.4166 160.452 29.4166 160.998 29.4594C162.213 29.4594 163.073 29.4954 163.232 29.4954C169.929 29.4954 174.125 25.9986 174.125 20.4134C174.125 17.6276 172.988 15.7516 170.718 14.751C169.736 14.2919 168.598 14.0435 166.481 13.6665C170.363 13.0395 172.83 10.2897 172.83 6.66958C172.83 4.75072 171.929 3.0426 170.481 2.25621C169.188 1.50066 168.288 1.33447 165.934 1.33447C165.071 1.33447 163.304 1.37559 162.408 1.42014C161.701 1.42014 161.434 1.4544 160.767 1.4544C159.037 1.54178 158.533 1.54178 158.333 1.54178C158.175 1.54178 157.236 1.50066 155.746 1.4544H153.434H153.434ZM160.645 7.12873L160.722 4.37552C160.767 2.75306 161.118 2.45495 163.073 2.45495C167.032 2.45495 169.03 4.25216 169.03 7.8346C169.03 9.62667 168.322 11.208 167.032 12.2497C165.741 13.2931 164.094 13.7094 160.645 13.8344V7.12873V7.12873Z" fill="white"/><path d="M185.192 25.2055C183.742 26.6669 182.173 27.4584 180.648 27.4584C179.118 27.4584 178.018 26.2488 178.018 24.6264C178.018 22.0393 180.131 20.6225 185.192 19.8309V25.2055V25.2055ZM185.192 29.4955C186.404 29.4595 187.069 29.4167 187.739 29.4167C188.56 29.4167 189.422 29.4595 190.593 29.4955H191.186V28.8324L191.024 28.793C190.905 28.7485 190.674 28.7091 190.323 28.6286C188.99 28.3304 188.836 28.2448 188.633 27.7068C188.478 27.2511 188.363 25.0838 188.363 22.9131V15.875C188.363 12.541 186.56 10.5416 183.502 10.5416C182.646 10.5416 182.21 10.6701 181.309 11.1258C179.468 12.0853 178.679 12.4605 178.251 12.7089C176.728 13.6272 176.529 13.8722 176.529 14.8796C176.529 16.0429 177.271 16.8721 178.409 17.0435C178.604 13.7917 179.663 12.2086 181.741 12.2086C182.839 12.2086 183.975 12.8785 184.446 13.8345C185.034 14.9995 185.192 15.959 185.192 18.7482C183.617 19.2501 182.761 19.5448 181.429 20.0006C177.352 21.3763 176.49 21.7087 175.94 22.1644C175.197 22.7521 174.607 24.4156 174.607 25.9165C174.607 28.375 176.37 29.9992 178.995 29.9992C180.485 29.9992 181.268 29.54 184.753 26.5007C184.875 26.4133 184.991 26.2934 185.192 26.1238V29.4955H185.192Z" fill="white"/><path d="M195.916 13.9619C198.857 11.0425 200.069 10.3349 202.267 10.3349C205.676 10.3349 207.831 12.7506 207.831 16.5386V22.9137C207.831 25.1238 207.946 27.2517 208.107 27.7074C208.297 28.2916 208.609 28.4167 210.49 28.7491L210.924 28.833V29.496L209.514 29.4584C208.378 29.4584 206.966 29.4155 206.223 29.4155C204.146 29.4155 203.672 29.4155 201.556 29.496V28.833L201.989 28.7491C203.99 28.4167 204.225 28.2916 204.422 27.584C204.535 27.0409 204.655 25.0844 204.655 22.9137V17.3353C204.655 14.3319 203.127 12.5861 200.502 12.5861C197.8 12.5861 195.838 14.7106 195.838 17.6266V22.9137C195.838 25.1238 195.958 27.2517 196.113 27.7074C196.31 28.2916 196.62 28.4167 198.504 28.7491L198.933 28.833V29.496L197.521 29.4584C196.39 29.4584 194.973 29.4155 194.233 29.4155C192.153 29.4155 191.686 29.4155 189.566 29.496V28.833L190.007 28.7491C191.961 28.4167 192.235 28.2916 192.431 27.584C192.552 27.0803 192.662 25.0004 192.662 22.9137V14.1246C192.662 12.1647 191.999 11.6267 189.686 11.6267V10.914C191.139 10.878 192.352 10.7546 194.156 10.4171L195.6 10.167L196.113 10.0419C196.113 10.3349 196.075 10.5422 196.075 10.7118L195.916 13.0864V13.9619V13.9619Z" fill="white"/><path d="M222.753 22.9132C226.562 26.9616 228.124 28.2449 230 28.8325V29.4956H229.411L228.593 29.4168L227.219 29.3756H226.279C226.243 29.3756 226.08 29.3756 225.928 29.4168H225.534C224.555 29.4168 224.168 29.1204 221.811 26.6207L215.741 20.1634L215.269 20.5386V22.9132L215.311 24.6265L215.388 26.3757C215.429 28.2055 215.545 28.3305 217.934 28.7486L218.364 28.8325V29.4956L216.955 29.4596C215.777 29.4596 214.409 29.4168 213.661 29.4168C211.584 29.4168 211.118 29.4168 208.999 29.4956V28.8325L209.434 28.7486C211.392 28.4162 211.663 28.2911 211.862 27.5836C211.98 27.0799 212.093 25.0017 212.093 22.9132V7.83476C212.093 2.62986 212.134 2.70696 209.513 2.70696H209.122V2.04564C210.844 1.70641 213.62 0.836073 215.583 0L215.545 0.920023C215.345 3.50534 215.269 5.79426 215.269 7.29337V19.6683C216.525 18.5821 217.934 17.3348 218.597 16.6666C219.657 15.6267 220.363 14.9157 220.519 14.794C221.62 13.8723 222.009 13.3361 222.009 12.7912C222.009 12.4177 221.655 12.1282 220.908 11.9209L220.442 11.7941V11.1259C222.517 11.2082 223.262 11.2082 224.516 11.2082C225.378 11.2082 226.36 11.1671 228.28 11.1259V11.7941C225.772 12.3749 224.672 12.9608 222.207 14.9157C221.422 15.541 220.168 16.5861 219.308 17.3348C219.032 17.5815 218.837 17.7494 218.364 18.2497L222.753 22.9132H222.753Z" fill="white"/><path d="M50.0519 15.5417C55.0272 15.5862 57.6141 13.2528 57.6141 8.62866C57.6141 4.37463 55.344 2.32899 50.4854 2.32899C47.9737 2.32899 47.8983 2.50203 47.8983 7.04389V21.1269C47.8983 21.5844 47.9377 22.5849 47.9737 24.0412L48.0148 25.2902C48.0954 27.956 48.2084 28.0794 50.8332 28.458L51.4654 28.5831V29.4962C48.7601 29.4157 47.6653 29.4157 45.4312 29.4157C43.9801 29.4157 42.9213 29.4585 40.8071 29.4962V28.5831L41.3967 28.458C43.3532 28.165 43.8603 27.92 44.0591 27.2518C44.1362 26.8784 44.1773 26.4586 44.215 25.2902C44.2938 23.7499 44.3315 22.2508 44.3315 21.1269V9.8348C44.3315 9.08268 44.2938 8.08556 44.215 5.66814C44.1362 3.04342 43.9426 2.795 41.3967 2.45577L40.6874 2.37525V1.45523H42.9215C44.7255 1.50148 45.9026 1.54089 45.9779 1.54089L51.8185 1.29418C52.4421 1.24963 53.1479 1.24963 53.6962 1.24963C58.9062 1.24963 61.4127 3.37922 61.4127 7.87825C61.4127 11.3716 59.6909 14.2122 56.8692 15.4971C55.4199 16.1705 54.0491 16.3778 51.421 16.4172H50.0521V15.5417H50.0519Z" fill="white"/><path d="M16.8433 10.0811C15.3389 10.4221 14.9278 10.6499 14.0558 11.2204C14.222 11.9092 14.2014 12.2861 14.2014 13.0382C14.2014 16.6104 12.6012 19.4664 9.92511 20.7017C11.9845 21.4743 13.3585 22.5263 14.9313 24.022C18.1454 23.5337 19.211 23.8969 19.7181 23.6759C23.7957 22.2282 24.2274 17.6932 24.2274 17.6932C24.5598 12.0308 20.1276 9.33414 16.8433 10.0811" fill="white"/><path d="M26.1357 15.7548C28.1111 14.7286 29.6359 12.4071 30.018 9.5682C30.5594 5.55574 28.4606 2.61063 24.8182 2.35879C18.6813 1.93561 18.4774 8.54367 18.4774 8.54367C18.4774 8.54367 25.0358 8.64133 26.1357 15.7548" fill="white"/><path d="M8.40699 20.2286C10.7524 19.4131 12.3886 17.1207 12.3886 13.9563C12.3886 9.96615 9.63883 6.43511 5.21175 6.79489C3.51219 6.93367 1.39117 7.50076 0.00171326 10.1426L0 19.7797C3.09244 19.2966 5.90562 19.4833 8.40699 20.2286" fill="white"/><path d="M6.16278 5.42598C9.19166 5.31804 12.7863 7.24204 13.7457 10.182C14.8268 9.33222 16.1408 8.76856 17.5766 8.59894C17.5783 8.59723 17.58 8.59552 17.58 8.5938C17.7359 4.85203 19.1289 2.38151 22.194 1.31586L0 1.29187V8.55954C1.32093 6.51904 3.7075 5.51164 6.16261 5.42598" fill="white"/><path d="M22.2367 23.8304C26.6158 24.0103 29.4804 24.9337 34.5311 26.2769V21.5809C32.3055 19.2423 29.1343 17.3885 26.2217 17.0065C25.9391 20.3148 24.4794 22.5472 22.2367 23.8304Z" fill="white"/><path d="M26.8685 1.29193C29.8581 2.04405 31.9226 5.42775 31.6106 8.8697C31.0761 14.7479 27.5553 16.1476 27.5519 16.199C30.9013 16.982 31.7631 17.5731 34.53 19.0653V1.29193H26.8683H26.8685Z" fill="white"/><path d="M0.039917 22.4699V29.5046H7.42066C8.04257 26.556 10.0591 24.9901 13.6604 24.3254C8.47757 20.6316 3.80207 20.2512 0.039917 22.4699Z" fill="white"/><path d="M14.2361 29.5053H34.528V27.47C17.3165 22.911 14.2361 29.5053 14.2361 29.5053" fill="white"/><title>Peoples Bank</title></svg>
