<svg width="105" height="105" viewBox="0 0 105 105" fill="none" xmlns="http://www.w3.org/2000/svg">
<path d="M53.975 39.463L58.4517 14.7656H54.5891L50.1125 39.463H53.975Z" fill="#15C175"/>
<path d="M63.1687 39.4633L66.5922 20.714H62.9373L59.4811 39.4633H63.1687Z" fill="#15C175"/>
<path d="M47.1754 25.7243L44.6419 39.4629H40.806L43.3158 25.7243H47.1754Z" fill="#15C175"/>
<path d="M32.7723 83.4469L36.0446 65.5343H39.833L36.5311 83.4469H32.7723Z" fill="#15C175"/>
<path d="M52.2929 78.4392L54.6722 65.5343H58.4072L56.0487 78.4392H52.2929Z" fill="#15C175"/>
<path d="M40.9129 90.2346L45.3895 65.5343H49.2521L44.7754 90.2346H40.9129Z" fill="#15C175"/>
<path fill-rule="evenodd" clip-rule="evenodd" d="M6.56491 61.434L9.75703 43.3226H19.102C20.1047 43.3226 20.9799 43.557 21.7245 44.0227C22.4691 44.4885 23.012 45.1233 23.3562 45.9243C23.7003 46.7253 23.7834 47.6272 23.6054 48.6299L23.5134 49.158C23.3354 50.1607 22.923 51.0863 22.2733 51.9289C21.6237 52.7743 20.8375 53.4567 19.9178 53.9758C18.9982 54.495 18.037 54.7531 17.0342 54.7531H12.7296L11.5519 61.434H6.56491ZM13.3823 51.0863H16.2866C16.6575 51.0863 16.9927 51.0033 17.2953 50.8342C17.5979 50.668 17.853 50.4337 18.0666 50.134C18.2773 49.8344 18.4197 49.4725 18.4938 49.0512C18.5858 48.5231 18.5087 48.0603 18.2624 47.6658C18.0162 47.2712 17.5831 47.0724 16.969 47.0724H14.0913L13.3823 51.0863Z" fill="black"/>
<path d="M23.4659 61.434L26.6581 43.3226H31.7993L28.6071 61.434H23.4659Z" fill="black"/>
<path d="M35.4305 43.3226L32.2384 61.434H44.6746L44.8704 57.4735H37.9254L40.4204 43.3226H35.4305Z" fill="black"/>
<path d="M46.1519 61.434L49.3441 43.3226H54.334L51.839 57.4735H58.784L58.5882 61.434H46.1519Z" fill="black"/>
<path fill-rule="evenodd" clip-rule="evenodd" d="M92.6068 44.0227C93.3514 44.4885 93.8943 45.1233 94.2385 45.9243H94.2414C94.5856 46.7253 94.6686 47.6272 94.4906 48.6299L94.3987 49.158C94.2236 50.1607 93.8083 51.0834 93.1586 51.9289C92.5119 52.7684 91.7346 53.4478 90.8238 53.964L92.5 61.434H87.5101L86.0446 54.7561H83.6149L82.4371 61.434H77.4472L80.6393 43.3226H89.9843C90.987 43.3226 91.8622 43.557 92.6068 44.0227ZM84.9647 47.0724L84.2586 51.0863H87.16C87.5309 51.0863 87.8661 51.0003 88.1687 50.8342C88.4713 50.6651 88.7294 50.4337 88.94 50.134C89.1507 49.8344 89.2931 49.4725 89.3672 49.0512C89.4592 48.5231 89.382 48.0603 89.1358 47.6658C88.8896 47.2712 88.4594 47.0724 87.8424 47.0724H84.9647Z" fill="black"/>
<path d="M66.3578 61.6742C64.9694 61.6742 63.8095 61.4191 62.8809 60.9088C61.9524 60.3986 61.2997 59.6866 60.9229 58.7729C60.5491 57.8591 60.4661 56.7971 60.6826 55.5837L62.8453 43.3255H67.8293L65.6666 55.5837C65.542 56.2868 65.6785 56.8594 66.076 57.2984C66.4735 57.7375 67.0313 57.957 67.7522 57.957C68.4731 57.957 69.1317 57.7345 69.6775 57.2836C70.2234 56.8356 70.5557 56.269 70.6773 55.5837L72.84 43.3255H77.824L75.6613 55.5837C75.4477 56.7971 74.9522 57.8591 74.175 58.7729C73.3977 59.6866 72.4246 60.3986 71.2528 60.9088C70.081 61.4191 68.7846 61.6742 67.3606 61.6742H66.3578Z" fill="black"/>
<path d="M95.3866 44.7413H96.0568V46.5059H96.4028V44.7413H97.0741V44.4293H95.3866V44.7413Z" fill="black"/>
<path d="M97.7963 44.4293H97.3692V46.5059H97.6788V44.9482L98.3044 46.5059H98.5943L99.2302 44.9429V46.5059H99.5399V44.4293H99.118L98.452 46.1006L97.7963 44.4293Z" fill="black"/>
</svg>
