<svg width="175" height="33" viewBox="0 0 175 33" fill="none" xmlns="http://www.w3.org/2000/svg">
<path fill-rule="evenodd" clip-rule="evenodd" d="M66.9337 19.8138C66.9337 28.062 62.8619 32.3206 52.7277 32.3206H46.9367C36.8024 32.3206 32.7307 28.062 32.7307 19.8138V12.5069C32.7307 4.25861 36.8024 0 46.9367 0H52.7277C62.8619 0 66.9337 4.25861 66.9337 12.5069V19.8138ZM40.1504 20.0379C40.1504 24.3413 41.7338 26.3138 47.0272 26.3138H52.6372C57.9305 26.3138 59.514 24.3413 59.514 20.0379V12.2827C59.514 7.9793 57.9305 6.00689 52.6372 6.00689H47.0272C41.7338 6.00689 40.1504 7.9793 40.1504 12.2827V20.0379Z" fill="#1C1C1C"/>
<path d="M88.2103 18.1551L87.6221 14.2103H99.3399C100.788 14.2103 101.376 14.793 101.376 16.2275V31.9171H97.8016C96.6253 31.9171 96.1277 31.5585 95.8562 30.6171L95.3133 28.5551H95.0418C93.3226 31.1551 90.6986 32.3206 86.4911 32.3206H83.5956C73.6876 32.3206 69.2539 28.5551 69.2539 20.1723V12.3723C69.2539 4.07924 73.6423 0.403381 83.5956 0.403381H100.199L99.6113 4.57234C99.4303 5.82751 98.7969 6.36544 97.4397 6.36544H83.6861C78.6642 6.36544 76.6736 8.02406 76.6736 12.2827V20.4413C76.6736 24.6999 78.6642 26.3585 83.6861 26.3585H87.3959C92.463 26.3585 94.4989 24.7896 94.4989 20.7102V19.8137H90.2462C89.0247 19.8137 88.3913 19.3206 88.2103 18.1551Z" fill="#1C1C1C"/>
<path d="M0 15.6369V0.478025H18.0675C25.3124 0.478025 28.9795 3.56381 28.9795 9.86953V11.077C29.069 16.8014 25.7148 19.7083 19.588 19.8871H18.8725V20.2896C20.2141 20.2896 20.8849 20.6474 21.6899 21.6313L30.4106 31.9172H22.7632C21.4216 31.9172 20.6613 31.6489 19.9011 30.665L12.3878 21.5866C11.717 20.7816 11.5381 20.1555 11.5381 18.4561V15.0572H17.9333C20.5719 15.0572 21.6005 13.9839 21.6005 11.7031V9.73537C21.6005 7.40985 20.4824 6.42598 17.9333 6.42598H7.33432V15.6369H0Z" fill="#1C1C1C"/>
<path d="M134.392 0.403381V31.9171H141.812V6.36544H152.534C155.113 6.36544 156.244 7.35164 156.244 9.68268V11.6551C156.244 13.9413 155.203 15.0172 152.534 15.0172H146.064V18.424C146.064 20.1275 146.245 20.7551 146.924 21.562L154.525 30.662C155.294 31.6482 156.063 31.9171 157.42 31.9171H165.157L156.334 21.6068C155.52 20.6206 154.841 20.262 153.484 20.262V19.8585H154.208C160.406 19.6792 163.799 16.7654 163.709 11.0275V9.81716C163.709 3.49648 159.999 0.403381 152.67 0.403381H134.392Z" fill="#1C1C1C"/>
<path d="M103.696 0.403381V23.7137C103.696 29.2275 106.386 31.9171 111.944 31.9171H132.072L131.444 27.7482C131.265 26.493 130.637 25.9551 129.293 25.9551H114.141C111.899 25.9551 111.093 25.2378 111.093 23.1758V18.6482H126.693C127.993 18.6482 128.62 18.1103 128.799 16.8551L129.337 12.9551H111.093V6.36544H128.486C129.83 6.36544 130.458 5.82751 130.637 4.57234L131.22 0.403381H103.696Z" fill="#1C1C1C"/>
<path d="M7.4215 24.2858H0V31.9172H7.4215V24.2858Z" fill="#FDAF31"/>
<path d="M171 0.359009C171.686 0.359009 172.344 0.531332 172.974 0.87598C173.604 1.21715 174.098 1.70801 174.457 2.34857C174.819 2.98912 175 3.65927 175 4.35901C175 5.05527 174.822 5.72019 174.467 6.35379C174.116 6.9839 173.623 7.4765 172.99 7.83159C172.359 8.1832 171.696 8.35901 171 8.35901C170.304 8.35901 169.639 8.1832 169.005 7.83159C168.375 7.4765 167.883 6.9839 167.527 6.35379C167.176 5.72019 167 5.05527 167 4.35901C167 3.65927 167.179 2.98912 167.538 2.34857C167.9 1.70801 168.396 1.21715 169.026 0.87598C169.656 0.531332 170.314 0.359009 171 0.359009ZM171.005 1.1423C170.455 1.1423 169.928 1.27981 169.423 1.55483C168.918 1.82985 168.52 2.22498 168.227 2.74021C167.938 3.25544 167.794 3.79504 167.794 4.35901C167.794 4.9195 167.935 5.45387 168.217 5.96214C168.502 6.47041 168.899 6.86728 169.407 7.15274C169.916 7.43821 170.448 7.58094 171.005 7.58094C171.566 7.58094 172.098 7.43821 172.603 7.15274C173.111 6.86728 173.508 6.47041 173.794 5.96214C174.079 5.45387 174.222 4.9195 174.222 4.35901C174.222 3.79504 174.076 3.25544 173.783 2.74021C173.494 2.22498 173.096 1.82985 172.587 1.55483C172.083 1.27981 171.555 1.1423 171.005 1.1423ZM169.193 6.5V2.25457H170.055C170.863 2.25457 171.315 2.25805 171.413 2.26501C171.698 2.28938 171.919 2.34682 172.076 2.43734C172.236 2.52437 172.368 2.66014 172.473 2.84465C172.581 3.02568 172.634 3.22759 172.634 3.45039C172.634 3.75675 172.534 4.01958 172.332 4.2389C172.133 4.45474 171.853 4.58877 171.491 4.64099C171.62 4.68973 171.719 4.74369 171.789 4.80287C171.858 4.85857 171.954 4.96649 172.076 5.12663C172.107 5.16841 172.211 5.34073 172.389 5.6436L172.89 6.5H171.825L171.47 5.81071C171.23 5.34769 171.031 5.05701 170.875 4.93864C170.718 4.8168 170.52 4.75588 170.279 4.75588H170.055V6.5H169.193ZM170.055 4.08747H170.405C170.903 4.08747 171.211 4.06832 171.329 4.03003C171.451 3.99173 171.547 3.92559 171.616 3.83159C171.686 3.73412 171.721 3.62446 171.721 3.50261C171.721 3.38425 171.686 3.27981 171.616 3.1893C171.55 3.0953 171.454 3.02916 171.329 2.99086C171.204 2.94909 170.896 2.9282 170.405 2.9282H170.055V4.08747Z" fill="#1C1C1C"/>
</svg>
