<svg width="146" height="42" viewBox="0 0 146 42" fill="none" xmlns="http://www.w3.org/2000/svg">
<path d="M144.955 27.7961C144.776 27.7961 144.687 27.7068 144.687 27.5283V9.31289C144.687 9.1343 144.776 9.04501 144.955 9.04501H145.464C145.642 9.04501 145.732 9.1343 145.732 9.31289V27.5283C145.732 27.7068 145.642 27.7961 145.464 27.7961H144.955Z" fill="black"/>
<path d="M141.091 9.7147C141.091 9.89328 141.002 9.98257 140.823 9.98257H130.51C130.438 9.98257 130.403 10.0183 130.403 10.0897V17.8045C130.403 17.8759 130.438 17.9116 130.51 17.9116H137.876C138.055 17.9116 138.144 18.0009 138.144 18.1795V18.6081C138.144 18.7867 138.055 18.876 137.876 18.876H130.51C130.438 18.876 130.403 18.9117 130.403 18.9831V27.5283C130.403 27.7068 130.313 27.7961 130.135 27.7961H129.626C129.447 27.7961 129.358 27.7068 129.358 27.5283V9.31289C129.358 9.1343 129.447 9.04501 129.626 9.04501H140.823C141.002 9.04501 141.091 9.1343 141.091 9.31289V9.7147Z" fill="black"/>
<path d="M121.287 27.7961C121.145 27.7961 121.046 27.7336 120.993 27.6086L117.243 19.5992C117.225 19.5456 117.189 19.5188 117.135 19.5188H113.278C113.207 19.5188 113.171 19.5546 113.171 19.626V27.5283C113.171 27.7068 113.082 27.7961 112.903 27.7961H110.867C110.689 27.7961 110.599 27.7068 110.599 27.5283V9.31289C110.599 9.1343 110.689 9.04501 110.867 9.04501H118.073C119.144 9.04501 120.082 9.26824 120.886 9.7147C121.707 10.1612 122.341 10.7862 122.788 11.5898C123.234 12.3934 123.457 13.3221 123.457 14.3757C123.457 15.6258 123.127 16.6883 122.466 17.5634C121.823 18.4206 120.921 19.001 119.761 19.3046C119.689 19.3403 119.671 19.3849 119.707 19.4385L123.591 27.4747C123.609 27.5104 123.618 27.555 123.618 27.6086C123.618 27.7336 123.546 27.7961 123.404 27.7961H121.287ZM113.278 11.2684C113.207 11.2684 113.171 11.3041 113.171 11.3755V17.3759C113.171 17.4473 113.207 17.483 113.278 17.483H117.752C118.698 17.483 119.457 17.2062 120.028 16.6526C120.6 16.0811 120.886 15.3311 120.886 14.4025C120.886 13.456 120.6 12.697 120.028 12.1256C119.457 11.5541 118.698 11.2684 117.752 11.2684H113.278Z" fill="black"/>
<path d="M101.651 28.0372C100.347 28.0372 99.195 27.7693 98.195 27.2335C97.1949 26.6978 96.4181 25.9477 95.8645 24.9834C95.3109 24.0012 95.0341 22.8761 95.0341 21.6082V15.2328C95.0341 13.9649 95.3109 12.8488 95.8645 11.8844C96.4181 10.9201 97.1949 10.17 98.195 9.63428C99.195 9.09853 100.347 8.83066 101.651 8.83066C102.972 8.83066 104.133 9.09853 105.133 9.63428C106.133 10.17 106.91 10.9201 107.463 11.8844C108.017 12.8488 108.294 13.9649 108.294 15.2328V21.6082C108.294 22.8761 108.017 24.0012 107.463 24.9834C106.91 25.9477 106.133 26.6978 105.133 27.2335C104.133 27.7693 102.972 28.0372 101.651 28.0372ZM101.651 25.8138C102.865 25.8138 103.847 25.4388 104.597 24.6887C105.347 23.9387 105.722 22.9476 105.722 21.7154V15.206C105.722 13.956 105.347 12.9559 104.597 12.2059C103.847 11.438 102.865 11.054 101.651 11.054C100.436 11.054 99.454 11.438 98.7039 12.2059C97.9718 12.9559 97.6057 13.956 97.6057 15.206V21.7154C97.6057 22.9476 97.9718 23.9387 98.7039 24.6887C99.454 25.4388 100.436 25.8138 101.651 25.8138Z" fill="black"/>
<path d="M82.2717 27.7961C82.0932 27.7961 82.0039 27.7068 82.0039 27.5283V9.31289C82.0039 9.1343 82.0932 9.04501 82.2717 9.04501H84.3076C84.4862 9.04501 84.5755 9.1343 84.5755 9.31289V25.4656C84.5755 25.5371 84.6112 25.5728 84.6826 25.5728H93.9242C94.1028 25.5728 94.1921 25.6621 94.1921 25.8407V27.5283C94.1921 27.7068 94.1028 27.7961 93.9242 27.7961H82.2717Z" fill="black"/>
<path d="M78.1232 27.7961C77.9624 27.7961 77.8553 27.7247 77.8017 27.5818L76.8374 24.4477C76.8195 24.3941 76.7838 24.3674 76.7302 24.3674H69.203C69.1494 24.3674 69.1137 24.3941 69.0958 24.4477L68.1315 27.5818C68.0779 27.7247 67.9708 27.7961 67.81 27.7961H65.6403C65.4438 27.7961 65.3724 27.6979 65.426 27.5015L71.2924 9.25931C71.346 9.11645 71.4531 9.04501 71.6138 9.04501H74.2926C74.4533 9.04501 74.5604 9.11645 74.614 9.25931L80.534 27.5015L80.5608 27.6086C80.5608 27.7336 80.4804 27.7961 80.3197 27.7961H78.1232ZM69.7655 22.1976C69.7477 22.2333 69.7477 22.269 69.7655 22.3047C69.8012 22.3226 69.8369 22.3315 69.8727 22.3315H76.0337C76.0695 22.3315 76.0963 22.3226 76.1141 22.3047C76.1498 22.269 76.1588 22.2333 76.1409 22.1976L73.0336 12.2595C73.0157 12.2238 72.9889 12.2059 72.9532 12.2059C72.9175 12.2059 72.8907 12.2238 72.8728 12.2595L69.7655 22.1976Z" fill="black"/>
<path d="M59.5623 27.7961C59.4016 27.7961 59.2944 27.7247 59.2408 27.5818L53.5084 9.33967L53.4816 9.23253C53.4816 9.10752 53.5619 9.04501 53.7227 9.04501H55.8924C56.0531 9.04501 56.1603 9.11645 56.2139 9.25931L60.6338 24.0727C60.6516 24.1084 60.6784 24.1263 60.7141 24.1263C60.7499 24.1263 60.7766 24.1084 60.7945 24.0727L65.2144 9.25931C65.268 9.11645 65.3662 9.04501 65.5091 9.04501H67.6253C67.8217 9.04501 67.8931 9.14323 67.8396 9.33967L62.0535 27.5818C61.9999 27.7247 61.8928 27.7961 61.7321 27.7961H59.5623Z" fill="black"/>
<path d="M0 1.09252L15.7524 1.09252L31.3582 28.2724L23.8372 41.6431L0 1.09252Z" fill="black"/>
<path d="M46.3117 2.60432C46.3116 2.60429 46.3117 2.60434 46.3117 2.60432C37.0258 -2.7569 25.1519 0.424684 19.7907 9.71058C14.4295 18.9965 17.6111 30.8703 26.897 36.2315C26.897 36.2316 26.8969 36.2315 26.897 36.2315L46.3117 2.60432Z" fill="#5C17E5"/>
<path d="M31.493 28.272L20.3304 8.83063C20.1441 9.11755 19.9642 9.41092 19.7912 9.71065C14.43 18.9966 17.6115 30.8704 26.8974 36.2316L31.493 28.272Z" fill="#471F99"/>
</svg>
