<svg width="140" height="42" viewBox="0 0 140 42" fill="none" xmlns="http://www.w3.org/2000/svg">
<path d="M92.4248 37.2929C92.793 37.7342 93.0139 38.3227 93.0139 39.0582C93.0139 40.0144 92.6457 40.6764 91.9829 41.1913C91.3201 41.7062 90.289 41.9269 88.8898 41.9269H83.8819V31.1143H88.5952C89.8472 31.1143 90.7309 31.3349 91.3937 31.8498C92.0565 32.3647 92.4248 33.0267 92.4248 33.9094C92.4248 34.4978 92.2775 35.0127 91.9829 35.454C91.6883 35.8953 91.2464 36.1896 90.7309 36.4102C91.4674 36.5573 92.0565 36.8516 92.4248 37.2929ZM85.0602 32.0705V36.0424H88.5216C89.4053 36.0424 90.0681 35.8953 90.5836 35.5276C91.0255 35.1598 91.3201 34.7185 91.3201 34.0565C91.3201 33.3945 91.0991 32.9531 90.5836 32.5854C90.1418 32.2176 89.4053 32.0705 88.5216 32.0705H85.0602ZM91.0991 40.5293C91.6147 40.1615 91.8356 39.6467 91.8356 38.9847C91.8356 37.5871 90.8782 36.9251 88.8898 36.9251H85.0602V41.0442H88.8898C89.8472 41.0442 90.6573 40.8971 91.0991 40.5293Z" fill="#131E29"/>
<path d="M106.123 39.0582H100.01L98.6843 42.0004H97.506L102.514 31.1143H103.619L108.626 42.0004H107.375L106.123 39.0582ZM105.681 38.1756L103.029 32.2911L100.378 38.1756H105.681Z" fill="#131E29"/>
<path d="M123.208 31.1143V42.0004H122.251L115.254 33.1738V42.0004H114.076V31.1143H115.034L122.103 39.9409V31.1143H123.208Z" fill="#131E29"/>
<path d="M134.108 36.8516L131.899 39.1318V42.0004H130.721V31.1143H131.899V37.7342L138.306 31.1143H139.632L134.918 36.0425L140 42.0004H138.601L134.108 36.8516Z" fill="#131E29"/>
<path d="M18.706 0H0.662933V4.04553H18.706V0Z" fill="#131E29"/>
<path d="M20.5468 19.0508H2.43008V23.0963H20.5468V19.0508Z" fill="#131E29"/>
<path d="M59.7997 2.64799L62.8928 0L79.0948 20.3748L76.0753 23.0963L59.7997 2.64799Z" fill="#131E29"/>
<path d="M96.3279 0V21.6988L92.2774 19.0508V0H96.3279Z" fill="#131E29"/>
<path d="M135.581 23.0966V0.956543L139.631 4.04586V19.0511L135.581 23.0966Z" fill="#131E29"/>
<path d="M121.957 0.956543V21.9933L117.906 19.0511V4.04586L121.957 0.956543Z" fill="#131E29"/>
<path d="M27.6905 0H32.993L41.4622 11.3275L39.2528 15.373L27.6905 0Z" fill="#131E29"/>
<path d="M18.7059 0L21.2099 3.23643L2.4303 23.0963L0 19.8599L18.7059 0Z" fill="#425563"/>
<path d="M62.8931 0H58.8426V23.0963H62.8931V0Z" fill="#425563"/>
<path d="M80.1261 0H76.0756V23.0963H80.1261V0Z" fill="#425563"/>
<path d="M95.297 23.0963L92.2776 19.0508H110.689V23.0963H95.297Z" fill="#425563"/>
<path d="M120.926 23.0963L117.906 19.0508H139.632L136.538 23.0963H120.926Z" fill="#425563"/>
<path d="M136.538 0L139.632 4.04553H117.906L120.926 0H136.538Z" fill="#425563"/>
<path d="M45.8808 0L39.4736 8.60595L37.4116 12.8722V23.0963H41.4621V12.8722L51.2569 0H45.8808Z" fill="#425563"/>
</svg>
