<svg width="260" height="56" viewBox="0 0 260 56" fill="none" xmlns="http://www.w3.org/2000/svg">
<g id="images/brand/logo_mark_left_color_white">
<g id="Icon">
<path id="Vector" d="M12.7725 27.1074L23.6206 10L32.3809 27.1074H12.8656" fill="#0756FF"/>
<path id="Vector_2" d="M22.9717 45.9985L46.5783 38.5135L44.3611 12.2292L22.9717 45.9985Z" fill="#0094FF"/>
<path id="Vector_3" d="M14.1982 28.8943L22.9585 45.9999L33.8066 28.8943H14.1982Z" fill="#0756FF"/>
<path id="Vector_4" d="M23.6066 10L2.21894 43.7693L0 17.3273L23.6066 10Z" fill="#0094FF"/>
</g>
<path id="Union" d="M241.419 15.262C242.882 15.2623 244.339 15.4539 245.753 15.8333C247.058 16.1625 248.296 16.719 249.411 17.4768L248.239 20.3333C247.204 19.6704 246.079 19.1598 244.899 18.8167C243.77 18.4789 242.598 18.3043 241.419 18.2971C239.405 18.2971 237.895 18.6661 236.89 19.4045C235.884 20.143 235.383 21.0905 235.388 22.2473C235.374 22.6366 235.442 23.0246 235.589 23.385C235.736 23.7455 235.958 24.0706 236.239 24.3381C236.85 24.898 237.57 25.323 238.354 25.5872C239.479 25.9647 240.623 26.2815 241.782 26.5344C243.315 26.8839 244.822 27.3366 246.294 27.8909C247.422 28.339 248.428 29.0532 249.226 29.9719C250.043 30.8964 250.451 32.146 250.451 33.7209C250.461 34.9978 250.09 36.2482 249.386 37.3108C248.674 38.3959 247.596 39.2532 246.151 39.8831C244.707 40.5128 242.931 40.8281 240.824 40.8293C238.983 40.834 237.152 40.5379 235.405 39.9524C233.664 39.3746 232.296 38.6194 231.302 37.6858L232.617 34.8997C233.563 35.7559 234.777 36.4493 236.259 36.9797C237.722 37.5128 239.268 37.7854 240.824 37.7844C242.884 37.7844 244.423 37.4323 245.441 36.7297C246.459 36.0272 246.969 35.092 246.969 33.925C246.982 33.5391 246.914 33.1543 246.771 32.7961C246.627 32.438 246.41 32.1136 246.134 31.845C245.541 31.2883 244.836 30.8675 244.065 30.6125C243.248 30.326 242.093 30.0048 240.602 29.6477C239.063 29.298 237.55 28.8444 236.072 28.2903C234.935 27.8497 233.922 27.1355 233.122 26.2102C232.305 25.2707 231.896 24.0024 231.896 22.4065C231.881 21.1257 232.246 19.8694 232.944 18.7981C233.642 17.7268 234.703 16.8693 236.126 16.2268C237.549 15.5844 239.313 15.2631 241.419 15.262ZM220.436 29.4758C220.436 33.0733 219.512 35.8184 217.665 37.7102C215.818 39.6018 213.237 40.5479 209.921 40.5491C206.603 40.5502 204.02 39.5991 202.174 37.6946C200.326 35.7889 199.402 33.0498 199.403 29.4778V15.2639H202.955V29.3372C202.955 34.6958 205.288 37.3744 209.955 37.3733C212.227 37.3733 213.969 36.7137 215.178 35.3928C216.387 34.0719 216.99 32.0529 216.987 29.3372V15.262H220.436V29.4758ZM105.606 28.4348L113.604 15.2678H117.122L107.248 31.6282V40.2708H103.73V31.5549L93.8545 15.261H97.6475L105.606 28.4348ZM80.415 33.9065V15.262H83.9668V40.2649H81.0547L66.1328 21.6233V40.2649H62.5791V15.262H65.502L80.415 33.9065ZM140.297 32.8352L150.529 15.262H153.441L153.478 40.2649H150.067L150.031 22.0481L141.044 37.2249H139.409L130.422 22.1438V40.2649H127.011V15.262H129.925L140.297 32.8352ZM177.914 15.262C180.756 15.262 182.953 15.8332 184.505 16.9758C186.057 18.1187 186.832 19.7031 186.831 21.7278C186.831 23.0371 186.529 24.1681 185.926 25.1204C185.334 26.0624 184.49 26.8177 183.491 27.2991C184.93 27.7047 186.065 28.4376 186.895 29.4973C187.722 30.557 188.137 31.896 188.138 33.5149C188.138 35.6817 187.326 37.3487 185.703 38.5159C184.08 39.683 181.717 40.266 178.615 40.2649H166.75V15.262H177.914ZM170.304 37.3723H178.475C180.487 37.3723 182.003 37.039 183.022 36.3723V36.3733C184.04 35.7076 184.549 34.6602 184.55 33.2307C184.55 30.4458 182.525 29.0522 178.475 29.051H170.304V37.3723ZM170.304 26.1565H177.586C179.41 26.1565 180.814 25.8173 181.797 25.1389C182.779 24.4606 183.271 23.4659 183.271 22.1555C183.27 20.8475 182.78 19.8535 181.797 19.1741C180.814 18.4946 179.41 18.1553 177.586 18.1565H170.304V26.1565ZM257.189 15.1702C258.55 15.1704 259.699 16.3283 259.81 17.7981C259.81 18.3174 259.657 18.8252 259.37 19.2571C259.083 19.6891 258.674 20.0258 258.197 20.2249C257.72 20.4239 257.195 20.477 256.688 20.3762C256.182 20.2754 255.716 20.0252 255.351 19.6584C254.985 19.2916 254.734 18.824 254.633 18.3147C254.531 17.8055 254.583 17.2773 254.779 16.7971C254.976 16.317 255.31 15.906 255.738 15.6165C256.167 15.3269 256.673 15.1715 257.189 15.1702ZM257.189 15.5901C256.899 15.5832 256.61 15.6349 256.341 15.7434C256.071 15.852 255.826 16.0145 255.621 16.2209C255.416 16.4274 255.254 16.6736 255.146 16.9446C255.039 17.2156 254.987 17.5063 254.994 17.7981C254.997 18.3823 255.23 18.9416 255.641 19.3547C256.052 19.7679 256.608 20.0019 257.189 20.0051C258.341 20.0049 259.281 18.9542 259.386 17.7981C259.383 17.2134 259.15 16.6539 258.738 16.2405C258.327 15.8271 257.771 15.5934 257.189 15.5901ZM257.503 16.2209C257.629 16.2114 257.756 16.2286 257.874 16.2727C257.993 16.3169 258.1 16.3869 258.189 16.4768C258.279 16.5667 258.348 16.675 258.392 16.7942C258.435 16.9133 258.454 17.0406 258.444 17.1672C258.444 17.5866 258.236 17.9015 257.908 17.9016H257.803L258.431 18.9543H257.913L257.396 18.0081H256.563V19.0598H256.145V16.2209H257.503ZM256.563 16.7463V17.6868H257.503V17.6926C257.713 17.6926 258.027 17.5865 258.021 17.2659C258.024 17.1967 258.012 17.1273 257.987 17.0627C257.962 16.9984 257.925 16.9397 257.876 16.8909C257.827 16.8419 257.768 16.8036 257.704 16.7786C257.64 16.7537 257.572 16.7432 257.503 16.7463H256.563Z" fill="white"/>
</g>
</svg>
