<svg width="321" height="50" viewBox="0 0 321 50" fill="none" xmlns="http://www.w3.org/2000/svg">
<path d="M17.4131 28.557L15.1841 30.7858L19.3102 34.9124L21.5392 32.6835L17.4131 28.557Z" fill="#3A5675"/>
<path d="M19.1899 14.7123L15.1049 18.7991L17.3346 21.0279L21.4196 16.9411L19.1899 14.7123Z" fill="#3A5675"/>
<path d="M23.3395 0.780618L15.0966 9.02338C14.0556 10.0644 14.0556 11.7522 15.0966 12.7935L23.3395 21.0359C24.3801 22.0773 26.0681 22.0773 27.1091 21.0359L35.3518 12.7935C36.393 11.7522 36.3928 10.0646 35.3518 9.02338L27.1089 0.780618C26.0677 -0.260206 24.3803 -0.260206 23.3395 0.780618ZM31.0023 9.02338C32.0433 10.0646 32.0433 11.7522 31.0023 12.7935L27.1091 16.6866C26.0679 17.728 24.3803 17.728 23.3391 16.6866L19.4459 12.7935C18.4047 11.7522 18.4047 10.0646 19.4459 9.02338L23.3391 5.13025C24.3803 4.08923 26.0679 4.08923 27.1091 5.13025L31.0023 9.02338Z" fill="#3A5675"/>
<path d="M9.44512 14.6749L1.20268 22.9177C0.161444 23.9583 0.161444 25.6466 1.20268 26.6874L9.44512 34.93C10.4864 35.9713 12.174 35.9713 13.215 34.93L21.4579 26.6874C22.4991 25.6468 22.4989 23.9585 21.4579 22.9177L13.215 14.6749C12.174 13.6338 10.4864 13.6338 9.44512 14.6749ZM17.1085 22.9177C18.1493 23.9583 18.1493 25.6466 17.1085 26.6874L13.215 30.581C12.174 31.622 10.4861 31.622 9.4449 30.581L5.55199 26.6874C4.51075 25.6468 4.51097 23.9585 5.55199 22.9177L9.4449 19.0242C10.4861 17.9829 12.174 17.9829 13.215 19.0242L17.1085 22.9177Z" fill="#3A5675"/>
<path d="M23.3888 28.6188L15.1457 36.8615C14.1047 37.9021 14.1047 39.5901 15.1457 40.6313L23.3888 48.8738C24.4296 49.9148 26.1174 49.9148 27.1584 48.8738L35.4011 40.6313C36.4423 39.5901 36.4421 37.9023 35.4011 36.8615L27.1584 28.6188C26.1172 27.5776 24.4296 27.5776 23.3888 28.6188ZM31.0518 36.8615C32.0926 37.9021 32.0926 39.5901 31.0518 40.6313L27.1584 44.5245C26.1172 45.5657 24.4294 45.5657 23.3884 44.5245L19.4952 40.6313C18.4538 39.5901 18.454 37.9023 19.4952 36.8615L23.3884 32.9679C24.4294 31.9267 26.1172 31.9267 27.1584 32.9679L31.0518 36.8615Z" fill="#3A5675"/>
<path d="M63.1547 24.6482V24.5823C63.1547 18.0359 68.0485 12.613 74.8594 12.613C79.0586 12.613 81.5716 14.1009 83.8861 16.2829L82.1003 18.2011C80.1497 16.3496 77.9675 15.0268 74.8265 15.0268C69.7018 15.0268 65.8656 19.1924 65.8656 24.5163V24.5823C65.8656 29.9383 69.7344 34.1382 74.8265 34.1382C78.0005 34.1382 80.0837 32.9146 82.2991 30.7989L84.0182 32.4849C81.605 34.9316 78.9597 36.5523 74.7605 36.5523C68.0811 36.5523 63.1547 31.2941 63.1547 24.6482Z" fill="#3A5675"/>
<path d="M85.0403 27.6903V27.6244C85.0403 22.7973 88.8097 18.697 93.9677 18.697C99.0927 18.697 102.862 22.7306 102.862 27.5584V27.6244C102.862 32.4515 99.0597 36.5523 93.9015 36.5523C88.7767 36.5523 85.0403 32.5175 85.0403 27.6903ZM100.25 27.6903V27.6244C100.25 23.9537 97.5057 20.9448 93.9015 20.9448C90.1981 20.9448 87.6523 23.9536 87.6523 27.5584V27.6244C87.6523 31.2943 90.3637 34.2701 93.9677 34.2701C97.6709 34.2701 100.25 31.2943 100.25 27.6903Z" fill="#3A5675"/>
<path d="M104.816 19.0607H107.362V22.0363C108.486 20.1849 110.272 18.697 113.214 18.697C117.347 18.697 119.761 21.4739 119.761 25.5407V36.5523H117.215V26.1695C117.215 22.9949 115.496 21.0117 112.487 21.0117C109.544 21.0117 107.362 23.1603 107.362 26.3679V36.5523H104.816V19.0607Z" fill="#3A5675"/>
<path d="M122.541 19.0607H125.088V22.0363C126.211 20.1849 127.997 18.697 130.939 18.697C135.073 18.697 137.486 21.4739 137.486 25.5407V36.5523H134.941V26.1695C134.941 22.9949 133.221 21.0117 130.212 21.0117C127.269 21.0117 125.088 23.1603 125.088 26.3679V36.5523H122.541V19.0607Z" fill="#3A5675"/>
<path d="M139.209 27.6572V27.5912C139.209 22.6644 142.681 18.697 147.409 18.697C152.468 18.697 155.378 22.7306 155.378 27.7237C155.378 28.054 155.378 28.2527 155.345 28.5499H141.788C142.151 32.2531 144.764 34.3366 147.806 34.3366C150.153 34.3366 151.807 33.3781 153.195 31.9226L154.782 33.3448C153.063 35.2622 150.979 36.5523 147.739 36.5523C143.044 36.5523 139.209 32.9474 139.209 27.6572ZM152.798 26.6659C152.534 23.5577 150.749 20.8464 147.342 20.8464C144.367 20.8464 142.119 23.3263 141.788 26.6659H152.798Z" fill="#3A5675"/>
<path d="M157.06 27.6903V27.6244C157.06 22.7973 160.83 18.697 165.821 18.697C169.062 18.697 171.078 20.0527 172.667 21.7393L170.981 23.5245C169.625 22.1022 168.103 20.945 165.789 20.945C162.317 20.945 159.672 23.8882 159.672 27.5586V27.6246C159.672 31.328 162.384 34.2704 165.955 34.2704C168.138 34.2704 169.821 33.1797 171.179 31.7246L172.799 33.2455C171.08 35.1633 169.029 36.5525 165.823 36.5525C160.83 36.5525 157.06 32.4847 157.06 27.6903Z" fill="#3A5675"/>
<path d="M176.167 31.6248V21.3087H173.787V19.0607H176.167V13.9022H178.714V19.0607H184.135V21.3087H178.714V31.2945C178.714 33.3783 179.869 34.1384 181.59 34.1384C182.449 34.1384 183.177 33.9728 184.07 33.5432V35.7254C183.177 36.1885 182.218 36.4529 180.994 36.4529C178.25 36.4529 176.167 35.0969 176.167 31.6248Z" fill="#3A5675"/>
<path d="M185.394 24.6482V24.5823C185.394 18.2011 190.189 12.613 197.229 12.613C204.271 12.613 209.001 18.1343 209.001 24.516V24.5821C209.001 30.9638 204.206 36.5521 197.164 36.5521C190.122 36.5521 185.394 31.0299 185.394 24.6482ZM206.29 24.6482V24.5823C206.29 19.325 202.455 15.0268 197.164 15.0268C191.872 15.0268 188.105 19.2591 188.105 24.5163V24.5823C188.105 29.8399 191.939 34.1382 197.229 34.1382C202.52 34.1382 206.29 29.9059 206.29 24.6482Z" fill="#3A5675"/>
<path d="M210.994 19.0607H213.539V22.0363C214.664 20.1849 216.449 18.697 219.392 18.697C223.524 18.697 225.938 21.4739 225.938 25.5407V36.5523H223.392V26.1695C223.392 22.9949 221.674 21.0117 218.664 21.0117C215.722 21.0117 213.539 23.1603 213.539 26.3679V36.5523H210.994V19.0607Z" fill="#3A5675"/>
<path d="M227.661 27.6572V27.5912C227.661 22.6644 231.132 18.697 235.86 18.697C240.918 18.697 243.828 22.7306 243.828 27.7237C243.828 28.054 243.828 28.2527 243.796 28.5499H230.24C230.603 32.2531 233.215 34.3366 236.257 34.3366C238.604 34.3366 240.258 33.3781 241.646 31.9226L243.233 33.3448C241.514 35.2622 239.431 36.5523 236.19 36.5523C231.495 36.5523 227.661 32.9474 227.661 27.6572ZM241.251 26.6659C240.985 23.5577 239.2 20.8464 235.793 20.8464C232.818 20.8464 230.571 23.3263 230.24 26.6659H241.251Z" fill="#3A5675"/>
<path d="M37.2827 14.7246L29.04 22.9672C27.999 24.0083 27.999 25.6959 29.04 26.7371L37.2827 34.9795C38.3237 36.021 40.0113 36.021 41.0526 34.9795L49.295 26.7371C50.3362 25.6959 50.336 24.0083 49.295 22.9672L41.0526 14.7246C40.0113 13.6834 38.3237 13.6834 37.2827 14.7246ZM44.9457 22.9672C45.9867 24.0083 45.9867 25.6959 44.9457 26.7371L41.0526 30.6302C40.0113 31.6715 38.3235 31.6715 37.2823 30.6302L33.3891 26.7371C32.3481 25.6959 32.3481 24.0083 33.3891 22.9672L37.2823 19.0739C38.3235 18.0329 40.0113 18.0329 41.0526 19.0739L44.9457 22.9672Z" fill="#00B4ED"/>
<path d="M244.422 36.4934V35.4181C246.996 35.4181 247.419 34.5707 247.419 30.9524V18.1746C247.419 14.5891 246.996 13.7095 244.422 13.7095V12.6338H251.495C255.536 12.6338 262.87 12.4051 262.904 18.1424C262.935 22.2821 259.416 23.4228 255.959 23.9118V24.0096C259.578 24.1074 264.273 25.7702 264.273 30.0392C264.273 35.0923 258.861 36.4936 254.787 36.4936L244.422 36.4934ZM252.537 23.3574C256.089 23.3574 259.48 22.6733 259.48 18.3704C259.48 14.9803 256.546 13.7095 253.58 13.7095C251.039 13.7095 250.646 14.8177 250.646 17.0666V23.3574H252.537ZM250.646 32.1581C250.646 34.4401 251.201 35.4181 253.742 35.4181C257.263 35.4181 260.523 34.1787 260.523 30.17C260.523 25.2801 256.482 24.4332 252.44 24.4332H250.646V32.1581Z" fill="#00B4ED"/>
<path d="M275.678 23.6551C275.678 21.9008 275.32 19.8591 273.172 19.8591C271.382 19.8591 270.631 21.0411 270.236 22.5802C269.914 23.6912 269.45 24.3708 268.159 24.3708C267.157 24.3708 266.477 23.7622 266.477 22.7956C266.477 19.8233 270.666 18.6776 272.993 18.6776C274.498 18.6776 276.324 18.9284 277.542 19.931C278.83 21.0051 278.83 22.5096 278.83 24.0133V32.1046C278.83 32.9638 278.83 34.5387 279.906 34.5387C280.512 34.5387 280.944 34.1093 281.374 33.6439L281.838 34.3962C280.944 35.7207 279.869 36.9023 278.185 36.9023C276.717 36.9023 275.892 35.7563 275.75 34.3962C274.102 35.7207 272.17 36.9023 270.022 36.9023C267.516 36.9023 265.795 35.1838 265.795 32.6417C265.795 27.8792 272.028 26.6616 275.678 25.9455V23.6551ZM275.678 27.1272C273.137 27.5571 269.197 29.2758 269.197 32.2473C269.197 33.931 270.378 35.0048 271.812 35.0048C273.137 35.0048 274.782 33.966 275.678 32.9638V27.1272Z" fill="#00B4ED"/>
<path d="M287.745 31.6035C287.745 34.9694 287.745 35.1838 290.143 35.4705V36.5087H282.16V35.4705C284.593 35.184 284.593 34.9694 284.593 31.6035V23.9579C284.485 22.0598 284.45 21.3802 282.265 21.3802V20.5206L287.745 18.4081V21.4513C289.105 19.9839 291.361 18.6587 293.366 18.6587C294.621 18.6587 295.873 19.1598 296.769 20.0551C297.95 21.3802 297.987 23.0273 297.987 24.7103V31.6035C297.987 34.9694 297.986 35.1838 300.385 35.4705V36.5087H292.363V35.4705C294.835 35.184 294.835 34.9694 294.835 31.6035V25.3364C294.835 23.1883 294.692 20.5566 291.862 20.5566C290.288 20.5566 288.82 21.8457 287.745 22.92V31.6035Z" fill="#00B4ED"/>
<path d="M311.432 23.7254C312.006 23.1522 313.045 21.9001 313.045 20.9694C313.045 20.1097 312.436 19.7518 311.218 19.7162V18.6777H319.563V19.7162C317.199 19.7878 315.944 21.3621 314.334 22.8664L311.542 25.516L316.626 32.8202C317.628 34.2889 318.487 35.5061 320.422 35.4702V36.5087H311.864V35.4702C312.868 35.4702 313.798 35.2911 313.798 34.4322C313.798 33.7874 313.01 32.785 312.686 32.2475L309.357 27.5573L306.993 29.7775V31.6035C306.993 34.9696 306.993 35.1838 309.465 35.4705V36.5089H301.408V35.4705C303.844 35.184 303.844 34.9696 303.844 31.6035V15.2753C303.844 12.1605 303.341 12.3027 300.8 12.1246V11.0858L306.993 9.04474V28.2023L311.434 23.7256L311.432 23.7254Z" fill="#00B4ED"/>
</svg>
