<svg xmlns="http://www.w3.org/2000/svg" viewBox="0 0 162 60.85"><polygon points="20.8 33.64 20.8 25.69 8.58 42.52 20.8 33.64" style="fill:#00a9e0"/><path d="M41.61,18.93H25.72L21.12,4.8l-.32-1-.31,1-4.6,14.13H0l.83.61,12,8.74L8.26,42.41l-.31,1,.83-.6,12-8.74,12,8.74.83.6-.32-1L28.75,28.28l12-8.74ZM28.36,28.15,33,42.52h0L28.36,28.15,20.8,25.69,33,42.52,20.8,33.64,8.58,42.52l4.67-14.37,7.55-2.46L1,19.27H16.14l4.66,6.42V4.9h0l4.67,14.37h0L20.8,25.69l19.78-6.42Z" style="fill:#00a9e0"/><path d="M82.27,23.21H68.53a.77.77,0,0,1-.56-.76c-.13-7.19,0-14.39.06-16.14,0-.31.44-1.12.88-1.12,5.69,0,8.38,0,10.38.18C81.55,5.57,82.92,6.51,84,9c.31.81.5,1.25.75,1.25s.44-.56.31-1.19-.31-3.5-.37-4.38c-.07-.44-.5-.75-1.82-.75-2.38,0-18.51.13-19.81.06V43.41h4.8V25.58a1.24,1.24,0,0,1,.62-.81H82.22Z" style="fill:#003c74"/><path d="M112.13,23.34c-2-1.44-4-2.88-6.39-4.5s-4.5-3.82-4.5-7.26a7.58,7.58,0,0,1,7.32-7.7c4.81-.32,7.1,1.41,7.9,2a10.71,10.71,0,0,0-.12-1.39A15.62,15.62,0,0,0,109.19,3a14.22,14.22,0,0,0-8.08,2.51,9.82,9.82,0,0,0-4,8.07c0,5.38,3.82,8.76,8.63,12,4.51,3,7.51,5.38,7.51,9.64A8.22,8.22,0,0,1,105,43.4h0c-7.76.07-9.6-2.61-9.57-2.37a2,2,0,0,0,1.06,1.69A21.09,21.09,0,0,0,105,44.47c6.51,0,13.08-4.2,13.08-11.14C118.07,27.85,114.51,25,112.13,23.34Z" style="fill:#003c74"/><path d="M137.59,38.76c-2.7-2.94-4.76-8.51-4.76-14.52v-.68c0-6,2.06-11.58,4.76-14.52a15.08,15.08,0,0,1,10.88-4.88c2.35,0,8.84.55,12.76,4.18V6.71l-.14-.11c-.87-.49-1.72-.94-2.57-1.34a26.41,26.41,0,0,0-8.39-2.06h-1.2a22.56,22.56,0,0,0-14.56,5.19,21.45,21.45,0,0,0-4.83,6.13,23.79,23.79,0,0,0-1.93,6.17,25.25,25.25,0,0,0-.24,3.25,25.25,25.25,0,0,0,.24,3.25,23.92,23.92,0,0,0,1.93,6.17,21.77,21.77,0,0,0,4.83,6.13,22.56,22.56,0,0,0,14.56,5.19h1.2a26.41,26.41,0,0,0,8.39-2.06c.85-.4,1.7-.85,2.57-1.34a.53.53,0,0,0,.14-.12V39.54c-3.92,3.63-10.41,4.18-12.76,4.18A15.07,15.07,0,0,1,137.59,38.76Z" style="fill:#003c74"/></svg>