<?xml version="1.0" encoding="utf-8"?>
<!-- Generator: Adobe Illustrator 23.1.1, SVG Export Plug-In . SVG Version: 6.00 Build 0)  -->
<svg version="1.1" id="Insight_Partners_Logo" xmlns="http://www.w3.org/2000/svg" xmlns:xlink="http://www.w3.org/1999/xlink"
	 x="0px" y="0px" viewBox="0 0 216 73.9" style="enable-background:new 0 0 216 73.9;" xml:space="preserve">
<style type="text/css">
	.st0{fill:#182A35;}
	.st1{fill:#FF531B;}
</style>
<g>
	<path class="st0" d="M42.4,58.8c3.6,0,5.5,1.6,5.5,4.8c0,3.2-1.9,4.8-5.5,4.8h-3.8v5.3H36V58.8H42.4z M42.3,66.1
		c2,0,2.9-0.8,2.9-2.4c0-1.6-0.9-2.4-2.9-2.4h-3.7v4.8H42.3z M63.3,70.9h-7.6l-1.2,2.8h-2.8l6.5-14.9h2.6l6.6,14.9h-2.9L63.3,70.9z
		 M59.5,61.9l-2.8,6.7h5.7L59.5,61.9L59.5,61.9z M73.5,73.7V58.8h6.6c3.6,0,5.5,1.6,5.5,4.7c0,2.4-1.1,3.9-3.3,4.5l3.7,5.7h-3.2
		l-3.3-5.5h-3.3v5.5H73.5z M80,65.9c1.9,0,2.8-0.8,2.8-2.3c0-1.6-0.9-2.3-2.8-2.3h-3.8v4.6H80z M95.9,73.7V61.2h-4.7v-2.4h12v2.4
		h-4.7v12.5H95.9z M119.4,73.7l-7.3-12h0v12h-2.6V58.8h3.7L120,70h0V58.8h2.6v14.9H119.4z M139.7,65.1v2.3H133v3.9h8.3v2.4h-11V58.8
		h11v2.4H133v3.8H139.7z M148.2,73.7V58.8h6.6c3.6,0,5.5,1.6,5.5,4.7c0,2.4-1.1,3.9-3.3,4.5l3.7,5.7h-3.2l-3.3-5.5h-3.3v5.5H148.2z
		 M154.7,65.9c1.9,0,2.8-0.8,2.8-2.3c0-1.6-0.9-2.3-2.8-2.3h-3.8v4.6H154.7z M177.2,59.8v2.8h-0.1c-1-1-2.7-1.6-4.6-1.6
		c-1.9,0-3.1,0.8-3.1,2.1c0,1.1,0.8,1.6,3.3,1.8c4,0.4,5.4,1.8,5.4,4.5c0,2.8-2.2,4.5-5.8,4.5c-2.4,0-4.4-0.5-5.6-1.4v-2.9h0.1
		c1.3,1.2,3.2,1.9,5.4,1.9c2.1,0,3.2-0.7,3.2-2.1c0-1.1-0.8-1.7-3.5-2c-3.9-0.4-5.3-1.7-5.3-4.3c0-2.9,2.2-4.6,5.8-4.6
		C174.5,58.6,176.3,59.1,177.2,59.8z"/>
	<path class="st1" d="M40.8,2h5.1v25.5h-0.1L27.5,1.3h-9.2h-3.8H0V2h5.1v37.7H0v0.8h18.3v0h7.2v-0.8h-5V5.2h0.1l24.7,35.4h1.5V2h5
		V1.3h-11V2z M19.6,39.8h-5.1v0h-1.3V2h1.3h3.8h1.3V39.8z M80.4,23.5c0.7,1.3,1,2.8,1,4.7c0,1.8-0.4,3.6-1.1,5.2
		c-0.7,1.7-1.8,3.1-3.2,4.3c-1.4,1.3-3.1,2.3-4.9,3c-2,0.8-4.1,1.1-6.3,1.1c-1.2,0-2.3-0.1-3.4-0.3c-1.1-0.2-2.2-0.5-3.2-0.7
		c-1-0.2-1.9-0.5-2.6-0.7c-0.6-0.2-1.1-0.3-1.7-0.3c-0.4,0-0.8,0.1-1.1,0.3c-0.3,0.3-0.5,0.6-0.6,1h-0.9V28.5h0.8
		c0.1,0.5,0.2,1,0.4,1.8c0.2,0.8,0.5,1.6,0.8,2.4c0.4,0.9,0.8,1.8,1.3,2.6c0.6,0.9,1.2,1.7,2,2.5c0.7,0.8,1.6,1.4,2.5,2
		c0.7,0.4,1.5,0.7,2.3,1c0.7,0.2,1.4,0.3,2.1,0.3c0.7,0,1.3,0,1.8,0c2,0,3.6-0.3,4.9-0.9c1.2-0.5,2.2-1.3,3-2.3
		C75,37,75.6,36,75.9,35c0.3-0.8,0.4-1.7,0.4-2.6c0-1.2-0.3-2.4-1-3.4c-0.7-0.9-1.6-1.7-2.6-2.3c-1.2-0.6-2.4-1.1-3.7-1.5l-4.3-1.3
		c-1.4-0.4-2.9-0.9-4.3-1.5c-1.3-0.6-2.6-1.3-3.7-2.3c-1.1-0.9-2-2.1-2.6-3.4c-0.7-1.4-1-3-1-5.1c0-1.5,0.3-3,1-4.3
		c0.7-1.4,1.6-2.7,2.8-3.7c1.3-1.1,2.7-2,4.3-2.6c1.7-0.7,3.6-1,5.4-1c1.1,0,2.2,0.1,3.2,0.4c0.9,0.2,1.8,0.5,2.5,0.7
		c0.7,0.2,1.3,0.5,1.9,0.7c0.5,0.2,1,0.3,1.5,0.3c0.5,0,0.9-0.1,1-0.3c0.2-0.3,0.4-0.6,0.5-0.9h0.9v10.7h-0.7
		c-0.4-1.3-0.9-2.6-1.4-3.9c-0.5-1.2-1.1-2.4-1.9-3.5c-0.8-1-1.8-1.9-3-2.5c-1.2-0.6-2.7-0.9-4.5-0.9c-1.3,0-2.7,0.2-3.9,0.6
		c-1.1,0.4-2,0.9-2.9,1.6c-0.7,0.6-1.4,1.4-1.8,2.3c-0.4,0.8-0.6,1.7-0.6,2.5c0,1.2,0.3,2.3,1.1,3.3c0.7,0.9,1.7,1.7,2.7,2.2
		c1.2,0.7,2.5,1.2,3.8,1.6c1.4,0.5,2.9,0.9,4.4,1.4c1.5,0.5,3,1,4.4,1.6c1.4,0.5,2.7,1.3,3.8,2.2C78.9,21.1,79.8,22.2,80.4,23.5z
		 M82.1,1.3h18.3V2h-5.1v37.7h5.1v0.8H82.1v-0.8h5.1V2h-5.1V1.3z M140.2,26.8h-3.5v12.9h-1c0-0.4-0.3-0.8-0.6-1
		c-0.4-0.2-0.8-0.3-1.2-0.3c-0.9,0-1.7,0.2-2.5,0.5l-2.5,1.2c-1,0.5-2.1,0.8-3.1,1.2c-1.4,0.4-2.8,0.6-4.3,0.5
		c-2.6,0-5.3-0.5-7.7-1.6c-2.4-1-4.6-2.5-6.5-4.4c-1.9-1.9-3.4-4.1-4.5-6.6c-2.3-5.4-2.2-11.5,0.2-16.9c1.2-2.5,2.8-4.7,4.8-6.6
		c1.9-1.8,4.1-3.2,6.6-4.2c2.3-1,4.7-1.5,7.1-1.5c1.1,0,2.1,0.1,3.2,0.3c1,0.2,2,0.5,2.8,0.7c0.9,0.2,1.7,0.5,2.3,0.7
		c0.6,0.2,1.1,0.3,1.7,0.3c0.4,0,0.8-0.1,1.1-0.3c0.3-0.3,0.5-0.6,0.6-0.9h0.9v11.5h-0.8h0c-0.9-3.7-2.4-6.5-4.3-8.6
		c-1.9-2-4.4-3.1-7.6-3c-2.5,0-4.5,0.5-6.1,1.5c-1.5,1-2.7,2.3-3.5,3.9c-0.9,1.7-1.4,3.6-1.6,5.5c-0.3,2.1-0.4,4.1-0.4,6.2v4.9
		c0,2.9,0.2,5.8,0.7,8.6c0.4,2.3,1.1,4.2,2,5.6c0.9,1.4,2.1,2.4,3.6,3.1c1.7,0.7,3.5,1,5.3,0.9c1.7,0,3-0.3,4-0.9
		c1-0.6,1.8-1.5,2.3-2.5c0.6-1.2,0.9-2.5,1-3.8c0.1-1.5,0.2-3.1,0.2-4.8v-2.1h-5.6v-0.8h16.8V26.8z M216,1.3v10.2h-0.7
		c-0.4-1.6-1.1-3.2-1.8-4.7c-0.6-1.1-1.3-2.1-2.3-2.8c-0.8-0.7-1.8-1.2-2.9-1.4c-1.2-0.3-2.4-0.4-3.6-0.4h-2v37.7h5.1v0.8h-18.2
		v-0.8h5.1V2.1h-2c-1.2,0-2.5,0.1-3.6,0.4c-1.1,0.3-2,0.8-2.9,1.4c-0.9,0.8-1.7,1.8-2.3,2.8c-0.8,1.5-1.4,3.1-1.8,4.7h-0.7V2h-4.6
		v37.7h5.2v0.8h-18.5v-0.8h5.2V20.9h-16.3v18.9h5.2v0.8H139v-0.8h5.2V2H139V1.3h18.5V2h-5.2v18.1h16.3V2h-5.2V1.3h18.5v0H216z"/>
</g>
</svg>
