<svg width="123" height="66" viewBox="0 0 123 66" fill="none" xmlns="http://www.w3.org/2000/svg">
<path d="M0 53.5606H2.28878L6.01005 59.3435L9.73132 53.5606H12.0201V65.7903H9.87107V57.02L6.01005 62.7855H5.94009L2.11403 57.0549V65.7903H6.11856e-05L0 53.5606Z" fill="#007297"/>
<path d="M13.4185 53.5606H22.4858V55.4825H15.5674V58.6622H21.6997V60.5841H15.5674V63.8684H22.5732V65.7904H13.4185V53.5606Z" fill="#007297"/>
<path d="M23.3775 53.5606H25.3692L31.9207 62.0165V53.5606H34.0347V65.7903H32.2352L25.4915 57.0898V65.7903H23.3775V53.5606Z" fill="#007297"/>
<path d="M35.4332 53.5606H39.9931C43.8366 53.5606 46.4922 56.1988 46.4922 59.6404V59.6756C46.4922 63.1173 43.8366 65.7904 39.9931 65.7904H35.4332V53.5606ZM39.9931 63.8335C42.5613 63.8335 44.2385 62.1041 44.2385 59.7105V59.6756C44.2385 57.282 42.5613 55.5174 39.9931 55.5174H37.582V63.8334L39.9931 63.8335Z" fill="#007297"/>
<path d="M46.8073 59.7105V59.6756C46.8073 56.2337 49.4627 53.351 53.2193 53.351C56.9759 53.351 59.596 56.1988 59.596 59.6404V59.6756C59.596 63.1173 56.9404 66 53.1841 66C49.4278 66 46.8073 63.1522 46.8073 59.7105ZM57.3423 59.7105V59.6756C57.3423 57.2995 55.6126 55.3252 53.1841 55.3252C50.7556 55.3252 49.0608 57.2646 49.0608 59.6405V59.6757C49.0608 62.0515 50.7905 64.0258 53.2193 64.0258C55.6481 64.0258 57.3423 62.0864 57.3423 59.7105Z" fill="#007297"/>
<path d="M60.4528 53.5606H62.4445L68.9959 62.0165V53.5606H71.1101V65.7903H69.3106L62.5669 57.0898V65.7903H60.4528V53.5606Z" fill="#007297"/>
<path d="M40.018 0.0850542L39.1776 6.10352e-05L24.87 21.2247L10.5628 6.10352e-05L9.72118 0.0851778V6.10352e-05H0.112732V49.0925H9.72118V15.2643L24.8696 37.921L40.018 15.049V49.0925H49.557V6.10352e-05H40.018V0.0850542Z" fill="#007297"/>
<path d="M74.0963 53.5606H74.7861L76.7375 58.2865L78.6968 53.5606H79.363L77.0041 59.0859H76.4554L74.0963 53.5606Z" fill="#A8A8A8"/>
<path d="M80.4448 53.5606H84.4105V54.125H81.064V55.9981H84.0578V56.5623H81.064V58.4824H84.4497V59.0468H80.4448L80.4448 53.5606Z" fill="#A8A8A8"/>
<path d="M85.6962 53.5606H86.2762L89.7324 57.9574V53.5606H90.3359V59.0468H89.8421L86.2997 54.5481V59.0468H85.6962V53.5606Z" fill="#A8A8A8"/>
<path d="M93.3379 54.1328H91.4962V53.5606H95.8069V54.1328H93.9651V59.0468H93.338L93.3379 54.1328Z" fill="#A8A8A8"/>
<path d="M96.8806 56.7504V53.5606H97.4998V56.7113C97.4998 57.8947 98.1269 58.5608 99.1771 58.5608C100.188 58.5608 100.831 57.9495 100.831 56.7504V53.5606H101.45V56.7034C101.45 58.3022 100.533 59.1329 99.1613 59.1329C97.8055 59.1329 96.8806 58.3023 96.8806 56.7504Z" fill="#A8A8A8"/>
<path d="M102.916 53.5606H105.275C105.949 53.5606 106.489 53.7644 106.834 54.1093C107.101 54.3757 107.258 54.7598 107.258 55.1909V55.2065C107.258 56.1157 106.631 56.6486 105.768 56.8053L107.453 59.0468H106.693L105.102 56.9151H103.535V59.0468H102.916L102.916 53.5606ZM105.22 56.3586C106.043 56.3586 106.631 55.9354 106.631 55.23V55.2143C106.631 54.5403 106.113 54.1328 105.228 54.1328H103.535V56.3586H105.22Z" fill="#A8A8A8"/>
<path d="M108.582 53.5606H112.548V54.125H109.202V55.9981H112.195V56.5623H109.202V58.4824H112.587V59.0468H108.582L108.582 53.5606Z" fill="#A8A8A8"/>
<path d="M74.5665 59.9725H76.6199C77.8582 59.9725 78.6732 60.6309 78.6732 61.7125V61.7281C78.6732 62.9116 77.6857 63.5229 76.5179 63.5229H75.1857V65.4587H74.5665L74.5665 59.9725ZM76.5415 62.9586C77.4507 62.9586 78.0463 62.4726 78.0463 61.7516V61.736C78.0463 60.9522 77.4585 60.5447 76.5729 60.5447H75.1858V62.9586H76.5415Z" fill="#A8A8A8"/>
<path d="M81.2835 59.9335H81.8633L84.3636 65.4587H83.6974L83.0546 64.0089H80.0687L79.4182 65.4587H78.7834L81.2835 59.9335ZM82.8117 63.4524L81.5656 60.6545L80.3117 63.4524H82.8117Z" fill="#A8A8A8"/>
<path d="M85.4454 59.9725H87.8043C88.4784 59.9725 89.0192 60.1763 89.364 60.5212C89.6305 60.7876 89.7872 61.1717 89.7872 61.6028V61.6185C89.7872 62.5276 89.1602 63.0605 88.2983 63.2173L89.9832 65.4587H89.223L87.6321 63.327H86.0647V65.4587H85.4454V59.9725ZM87.7496 62.7705C88.5724 62.7705 89.1602 62.3473 89.1602 61.6419V61.6263C89.1602 60.9523 88.643 60.5447 87.7574 60.5447H86.0647V62.7705H87.7496Z" fill="#A8A8A8"/>
<path d="M92.5071 60.5447H90.6654V59.9725H94.9761V60.5447H93.1343V65.4587H92.5072L92.5071 60.5447Z" fill="#A8A8A8"/>
<path d="M96.1361 59.9725H96.7161L100.172 64.3693V59.9725H100.776V65.4587H100.282L96.7397 60.9601V65.4587H96.1361V59.9725Z" fill="#A8A8A8"/>
<path d="M102.328 59.9725H106.294V60.5369H102.947V62.41H105.941V62.9743H102.947V64.8944H106.333V65.4587H102.328L102.328 59.9725Z" fill="#A8A8A8"/>
<path d="M107.579 59.9725H109.938C110.612 59.9725 111.153 60.1763 111.498 60.5212C111.764 60.7876 111.921 61.1717 111.921 61.6028V61.6185C111.921 62.5276 111.294 63.0605 110.432 63.2173L112.117 65.4587H111.357L109.766 63.327H108.198V65.4587H107.579L107.579 59.9725ZM109.884 62.7705C110.706 62.7705 111.294 62.3473 111.294 61.6419V61.6263C111.294 60.9523 110.777 60.5447 109.891 60.5447H108.198V62.7705H109.884Z" fill="#A8A8A8"/>
<path d="M112.885 64.6594L113.27 64.2049C113.842 64.7221 114.39 64.9807 115.15 64.9807C115.887 64.9807 116.373 64.5889 116.373 64.0481V64.0325C116.373 63.523 116.099 63.2331 114.947 62.9901C113.685 62.7158 113.105 62.3083 113.105 61.407V61.3912C113.105 60.5292 113.865 59.8944 114.908 59.8944C115.707 59.8944 116.279 60.1216 116.835 60.5683L116.475 61.0464C115.965 60.6311 115.456 60.4508 114.892 60.4508C114.179 60.4508 113.724 60.8427 113.724 61.3364V61.3521C113.724 61.8693 114.006 62.1593 115.213 62.418C116.436 62.6844 117 63.1312 117 63.9697V63.9853C117 64.9259 116.216 65.5372 115.127 65.5372C114.257 65.5372 113.544 65.2472 112.885 64.6594Z" fill="#A8A8A8"/>
<path d="M119.906 7.7236C118.297 5.32153 116.061 3.42313 113.195 2.02731C110.331 0.631478 107.039 -0.0423612 103.32 0.00206037L92.8395 0.0717793H92.4393L83.7169 22.0349V49.0924H94.0466V34.528H104.148C107.717 34.528 110.859 33.8313 113.573 32.4344C116.287 31.0397 118.423 29.1299 119.981 26.7048C121.539 24.2799 122.318 20.155 122.318 17.0436C122.318 13.8865 121.514 10.1258 119.906 7.7236ZM109.614 23.0456C108.131 24.2828 106.234 24.9013 103.922 24.9013H94.0466V9.62963H103.094C104.801 9.58918 106.321 9.85235 107.654 10.4202C108.985 10.9881 110.016 11.7687 110.746 12.7617C111.474 13.7558 111.839 15.7709 111.839 17.0686C111.839 19.0143 111.097 21.8096 109.614 23.0456Z" fill="#007297"/>
<path d="M50.7789 0.000182241V22.9531L61.1975 49.0925H62.2492H70.5954H71.6482L91.1442 6.10352e-05H80.8348L66.4144 34.941L51.9398 6.10352e-05" fill="#A8A8A8"/>
</svg>
