<svg width="250" height="44" viewBox="0 0 250 44" fill="none" xmlns="http://www.w3.org/2000/svg">
<path d="M67.4031 20.1545L67.446 19.4748C67.6584 16.9402 67.9173 15.9403 68.6378 14.7634C69.6192 13.1841 71.1501 12.2734 72.7702 12.2734C74.3867 12.2734 75.7517 13.2716 76.476 14.9477C76.9844 16.1246 77.1558 17.3928 77.1558 20.1545H67.4031ZM80.1353 29.1212L79.8392 28.8047C78.1352 30.0709 76.9471 30.475 74.8557 30.475C70.174 30.475 67.5297 27.2646 67.4029 21.378L74.4757 21.1491L77.1127 21.0596L77.4126 21.013C78.178 21.013 79.3699 20.9683 80.9043 21.013C80.9043 17.8882 80.6921 16.3033 80.098 14.8564C79.0718 12.5454 76.8594 11.1412 74.176 11.1412C71.4069 11.1412 68.3397 12.2734 66.4664 13.9997C64.4234 15.8956 63.483 18.4786 63.483 22.1472C63.483 28.4863 67.1479 32.6075 72.77 32.6075C75.2822 32.6075 77.1984 31.9742 79.4592 30.3467L80.1353 29.1212Z" fill="#00529B"/>
<path d="M91.9016 12.3194C95.6929 12.3194 97.8644 15.718 97.8644 21.7835C97.8644 27.5377 95.52 31.4299 92.0263 31.4299C88.1975 31.4299 85.8102 27.7649 85.8102 21.9659C85.8102 15.8055 88.0243 12.3194 91.9016 12.3194ZM92.5851 11.1407C86.0224 11.1407 81.8492 15.4891 81.8492 22.2359C81.8492 28.7111 85.3409 32.6068 91.1324 32.6068C97.6913 32.6068 101.866 28.2139 101.866 21.4203C101.866 14.9471 98.4583 11.1407 92.5851 11.1407Z" fill="#00529B"/>
<path d="M107.815 19.8356C107.815 17.2118 107.982 16.6662 109.137 15.6252C110.539 14.3588 112.115 13.679 113.779 13.679C117.143 13.679 119.318 16.8933 119.318 21.9158C119.318 26.9439 116.802 30.1637 112.923 30.1637C110.751 30.1637 109.349 29.4858 107.815 27.672V19.8356ZM108.155 10.9155C107.558 11.0514 107.6 11.0048 105.984 11.3232C104.066 11.6901 102.704 11.8242 101.125 11.8615V12.638C103.641 12.638 104.362 13.2227 104.362 15.3513V36.6815C104.362 38.9441 104.237 41.1211 104.109 41.7524C103.896 42.4768 103.09 42.8883 101.47 43.0244L100.487 43.1137V43.84C102.664 43.745 103.641 43.745 105.26 43.745C106.234 43.745 107.558 43.745 109.137 43.7916L111.267 43.84V43.1137L110.708 43.0244C108.882 42.7506 108.327 42.4768 108.114 41.8493C107.943 41.3465 107.815 39.0858 107.815 36.6815V31.4281L108.28 31.5194C109.729 31.8844 110.796 32.0612 111.517 32.0612C112.923 32.0612 114.204 31.6999 115.349 30.9793C116.971 29.9812 118.249 29.1207 118.804 28.7594C121.571 26.7687 122.847 23.955 122.847 19.9735C122.847 14.5859 120.036 11.1407 115.651 11.1407C113.098 11.1407 111.135 12.2283 107.9 15.4482C107.943 14.1744 107.982 14.1334 108.114 11.6437L108.155 10.9155Z" fill="#00529B"/>
<path d="M122.463 2.22367C124.336 1.85502 126.552 1.17888 128.804 0.227355L129.36 0.000183105C129.272 1.45089 129.272 1.54395 129.236 4.34294C129.189 5.34668 129.189 6.16051 129.147 7.5628V24.9059C129.147 27.2653 129.272 29.6211 129.442 30.1165C129.661 30.7514 130 30.8875 132.044 31.2486L132.509 31.3399V32.0606L130.978 32.0216C129.745 32.0216 128.252 31.9749 127.401 31.9749C125.183 31.9749 124.548 31.9749 122.332 32.0606V31.3399L122.802 31.2486C124.928 30.8875 125.23 30.7514 125.442 29.9824C125.568 29.4348 125.695 27.1741 125.695 24.9059V8.56275C125.695 2.85876 125.739 2.94245 122.883 2.94245H122.463V2.22367Z" fill="#00529B"/>
<path d="M136.412 20.1545L136.456 19.4748C136.674 16.9402 136.925 15.9403 137.652 14.7634C138.628 13.1841 140.161 12.2734 141.779 12.2734C143.399 12.2734 144.764 13.2716 145.487 14.9477C145.996 16.1246 146.165 17.3928 146.165 20.1545H136.412ZM149.148 29.1212L148.845 28.8047C147.145 30.0709 145.956 30.475 143.869 30.475C139.18 30.475 136.542 27.2646 136.412 21.378L143.489 21.1491L146.123 21.0596L146.418 21.013C147.189 21.013 148.379 20.9683 149.917 21.013C149.917 17.8882 149.7 16.3033 149.104 14.8564C148.082 12.5454 145.868 11.1412 143.184 11.1412C140.416 11.1412 137.353 12.2734 135.476 13.9997C133.435 15.8956 132.495 18.4786 132.495 22.1472C132.495 28.4863 136.159 32.6075 141.781 32.6075C144.292 32.6075 146.207 31.9742 148.47 30.3467L149.148 29.1212Z" fill="#00529B"/>
<path d="M152.95 25.8603C153.711 29.6219 155.8 31.7004 158.739 31.7004C161.039 31.7004 162.703 30.0261 162.703 27.5828C162.703 25.5885 161.682 24.4542 159.293 23.8229C154.311 22.417 154.263 22.417 153.588 21.916C152.48 21.0127 151.757 19.4299 151.757 17.7558C151.757 13.86 154.738 11.3235 159.335 11.3235C160.869 11.3235 162.234 11.5973 163.978 12.2268C163.809 14.5415 163.765 15.2641 163.719 17.2566H163.039C162.703 14.266 161.039 12.3199 158.787 12.3199C156.525 12.3199 154.738 14.1336 154.738 16.3498C154.738 17.7558 155.632 18.7074 157.46 19.2512L162.362 20.7409C164.275 21.3796 165.508 23.188 165.508 25.4972C165.508 27.4897 164.492 29.7096 162.874 31.1601C161.591 32.2868 159.891 32.8362 157.717 32.8362C156.017 32.8362 154.443 32.5624 152.139 31.8399C152.183 31.0224 152.183 30.4748 152.183 30.2588L152.309 28.0335C152.348 27.6723 152.348 26.9441 152.348 25.8603H152.95Z" fill="#00529B"/>
<path d="M174.615 16.0804H175.94C179.639 16.0804 181.004 16.3038 182.534 17.3001C183.983 18.1642 184.922 20.3375 184.922 22.6895C184.922 27.807 181.729 30.8872 176.53 30.8872C175.129 30.8872 174.783 30.4755 174.699 28.8516L174.615 26.0881V16.0804ZM166.776 1.58089V2.58283L167.547 2.66852C170.141 3.03717 170.526 3.39467 170.614 5.57173C170.614 5.93859 170.614 6.42641 170.656 7.06349C170.695 8.29061 170.737 9.24214 170.737 9.78416V22.9633C170.737 24.1848 170.695 25.8163 170.614 27.4904C170.57 28.7603 170.526 29.2149 170.44 29.6226C170.227 30.3472 169.502 30.7009 167.547 30.9318L166.776 31.0697V32.0603L169.289 32.0212C170.909 31.9746 172.27 31.9746 172.999 31.9746C173.844 31.9746 174.404 31.9746 174.998 32.0212C176.319 32.0212 177.254 32.0603 177.427 32.0603C184.706 32.0603 189.268 28.2596 189.268 22.1885C189.268 19.1606 188.03 17.1214 185.563 16.0338C184.495 15.5348 183.26 15.2648 180.958 14.8551C185.179 14.1734 187.859 11.1845 187.859 7.24961C187.859 5.16382 186.88 3.30719 185.306 2.45251C183.899 1.6313 182.923 1.45056 180.364 1.45056C179.426 1.45056 177.505 1.4952 176.532 1.54362C175.763 1.54362 175.472 1.58089 174.747 1.58089C172.866 1.67594 172.32 1.67594 172.1 1.67594C171.929 1.67594 170.909 1.6313 169.289 1.58089H166.776ZM174.615 7.74879L174.699 4.7561C174.747 2.99254 175.129 2.66852 177.254 2.66852C181.558 2.66852 183.728 4.62199 183.728 8.51599C183.728 10.4639 182.959 12.1826 181.558 13.3149C180.153 14.4491 178.363 14.9015 174.615 15.0376V7.74879Z" fill="#00529B"/>
<path d="M201.296 27.3975C199.72 28.9859 198.014 29.8462 196.358 29.8462C194.694 29.8462 193.498 28.5316 193.498 26.768C193.498 23.956 195.794 22.4159 201.296 21.5556V27.3975ZM201.296 32.0605C202.613 32.0214 203.336 31.9748 204.066 31.9748C204.956 31.9748 205.893 32.0214 207.166 32.0605H207.812V31.3397L207.635 31.2969C207.507 31.2484 207.254 31.2056 206.873 31.1181C205.425 30.7941 205.257 30.701 205.036 30.1164C204.867 29.621 204.743 27.2652 204.743 24.9058V17.2557C204.743 13.6317 202.784 11.4584 199.46 11.4584C198.528 11.4584 198.056 11.5981 197.075 12.0935C195.074 13.1363 194.218 13.5442 193.751 13.8142C192.095 14.8124 191.88 15.0786 191.88 16.1736C191.88 17.438 192.687 18.3393 193.923 18.5257C194.136 14.9912 195.286 13.2704 197.545 13.2704C198.739 13.2704 199.973 13.9986 200.485 15.0376C201.124 16.304 201.296 17.3468 201.296 20.3785C199.584 20.9243 198.653 21.2445 197.207 21.7399C192.775 23.2353 191.838 23.5966 191.24 24.092C190.431 24.7306 189.792 26.5388 189.792 28.1703C189.792 30.8425 191.707 32.6079 194.56 32.6079C196.18 32.6079 197.031 32.1089 200.82 28.8054C200.951 28.7103 201.079 28.58 201.296 28.3957V32.0605Z" fill="#00529B"/>
<path d="M212.953 15.1761C216.149 12.0029 217.467 11.2337 219.856 11.2337C223.56 11.2337 225.904 13.8595 225.904 17.9769V24.9064C225.904 27.3086 226.029 29.6216 226.205 30.117C226.41 30.7519 226.749 30.8878 228.793 31.249L229.266 31.3403V32.0611L227.733 32.02C226.498 32.02 224.963 31.9736 224.156 31.9736C221.898 31.9736 221.382 31.9736 219.083 32.0611V31.3403L219.553 31.249C221.729 30.8878 221.984 30.7519 222.197 29.9829C222.321 29.3924 222.452 27.2658 222.452 24.9064V18.8429C222.452 15.5782 220.791 13.6807 217.937 13.6807C215 13.6807 212.867 15.9899 212.867 19.1593V24.9064C212.867 27.3086 212.999 29.6216 213.166 30.117C213.38 30.7519 213.718 30.8878 215.767 31.249L216.231 31.3403V32.0611L214.697 32.02C213.467 32.02 211.929 31.9736 211.124 31.9736C208.862 31.9736 208.354 31.9736 206.05 32.0611V31.3403L206.529 31.249C208.655 30.8878 208.952 30.7519 209.165 29.9829C209.296 29.4353 209.416 27.1745 209.416 24.9064V15.353C209.416 13.2226 208.695 12.6377 206.182 12.6377V11.8632C207.76 11.8241 209.079 11.69 211.04 11.3231L212.61 11.0511L213.166 10.9152C213.166 11.2337 213.124 11.459 213.124 11.6434L212.953 14.2246V15.1761Z" fill="#00529B"/>
<path d="M242.123 24.9058C246.264 29.3063 247.961 30.701 250 31.3397V32.0605H249.36L248.472 31.9748L246.979 31.9301H245.955C245.917 31.9301 245.74 31.9301 245.574 31.9748H245.146C244.082 31.9748 243.661 31.6525 241.099 28.9356L234.501 21.9169L233.988 22.3246V24.9058L234.034 26.768L234.118 28.6692C234.162 30.6582 234.289 30.7941 236.884 31.2486L237.352 31.3397V32.0605L235.822 32.0214C234.54 32.0214 233.054 31.9748 232.241 31.9748C229.983 31.9748 229.477 31.9748 227.173 32.0605V31.3397L227.646 31.2486C229.774 30.8873 230.069 30.7512 230.284 29.9822C230.413 29.4346 230.537 27.1759 230.537 24.9058V8.51613C230.537 2.85857 230.581 2.94227 227.731 2.94227H227.307V2.22349C229.178 1.85483 232.195 0.908685 234.329 0L234.289 0.999952C234.07 3.8101 233.988 6.29803 233.988 7.92768V21.3786C235.353 20.1979 236.884 18.8423 237.605 18.1159C238.759 16.9856 239.526 16.2127 239.696 16.0805C240.893 15.0786 241.316 14.4957 241.316 13.9035C241.316 13.4976 240.929 13.1829 240.118 12.9575L239.612 12.8196V12.0935C241.866 12.1828 242.677 12.1828 244.04 12.1828C244.976 12.1828 246.044 12.1381 248.131 12.0935V12.8196C245.405 13.4509 244.209 14.0878 241.529 16.2127C240.676 16.8924 239.313 18.0284 238.378 18.8423C238.08 19.1105 237.866 19.2928 237.352 19.8366L242.123 24.9058Z" fill="#00529B"/>
<path d="M54.4043 16.8932C59.8123 16.9416 62.6241 14.4053 62.6241 9.37902C62.6241 4.75509 60.1567 2.5316 54.8755 2.5316C52.1455 2.5316 52.0636 2.71971 52.0636 7.6565V22.9641C52.0636 23.4615 52.1062 24.5489 52.1455 26.1319L52.1901 27.4894C52.2776 30.387 52.4006 30.5211 55.2536 30.9328L55.9407 31.0687V32.0613C53.0002 31.9738 51.8103 31.9738 49.3818 31.9738C47.8045 31.9738 46.6537 32.0202 44.3557 32.0613V31.0687L44.9964 30.9328C47.1232 30.6144 47.6744 30.3479 47.8904 29.6218C47.9741 29.2157 48.0189 28.7595 48.0598 27.4894C48.1455 25.8153 48.1865 24.1858 48.1865 22.9641V10.69C48.1865 9.87262 48.1455 8.78877 48.0598 6.16116C47.9741 3.30816 47.7637 3.03815 44.9964 2.6693L44.2256 2.58181V1.58186H46.6539C48.6148 1.63208 49.8941 1.67492 49.9762 1.67492L56.3244 1.4067C57.0024 1.35828 57.7696 1.35828 58.3656 1.35828C64.0285 1.35828 66.753 3.67303 66.753 8.5634C66.753 12.3605 64.8816 15.4481 61.8144 16.8448C60.2392 17.5767 58.7492 17.8021 55.8924 17.8449H54.4045L54.4043 16.8932Z" fill="#00529B"/>
<path d="M18.308 10.9578C16.6725 11.3285 16.226 11.5762 15.278 12.1963C15.4586 12.9448 15.4363 13.3545 15.4363 14.1721C15.4363 18.0549 13.697 21.1592 10.7882 22.5019C13.0266 23.3418 14.52 24.4853 16.2296 26.1109C19.7232 25.5803 20.8816 25.975 21.4328 25.7347C25.8648 24.1612 26.3341 19.2318 26.3341 19.2318C26.6954 13.0771 21.8778 10.146 18.308 10.9578Z" fill="#00529B"/>
<path d="M28.4083 17.1247C30.5555 16.0094 32.2131 13.486 32.6283 10.4003C33.2168 6.03877 30.9355 2.83765 26.9764 2.56384C20.3057 2.10392 20.0841 9.28672 20.0841 9.28672C20.0841 9.28672 27.2129 9.39273 28.4083 17.1247Z" fill="#00529B"/>
<path d="M9.13807 21.9878C11.6876 21.1012 13.4659 18.6097 13.4659 15.1701C13.4659 10.8329 10.477 6.99468 5.66494 7.38585C3.81767 7.5367 1.51208 8.15305 0.00179399 11.0248L0 21.4998C3.36134 20.9747 6.41919 21.1777 9.13807 21.9878Z" fill="#00529B"/>
<path d="M6.69876 5.89766C9.99095 5.78029 13.8981 7.87166 14.9411 11.0672C16.116 10.1436 17.5444 9.53101 19.1049 9.34668C19.1069 9.34469 19.1087 9.34289 19.1087 9.3409C19.2783 5.27394 20.7924 2.58853 24.124 1.43016L0 1.40405V9.30383C1.43576 7.08573 4.0301 5.99072 6.69876 5.89766Z" fill="#00529B"/>
<path d="M24.1704 25.9027C28.9302 26.0982 32.0439 27.1019 37.5339 28.562V23.4576C35.1149 20.9155 31.6679 18.9006 28.502 18.4854C28.1947 22.0814 26.6081 24.5078 24.1704 25.9027Z" fill="#00529B"/>
<path d="M29.2048 1.4043C32.4543 2.22191 34.6983 5.8997 34.3594 9.64105C33.7783 16.0303 29.9515 17.5518 29.9477 17.6078C33.5884 18.4589 34.525 19.1013 37.5326 20.7232V1.4043H29.2048Z" fill="#00529B"/>
<path d="M0.043457 24.4239V32.0702H8.06599C8.74192 28.8653 10.9339 27.1631 14.8482 26.4408C9.2148 22.4256 4.13274 22.0123 0.043457 24.4239Z" fill="#00529B"/>
<path d="M15.474 32.071H37.5305V29.8587C18.8224 24.9033 15.474 32.071 15.474 32.071Z" fill="#00529B"/>
</svg>
