<svg width="420" height="16" viewBox="0 0 420 16" fill="none" xmlns="http://www.w3.org/2000/svg">
<path fill-rule="evenodd" clip-rule="evenodd" d="M13.915 0.41598H8.79062V15.7916H13.0123C18.2164 15.7916 21.4819 13.2712 21.4819 8.08995C21.4819 3.41261 18.535 0.41598 13.915 0.41598ZM13.3241 3.95377C13.4266 3.94788 13.5171 3.94269 13.5976 3.94269C15.8278 3.94269 17.474 5.28692 17.474 8.0035C17.474 11.1682 15.4561 12.2605 12.8542 12.2605V3.97038C13.0348 3.97038 13.1898 3.96148 13.3241 3.95377Z" fill="white"/>
<path d="M37.36 0.831085V4.89232C36.2445 4.16398 35.3949 3.7438 34.2265 3.74359C32.1026 3.74359 30.4034 5.47989 30.4034 7.86062C30.4034 10.2976 32.0761 11.9495 34.2265 11.9495C35.342 11.9495 36.165 11.6135 37.3598 10.8296V14.8904C36.5631 15.5344 35.528 15.8709 34.0145 15.8709C29.766 15.8709 26.3941 12.5659 26.3941 8.05676C26.3941 3.54766 29.8193 0.130859 34.0941 0.130859C35.3949 0.130859 36.3245 0.383007 37.36 0.831085Z" fill="white"/>
<path d="M0 15.7916V0.41598H8.23078V3.97291H4.03574L4.06239 6.35364H7.93883V9.91037H4.03574L4.00909 15.7916H0Z" fill="white"/>
<path d="M25.9164 15.7916H21.9069V0.41598H25.9164V15.7916Z" fill="white"/>
<path d="M46.1136 12.5L47.7904 4.1032H52.424L52.2576 4.9352H48.6096L48.0336 7.8536H51.1184L50.952 8.6984H47.88L47.112 12.5H46.1136ZM52.1636 12.5L53.8404 4.1032H55.402C56.5711 4.1032 57.4543 4.39333 58.0516 4.9736C58.6575 5.54533 58.9604 6.34747 58.9604 7.38C58.9604 8.39547 58.777 9.2872 58.41 10.0552C58.0516 10.8232 57.5311 11.4248 56.8484 11.86C56.1743 12.2867 55.3636 12.5 54.4164 12.5H52.1636ZM53.3156 11.6808H54.4164C55.1418 11.6808 55.769 11.5016 56.298 11.1432C56.8271 10.7848 57.2324 10.2856 57.514 9.6456C57.8042 9.0056 57.9492 8.27173 57.9492 7.444C57.9492 6.6504 57.7274 6.03173 57.2836 5.588C56.8484 5.13573 56.2084 4.9096 55.3636 4.9096H54.6724L53.3156 11.6808ZM59.7386 12.5L61.4154 4.1032H62.4138L60.737 12.5H59.7386ZM66.2276 12.6536C65.5876 12.6536 65.0458 12.5128 64.602 12.2312C64.1583 11.9411 63.8212 11.54 63.5908 11.028C63.3604 10.516 63.2452 9.9272 63.2452 9.2616C63.2452 8.60453 63.3476 7.96027 63.5524 7.3288C63.7572 6.69733 64.0516 6.12987 64.4356 5.6264C64.8196 5.1144 65.2762 4.70907 65.8052 4.4104C66.3428 4.1032 66.9359 3.9496 67.5844 3.9496C68.0623 3.9496 68.4719 4.06907 68.8132 4.308C69.1631 4.5384 69.4404 4.8328 69.6452 5.1912L68.954 5.716C68.7919 5.44293 68.5956 5.22533 68.3652 5.0632C68.1348 4.89253 67.8575 4.8072 67.5332 4.8072C67.0383 4.8072 66.586 4.93947 66.1764 5.204C65.7754 5.46 65.434 5.80133 65.1524 6.228C64.8708 6.65467 64.6532 7.124 64.4996 7.636C64.346 8.148 64.2692 8.66 64.2692 9.172C64.2692 9.67547 64.3418 10.1277 64.4868 10.5288C64.6319 10.9213 64.8623 11.2328 65.178 11.4632C65.4938 11.6851 65.9034 11.796 66.4068 11.796C66.7482 11.796 67.0596 11.7277 67.3412 11.5912C67.6314 11.4547 67.913 11.2712 68.186 11.0408L68.634 11.6808C68.3268 11.9453 67.9727 12.1757 67.5716 12.372C67.1791 12.5597 66.7311 12.6536 66.2276 12.6536ZM69.3761 9.6584L69.5297 8.9032H72.3329L72.1665 9.6584H69.3761ZM73.2011 12.5L74.8779 4.1032H75.8763L74.1995 12.5H73.2011ZM76.3749 12.5L77.6165 6.2792H78.4229L78.3333 7.2136H78.3845C78.7344 6.9064 79.0843 6.6504 79.4341 6.4456C79.784 6.23227 80.1552 6.1256 80.5477 6.1256C81.0768 6.1256 81.4523 6.2664 81.6741 6.548C81.9045 6.82107 82.0197 7.19653 82.0197 7.6744C82.0197 7.93893 81.9856 8.2248 81.9173 8.532L81.1237 12.5H80.1509L80.9189 8.66C80.9531 8.48933 80.9787 8.3528 80.9957 8.2504C81.0128 8.148 81.0213 8.04133 81.0213 7.9304C81.0213 7.2904 80.7141 6.9704 80.0997 6.9704C79.8608 6.9704 79.5877 7.06 79.2805 7.2392C78.9733 7.4184 78.6235 7.70427 78.2309 8.0968L77.3477 12.5H76.3749ZM84.7895 12.6536C84.3714 12.6536 83.9618 12.5427 83.5607 12.3208C83.1682 12.0989 82.8653 11.8173 82.6519 11.476L83.2663 10.9896C83.4626 11.2541 83.6973 11.4717 83.9703 11.6424C84.2434 11.8131 84.5421 11.8984 84.8663 11.8984C85.2247 11.8984 85.5319 11.8003 85.7879 11.604C86.0525 11.4077 86.1847 11.1603 86.1847 10.8616C86.1847 10.6397 86.0951 10.4477 85.9159 10.2856C85.7453 10.1149 85.421 9.89733 84.9431 9.6328C84.5506 9.41093 84.2306 9.16773 83.9831 8.9032C83.7442 8.63867 83.6247 8.33147 83.6247 7.9816C83.6247 7.61467 83.7186 7.29467 83.9063 7.0216C84.0941 6.74 84.3415 6.5224 84.6487 6.3688C84.9645 6.20667 85.3101 6.1256 85.6855 6.1256C86.0781 6.1256 86.4322 6.2024 86.7479 6.356C87.0637 6.5096 87.341 6.7144 87.5799 6.9704L86.9911 7.4824C86.829 7.31173 86.637 7.17093 86.4151 7.06C86.2018 6.94907 85.9543 6.8936 85.6727 6.8936C85.3485 6.8936 85.0797 6.99173 84.8663 7.188C84.6615 7.37573 84.5591 7.60187 84.5591 7.8664C84.5591 8.1224 84.6743 8.33147 84.9047 8.4936C85.1351 8.65573 85.3869 8.8136 85.6599 8.9672C86.189 9.25733 86.5645 9.5304 86.7863 9.7864C87.0082 10.0424 87.1191 10.3581 87.1191 10.7336C87.1191 11.1176 87.0167 11.4547 86.8119 11.7448C86.6071 12.0349 86.3298 12.2611 85.9799 12.4232C85.6301 12.5768 85.2333 12.6536 84.7895 12.6536ZM90.0419 12.6536C89.5214 12.6536 89.1459 12.5128 88.9155 12.2312C88.6851 11.9496 88.5699 11.5741 88.5699 11.1048C88.5699 10.9597 88.5785 10.8232 88.5955 10.6952C88.6126 10.5587 88.6382 10.4093 88.6723 10.2472L89.4659 6.2792H90.4515L89.6707 10.1192C89.6366 10.2813 89.611 10.4179 89.5939 10.5288C89.5769 10.6312 89.5683 10.7379 89.5683 10.8488C89.5683 11.4888 89.8755 11.8088 90.4899 11.8088C90.7374 11.8088 91.0105 11.7192 91.3091 11.54C91.6163 11.3608 91.9577 11.0749 92.3331 10.6824L93.2163 6.2792H94.1891L92.9475 12.5H92.1411L92.2435 11.5528H92.1923C91.851 11.8515 91.5011 12.1117 91.1427 12.3336C90.7843 12.5469 90.4174 12.6536 90.0419 12.6536ZM95.0124 12.5L96.254 6.2792H97.0604L96.9196 7.4696H96.9708C97.2183 7.09413 97.5042 6.7784 97.8284 6.5224C98.1527 6.25787 98.5068 6.1256 98.8908 6.1256C99.1042 6.1256 99.3004 6.164 99.4796 6.2408L99.134 7.1112C98.9975 7.04293 98.8183 7.0088 98.5964 7.0088C98.2892 7.0088 97.9735 7.14533 97.6492 7.4184C97.325 7.68293 97.0306 8.06693 96.766 8.5704L95.9852 12.5H95.0124ZM101.784 12.6536C101.05 12.6536 100.457 12.4275 100.005 11.9752C99.5611 11.5229 99.3392 10.8829 99.3392 10.0552C99.3392 9.4664 99.4331 8.93307 99.6208 8.4552C99.8171 7.97733 100.073 7.56347 100.389 7.2136C100.713 6.86373 101.071 6.59493 101.464 6.4072C101.857 6.21947 102.258 6.1256 102.667 6.1256C103.137 6.1256 103.508 6.22373 103.781 6.42C104.062 6.61627 104.267 6.88507 104.395 7.2264C104.523 7.56773 104.587 7.95173 104.587 8.3784C104.587 8.61733 104.562 8.84773 104.51 9.0696C104.459 9.28293 104.412 9.44933 104.37 9.5688H100.325C100.248 10.1064 100.278 10.5459 100.414 10.8872C100.551 11.2285 100.76 11.4803 101.042 11.6424C101.332 11.796 101.656 11.8728 102.014 11.8728C102.262 11.8728 102.505 11.8216 102.744 11.7192C102.991 11.6083 103.213 11.4803 103.41 11.3352L103.794 11.988C103.546 12.1672 103.247 12.3251 102.898 12.4616C102.556 12.5896 102.185 12.6536 101.784 12.6536ZM100.427 8.9032H103.691C103.708 8.80933 103.721 8.7112 103.73 8.6088C103.747 8.5064 103.755 8.39973 103.755 8.2888C103.755 8.04987 103.717 7.828 103.64 7.6232C103.563 7.40987 103.435 7.2392 103.256 7.1112C103.085 6.97467 102.851 6.9064 102.552 6.9064C102.1 6.9064 101.673 7.08987 101.272 7.4568C100.871 7.8152 100.589 8.29733 100.427 8.9032ZM107.319 12.6536C106.773 12.6536 106.338 12.4616 106.014 12.0776C105.689 11.6851 105.527 11.1261 105.527 10.4008C105.527 9.80347 105.621 9.2488 105.809 8.7368C105.997 8.21627 106.248 7.75973 106.564 7.3672C106.88 6.97467 107.238 6.67173 107.639 6.4584C108.04 6.23653 108.459 6.1256 108.894 6.1256C109.227 6.1256 109.517 6.21093 109.764 6.3816C110.012 6.54373 110.212 6.76133 110.366 7.0344H110.404L110.609 5.8184L111.095 3.3864H112.081L110.238 12.5H109.431L109.534 11.5784H109.483C109.184 11.8941 108.847 12.1544 108.471 12.3592C108.096 12.5555 107.712 12.6536 107.319 12.6536ZM107.678 11.8344C108.002 11.8344 108.331 11.7363 108.663 11.54C108.996 11.3437 109.32 11.0451 109.636 10.644L110.199 7.8664C110.02 7.54213 109.824 7.30747 109.611 7.1624C109.397 7.01733 109.171 6.9448 108.932 6.9448C108.625 6.9448 108.326 7.0344 108.036 7.2136C107.755 7.3928 107.499 7.64027 107.268 7.956C107.046 8.2632 106.867 8.61733 106.731 9.0184C106.603 9.41093 106.539 9.82053 106.539 10.2472C106.539 10.7848 106.641 11.1859 106.846 11.4504C107.059 11.7064 107.336 11.8344 107.678 11.8344ZM114.889 9.6584L115.042 8.9032H117.845L117.679 9.6584H114.889ZM121.276 12.5L122.953 4.1032H125.193C126.004 4.1032 126.639 4.26107 127.1 4.5768C127.561 4.89253 127.791 5.35333 127.791 5.9592C127.791 6.33467 127.697 6.66747 127.51 6.9576C127.331 7.24773 127.096 7.48667 126.806 7.6744C126.524 7.86213 126.23 7.99013 125.923 8.0584L125.91 8.1096C126.345 8.212 126.712 8.404 127.011 8.6856C127.309 8.95867 127.459 9.33413 127.459 9.812C127.459 10.4349 127.305 10.9469 126.998 11.348C126.699 11.7405 126.285 12.0307 125.756 12.2184C125.227 12.4061 124.63 12.5 123.964 12.5H121.276ZM123.222 7.7128H124.425C125.227 7.7128 125.82 7.56347 126.204 7.2648C126.588 6.9576 126.78 6.56933 126.78 6.1C126.78 5.716 126.631 5.41733 126.332 5.204C126.042 4.99067 125.581 4.884 124.95 4.884H123.785L123.222 7.7128ZM122.415 11.7192H123.875C124.677 11.7192 125.312 11.5741 125.782 11.284C126.251 10.9853 126.486 10.5117 126.486 9.8632C126.486 9.43653 126.319 9.0952 125.987 8.8392C125.662 8.57467 125.189 8.4424 124.566 8.4424H123.081L122.415 11.7192ZM130.582 12.6536C130.036 12.6536 129.6 12.4616 129.276 12.0776C128.952 11.6851 128.79 11.1261 128.79 10.4008C128.79 9.80347 128.884 9.2488 129.071 8.7368C129.259 8.21627 129.511 7.75973 129.827 7.3672C130.142 6.97467 130.501 6.67173 130.902 6.4584C131.303 6.23653 131.721 6.1256 132.156 6.1256C132.489 6.1256 132.783 6.21093 133.039 6.3816C133.304 6.55227 133.509 6.7784 133.654 7.06H133.705L133.948 6.2792H134.742L133.5 12.5H132.694L132.796 11.5784H132.745C132.446 11.8941 132.109 12.1544 131.734 12.3592C131.358 12.5555 130.974 12.6536 130.582 12.6536ZM130.94 11.8344C131.264 11.8344 131.593 11.7363 131.926 11.54C132.267 11.3437 132.591 11.0451 132.899 10.644L133.462 7.8664C133.283 7.54213 133.086 7.30747 132.873 7.1624C132.66 7.01733 132.434 6.9448 132.195 6.9448C131.887 6.9448 131.589 7.0344 131.299 7.2136C131.017 7.3928 130.761 7.64027 130.531 7.956C130.309 8.2632 130.13 8.61733 129.993 9.0184C129.865 9.41093 129.801 9.82053 129.801 10.2472C129.801 10.7848 129.903 11.1859 130.108 11.4504C130.322 11.7064 130.599 11.8344 130.94 11.8344ZM137.93 12.6536C137.256 12.6536 136.706 12.436 136.279 12.0008C135.853 11.5656 135.639 10.9512 135.639 10.1576C135.639 9.57733 135.733 9.044 135.921 8.5576C136.109 8.06267 136.365 7.636 136.689 7.2776C137.022 6.91067 137.393 6.62907 137.802 6.4328C138.221 6.228 138.656 6.1256 139.108 6.1256C139.483 6.1256 139.799 6.19813 140.055 6.3432C140.311 6.48827 140.533 6.66747 140.721 6.8808L140.145 7.4952C139.983 7.29893 139.821 7.15813 139.658 7.0728C139.496 6.97893 139.291 6.932 139.044 6.932C138.634 6.932 138.246 7.07707 137.879 7.3672C137.512 7.65733 137.214 8.04133 136.983 8.5192C136.753 8.99707 136.638 9.52187 136.638 10.0936C136.638 10.6568 136.757 11.0877 136.996 11.3864C137.243 11.6851 137.615 11.8344 138.11 11.8344C138.383 11.8344 138.634 11.7789 138.865 11.668C139.095 11.5571 139.304 11.4291 139.492 11.284L139.927 11.924C139.705 12.0947 139.428 12.2611 139.095 12.4232C138.771 12.5768 138.383 12.6536 137.93 12.6536ZM141.125 12.5L142.943 3.3864H143.928L142.699 9.5688H142.725L145.912 6.2792H147.039L144.555 8.8776L146.053 12.5H145.055L143.864 9.4664L142.431 10.9256L142.098 12.5H141.125ZM149.522 12.6536C148.788 12.6536 148.195 12.4275 147.742 11.9752C147.299 11.5229 147.077 10.8829 147.077 10.0552C147.077 9.4664 147.171 8.93307 147.358 8.4552C147.555 7.97733 147.811 7.56347 148.126 7.2136C148.451 6.86373 148.809 6.59493 149.202 6.4072C149.594 6.21947 149.995 6.1256 150.405 6.1256C150.874 6.1256 151.245 6.22373 151.518 6.42C151.8 6.61627 152.005 6.88507 152.133 7.2264C152.261 7.56773 152.325 7.95173 152.325 8.3784C152.325 8.61733 152.299 8.84773 152.248 9.0696C152.197 9.28293 152.15 9.44933 152.107 9.5688H148.062C147.986 10.1064 148.015 10.5459 148.152 10.8872C148.288 11.2285 148.498 11.4803 148.779 11.6424C149.069 11.796 149.394 11.8728 149.752 11.8728C149.999 11.8728 150.243 11.8216 150.482 11.7192C150.729 11.6083 150.951 11.4803 151.147 11.3352L151.531 11.988C151.284 12.1672 150.985 12.3251 150.635 12.4616C150.294 12.5896 149.923 12.6536 149.522 12.6536ZM148.165 8.9032H151.429C151.446 8.80933 151.459 8.7112 151.467 8.6088C151.484 8.5064 151.493 8.39973 151.493 8.2888C151.493 8.04987 151.454 7.828 151.378 7.6232C151.301 7.40987 151.173 7.2392 150.994 7.1112C150.823 6.97467 150.588 6.9064 150.29 6.9064C149.837 6.9064 149.411 7.08987 149.01 7.4568C148.608 7.8152 148.327 8.29733 148.165 8.9032ZM155.057 12.6536C154.511 12.6536 154.075 12.4616 153.751 12.0776C153.427 11.6851 153.265 11.1261 153.265 10.4008C153.265 9.80347 153.359 9.2488 153.546 8.7368C153.734 8.21627 153.986 7.75973 154.302 7.3672C154.617 6.97467 154.976 6.67173 155.377 6.4584C155.778 6.23653 156.196 6.1256 156.631 6.1256C156.964 6.1256 157.254 6.21093 157.502 6.3816C157.749 6.54373 157.95 6.76133 158.103 7.0344H158.142L158.346 5.8184L158.833 3.3864H159.818L157.975 12.5H157.169L157.271 11.5784H157.22C156.921 11.8941 156.584 12.1544 156.209 12.3592C155.833 12.5555 155.449 12.6536 155.057 12.6536ZM155.415 11.8344C155.739 11.8344 156.068 11.7363 156.401 11.54C156.734 11.3437 157.058 11.0451 157.374 10.644L157.937 7.8664C157.758 7.54213 157.561 7.30747 157.348 7.1624C157.135 7.01733 156.909 6.9448 156.67 6.9448C156.362 6.9448 156.064 7.0344 155.774 7.2136C155.492 7.3928 155.236 7.64027 155.006 7.956C154.784 8.2632 154.605 8.61733 154.468 9.0184C154.34 9.41093 154.276 9.82053 154.276 10.2472C154.276 10.7848 154.378 11.1859 154.583 11.4504C154.797 11.7064 155.074 11.8344 155.415 11.8344ZM165.173 12.6536C164.841 12.6536 164.542 12.5683 164.277 12.3976C164.021 12.2269 163.821 12.0008 163.676 11.7192H163.637L163.381 12.5H162.575L164.393 3.3864H165.378L164.879 5.8184L164.597 7.0472H164.623C164.93 6.79973 165.263 6.5864 165.621 6.4072C165.98 6.21947 166.351 6.1256 166.735 6.1256C167.281 6.1256 167.716 6.3176 168.041 6.7016C168.365 7.0856 168.527 7.64453 168.527 8.3784C168.527 8.97573 168.433 9.53467 168.245 10.0552C168.058 10.5672 167.806 11.0195 167.49 11.412C167.174 11.8045 166.816 12.1117 166.415 12.3336C166.014 12.5469 165.6 12.6536 165.173 12.6536ZM165.135 11.8344C165.442 11.8344 165.737 11.7448 166.018 11.5656C166.308 11.3864 166.564 11.1432 166.786 10.836C167.017 10.5203 167.196 10.1661 167.324 9.7736C167.452 9.37253 167.516 8.9544 167.516 8.5192C167.516 7.99013 167.413 7.5976 167.209 7.3416C167.004 7.07707 166.726 6.9448 166.377 6.9448C166.086 6.9448 165.766 7.0344 165.417 7.2136C165.075 7.3928 164.755 7.64027 164.457 7.956L163.868 10.9128C164.038 11.2371 164.23 11.4717 164.444 11.6168C164.666 11.7619 164.896 11.8344 165.135 11.8344ZM168.826 15.1752C168.741 15.1752 168.63 15.1581 168.494 15.124C168.357 15.0984 168.229 15.0557 168.11 14.996L168.43 14.2664C168.583 14.3432 168.737 14.3816 168.89 14.3816C169.206 14.3816 169.5 14.2493 169.774 13.9848C170.055 13.7288 170.303 13.3875 170.516 12.9608L170.746 12.5128L169.684 6.2792H170.657L171.143 9.7736C171.186 10.0552 171.224 10.3624 171.258 10.6952C171.292 11.0195 171.322 11.3309 171.348 11.6296H171.399C171.544 11.3309 171.694 11.0195 171.847 10.6952C172.009 10.3709 172.167 10.0637 172.321 9.7736L174.113 6.2792H175.086L171.425 13.0248C171.211 13.4259 170.977 13.7885 170.721 14.1128C170.473 14.4456 170.196 14.7059 169.889 14.8936C169.582 15.0813 169.227 15.1752 168.826 15.1752ZM179.571 12.6536C179.025 12.6536 178.641 12.5213 178.419 12.2568C178.197 11.9837 178.086 11.6552 178.086 11.2712C178.086 11.1432 178.095 11.0237 178.112 10.9128C178.129 10.8019 178.142 10.6909 178.15 10.58L178.88 7.0728H177.971L178.112 6.3432L179.085 6.2792L179.546 4.564H180.378L180.032 6.2792H181.606L181.453 7.0728H179.853L179.123 10.6312C179.098 10.7848 179.085 10.9384 179.085 11.092C179.085 11.348 179.144 11.54 179.264 11.668C179.383 11.796 179.588 11.86 179.878 11.86C179.998 11.86 180.113 11.8387 180.224 11.796C180.335 11.7533 180.437 11.7107 180.531 11.668L180.749 12.372C180.612 12.4317 180.442 12.4915 180.237 12.5512C180.04 12.6195 179.819 12.6536 179.571 12.6536ZM181.762 12.5L183.58 3.3864H184.566L183.951 6.3944L183.746 7.1752H183.798C184.147 6.87653 184.497 6.62907 184.847 6.4328C185.197 6.228 185.56 6.1256 185.935 6.1256C186.464 6.1256 186.84 6.2664 187.062 6.548C187.292 6.82107 187.407 7.19653 187.407 7.6744C187.407 7.93893 187.373 8.2248 187.305 8.532L186.511 12.5H185.538L186.306 8.66C186.341 8.48933 186.366 8.3528 186.383 8.2504C186.4 8.148 186.409 8.04133 186.409 7.9304C186.409 7.2904 186.102 6.9704 185.487 6.9704C185.248 6.9704 184.975 7.06 184.668 7.2392C184.361 7.4184 184.011 7.70427 183.618 8.0968L182.735 12.5H181.762ZM190.984 12.6536C190.25 12.6536 189.657 12.4275 189.205 11.9752C188.761 11.5229 188.539 10.8829 188.539 10.0552C188.539 9.4664 188.633 8.93307 188.821 8.4552C189.017 7.97733 189.273 7.56347 189.589 7.2136C189.913 6.86373 190.271 6.59493 190.664 6.4072C191.057 6.21947 191.458 6.1256 191.867 6.1256C192.337 6.1256 192.708 6.22373 192.981 6.42C193.262 6.61627 193.467 6.88507 193.595 7.2264C193.723 7.56773 193.787 7.95173 193.787 8.3784C193.787 8.61733 193.762 8.84773 193.71 9.0696C193.659 9.28293 193.612 9.44933 193.57 9.5688H189.525C189.448 10.1064 189.478 10.5459 189.614 10.8872C189.751 11.2285 189.96 11.4803 190.242 11.6424C190.532 11.796 190.856 11.8728 191.214 11.8728C191.462 11.8728 191.705 11.8216 191.944 11.7192C192.191 11.6083 192.413 11.4803 192.61 11.3352L192.994 11.988C192.746 12.1672 192.447 12.3251 192.098 12.4616C191.756 12.5896 191.385 12.6536 190.984 12.6536ZM189.627 8.9032H192.891C192.908 8.80933 192.921 8.7112 192.93 8.6088C192.947 8.5064 192.955 8.39973 192.955 8.2888C192.955 8.04987 192.917 7.828 192.84 7.6232C192.763 7.40987 192.635 7.2392 192.456 7.1112C192.285 6.97467 192.051 6.9064 191.752 6.9064C191.3 6.9064 190.873 7.08987 190.472 7.4568C190.071 7.8152 189.789 8.29733 189.627 8.9032ZM197.341 12.5L198.429 7.0728H197.623L197.763 6.3432L198.595 6.2792L198.8 5.2424C198.928 4.61093 199.159 4.12027 199.491 3.7704C199.824 3.412 200.251 3.2328 200.771 3.2328C200.993 3.2328 201.194 3.26267 201.373 3.3224C201.552 3.3736 201.719 3.44613 201.872 3.54L201.527 4.244C201.441 4.18427 201.339 4.13307 201.219 4.0904C201.108 4.04773 200.98 4.0264 200.835 4.0264C200.554 4.0264 200.323 4.13307 200.144 4.3464C199.974 4.55973 199.854 4.84987 199.786 5.2168L199.568 6.2792H200.823L200.669 7.0728H199.402L198.314 12.5H197.341ZM202.592 12.6536C202.071 12.6536 201.696 12.5128 201.466 12.2312C201.235 11.9496 201.12 11.5741 201.12 11.1048C201.12 10.9597 201.128 10.8232 201.146 10.6952C201.163 10.5587 201.188 10.4093 201.222 10.2472L202.016 6.2792H203.002L202.221 10.1192C202.187 10.2813 202.161 10.4179 202.144 10.5288C202.127 10.6312 202.118 10.7379 202.118 10.8488C202.118 11.4888 202.426 11.8088 203.04 11.8088C203.287 11.8088 203.56 11.7192 203.859 11.54C204.166 11.3608 204.508 11.0749 204.883 10.6824L205.766 6.2792H206.739L205.498 12.5H204.691L204.794 11.5528H204.742C204.401 11.8515 204.051 12.1117 203.693 12.3336C203.334 12.5469 202.967 12.6536 202.592 12.6536ZM208.561 12.6536C208.006 12.6536 207.729 12.3848 207.729 11.8472C207.729 11.7021 207.754 11.5229 207.806 11.3096L209.38 3.3864H210.366L208.766 11.3608C208.757 11.4205 208.749 11.4717 208.74 11.5144C208.74 11.5485 208.74 11.5784 208.74 11.604C208.74 11.7576 208.813 11.8344 208.958 11.8344C208.983 11.8344 209.009 11.8344 209.034 11.8344C209.06 11.8259 209.103 11.8131 209.162 11.796L209.175 12.5512C209.09 12.5853 209 12.6109 208.906 12.628C208.813 12.6451 208.697 12.6536 208.561 12.6536ZM211.736 12.6536C211.181 12.6536 210.904 12.3848 210.904 11.8472C210.904 11.7021 210.929 11.5229 210.981 11.3096L212.555 3.3864H213.541L211.941 11.3608C211.932 11.4205 211.924 11.4717 211.915 11.5144C211.915 11.5485 211.915 11.5784 211.915 11.604C211.915 11.7576 211.988 11.8344 212.133 11.8344C212.158 11.8344 212.184 11.8344 212.209 11.8344C212.235 11.8259 212.278 11.8131 212.337 11.796L212.35 12.5512C212.265 12.5853 212.175 12.6109 212.081 12.628C211.988 12.6451 211.872 12.6536 211.736 12.6536ZM216.629 12.5L217.717 7.0728H216.91L217.051 6.3432L217.883 6.2792L218.088 5.2424C218.216 4.61093 218.446 4.12027 218.779 3.7704C219.112 3.412 219.538 3.2328 220.059 3.2328C220.281 3.2328 220.481 3.26267 220.661 3.3224C220.84 3.3736 221.006 3.44613 221.16 3.54L220.814 4.244C220.729 4.18427 220.626 4.13307 220.507 4.0904C220.396 4.04773 220.268 4.0264 220.123 4.0264C219.841 4.0264 219.611 4.13307 219.432 4.3464C219.261 4.55973 219.142 4.84987 219.073 5.2168L218.856 6.2792H220.11L219.957 7.0728H218.689L217.601 12.5H216.629ZM221.857 12.6536C221.311 12.6536 220.875 12.4616 220.551 12.0776C220.227 11.6851 220.065 11.1261 220.065 10.4008C220.065 9.80347 220.159 9.2488 220.346 8.7368C220.534 8.21627 220.786 7.75973 221.102 7.3672C221.417 6.97467 221.776 6.67173 222.177 6.4584C222.578 6.23653 222.996 6.1256 223.431 6.1256C223.764 6.1256 224.058 6.21093 224.314 6.3816C224.579 6.55227 224.784 6.7784 224.929 7.06H224.98L225.223 6.2792H226.017L224.775 12.5H223.969L224.071 11.5784H224.02C223.721 11.8941 223.384 12.1544 223.009 12.3592C222.633 12.5555 222.249 12.6536 221.857 12.6536ZM222.215 11.8344C222.539 11.8344 222.868 11.7363 223.201 11.54C223.542 11.3437 223.866 11.0451 224.174 10.644L224.737 7.8664C224.558 7.54213 224.361 7.30747 224.148 7.1624C223.935 7.01733 223.709 6.9448 223.47 6.9448C223.162 6.9448 222.864 7.0344 222.574 7.2136C222.292 7.3928 222.036 7.64027 221.806 7.956C221.584 8.2632 221.405 8.61733 221.268 9.0184C221.14 9.41093 221.076 9.82053 221.076 10.2472C221.076 10.7848 221.178 11.1859 221.383 11.4504C221.597 11.7064 221.874 11.8344 222.215 11.8344ZM226.837 12.5L228.079 6.2792H229.065L227.81 12.5H226.837ZM228.898 4.9864C228.736 4.9864 228.591 4.93947 228.463 4.8456C228.335 4.7432 228.271 4.59813 228.271 4.4104C228.271 4.19707 228.344 4.02213 228.489 3.8856C228.642 3.74053 228.817 3.668 229.013 3.668C229.184 3.668 229.329 3.7192 229.449 3.8216C229.577 3.924 229.641 4.06907 229.641 4.2568C229.641 4.47013 229.564 4.64507 229.41 4.7816C229.265 4.91813 229.094 4.9864 228.898 4.9864ZM231.846 12.6536C231.3 12.6536 230.916 12.5213 230.694 12.2568C230.472 11.9837 230.361 11.6552 230.361 11.2712C230.361 11.1432 230.37 11.0237 230.387 10.9128C230.404 10.8019 230.417 10.6909 230.425 10.58L231.155 7.0728H230.246L230.387 6.3432L231.36 6.2792L231.821 4.564H232.653L232.307 6.2792H233.881L233.728 7.0728H232.128L231.398 10.6312C231.373 10.7848 231.36 10.9384 231.36 11.092C231.36 11.348 231.419 11.54 231.539 11.668C231.658 11.796 231.863 11.86 232.153 11.86C232.273 11.86 232.388 11.8387 232.499 11.796C232.61 11.7533 232.712 11.7107 232.806 11.668L233.024 12.372C232.887 12.4317 232.717 12.4915 232.512 12.5512C232.315 12.6195 232.094 12.6536 231.846 12.6536ZM234.037 12.5L235.855 3.3864H236.841L236.226 6.3944L236.021 7.1752H236.073C236.422 6.87653 236.772 6.62907 237.122 6.4328C237.472 6.228 237.835 6.1256 238.21 6.1256C238.739 6.1256 239.115 6.2664 239.337 6.548C239.567 6.82107 239.682 7.19653 239.682 7.6744C239.682 7.93893 239.648 8.2248 239.58 8.532L238.786 12.5H237.813L238.581 8.66C238.616 8.48933 238.641 8.3528 238.658 8.2504C238.675 8.148 238.684 8.04133 238.684 7.9304C238.684 7.2904 238.377 6.9704 237.762 6.9704C237.523 6.9704 237.25 7.06 236.943 7.2392C236.636 7.4184 236.286 7.70427 235.893 8.0968L235.01 12.5H234.037ZM245.194 12.6536C244.648 12.6536 244.213 12.4616 243.889 12.0776C243.564 11.6851 243.402 11.1261 243.402 10.4008C243.402 9.80347 243.496 9.2488 243.684 8.7368C243.872 8.21627 244.123 7.75973 244.439 7.3672C244.755 6.97467 245.113 6.67173 245.514 6.4584C245.915 6.23653 246.334 6.1256 246.769 6.1256C247.102 6.1256 247.396 6.21093 247.652 6.3816C247.916 6.55227 248.121 6.7784 248.266 7.06H248.318L248.561 6.2792H249.354L248.113 12.5H247.306L247.409 11.5784H247.358C247.059 11.8941 246.722 12.1544 246.346 12.3592C245.971 12.5555 245.587 12.6536 245.194 12.6536ZM245.553 11.8344C245.877 11.8344 246.206 11.7363 246.538 11.54C246.88 11.3437 247.204 11.0451 247.511 10.644L248.074 7.8664C247.895 7.54213 247.699 7.30747 247.486 7.1624C247.272 7.01733 247.046 6.9448 246.807 6.9448C246.5 6.9448 246.201 7.0344 245.911 7.2136C245.63 7.3928 245.374 7.64027 245.143 7.956C244.921 8.2632 244.742 8.61733 244.606 9.0184C244.478 9.41093 244.414 9.82053 244.414 10.2472C244.414 10.7848 244.516 11.1859 244.721 11.4504C244.934 11.7064 245.211 11.8344 245.553 11.8344ZM250.175 12.5L251.417 6.2792H252.223L252.133 7.2136H252.185C252.534 6.9064 252.884 6.6504 253.234 6.4456C253.584 6.23227 253.955 6.1256 254.348 6.1256C254.877 6.1256 255.252 6.2664 255.474 6.548C255.705 6.82107 255.82 7.19653 255.82 7.6744C255.82 7.93893 255.786 8.2248 255.717 8.532L254.924 12.5H253.951L254.719 8.66C254.753 8.48933 254.779 8.3528 254.796 8.2504C254.813 8.148 254.821 8.04133 254.821 7.9304C254.821 7.2904 254.514 6.9704 253.9 6.9704C253.661 6.9704 253.388 7.06 253.081 7.2392C252.773 7.4184 252.423 7.70427 252.031 8.0968L251.148 12.5H250.175ZM258.794 12.6536C258.248 12.6536 257.813 12.4616 257.489 12.0776C257.164 11.6851 257.002 11.1261 257.002 10.4008C257.002 9.80347 257.096 9.2488 257.284 8.7368C257.472 8.21627 257.723 7.75973 258.039 7.3672C258.355 6.97467 258.713 6.67173 259.114 6.4584C259.515 6.23653 259.934 6.1256 260.369 6.1256C260.702 6.1256 260.992 6.21093 261.239 6.3816C261.487 6.54373 261.687 6.76133 261.841 7.0344H261.879L262.084 5.8184L262.57 3.3864H263.556L261.713 12.5H260.906L261.009 11.5784H260.958C260.659 11.8941 260.322 12.1544 259.946 12.3592C259.571 12.5555 259.187 12.6536 258.794 12.6536ZM259.153 11.8344C259.477 11.8344 259.806 11.7363 260.138 11.54C260.471 11.3437 260.795 11.0451 261.111 10.644L261.674 7.8664C261.495 7.54213 261.299 7.30747 261.086 7.1624C260.872 7.01733 260.646 6.9448 260.407 6.9448C260.1 6.9448 259.801 7.0344 259.511 7.2136C259.23 7.3928 258.974 7.64027 258.743 7.956C258.521 8.2632 258.342 8.61733 258.206 9.0184C258.078 9.41093 258.014 9.82053 258.014 10.2472C258.014 10.7848 258.116 11.1859 258.321 11.4504C258.534 11.7064 258.811 11.8344 259.153 11.8344ZM268.68 12.6536C268.006 12.6536 267.456 12.436 267.029 12.0008C266.603 11.5656 266.389 10.9512 266.389 10.1576C266.389 9.57733 266.483 9.044 266.671 8.5576C266.859 8.06267 267.115 7.636 267.439 7.2776C267.772 6.91067 268.143 6.62907 268.552 6.4328C268.971 6.228 269.406 6.1256 269.858 6.1256C270.233 6.1256 270.549 6.19813 270.805 6.3432C271.061 6.48827 271.283 6.66747 271.471 6.8808L270.895 7.4952C270.733 7.29893 270.571 7.15813 270.408 7.0728C270.246 6.97893 270.041 6.932 269.794 6.932C269.384 6.932 268.996 7.07707 268.629 7.3672C268.262 7.65733 267.964 8.04133 267.733 8.5192C267.503 8.99707 267.388 9.52187 267.388 10.0936C267.388 10.6568 267.507 11.0877 267.746 11.3864C267.993 11.6851 268.365 11.8344 268.86 11.8344C269.133 11.8344 269.384 11.7789 269.615 11.668C269.845 11.5571 270.054 11.4291 270.242 11.284L270.677 11.924C270.455 12.0947 270.178 12.2611 269.845 12.4232C269.521 12.5768 269.133 12.6536 268.68 12.6536ZM271.875 12.5L273.117 6.2792H273.923L273.782 7.4696H273.833C274.081 7.09413 274.367 6.7784 274.691 6.5224C275.015 6.25787 275.369 6.1256 275.753 6.1256C275.967 6.1256 276.163 6.164 276.342 6.2408L275.997 7.1112C275.86 7.04293 275.681 7.0088 275.459 7.0088C275.152 7.0088 274.836 7.14533 274.512 7.4184C274.187 7.68293 273.893 8.06693 273.629 8.5704L272.848 12.5H271.875ZM278.647 12.6536C277.913 12.6536 277.32 12.4275 276.867 11.9752C276.424 11.5229 276.202 10.8829 276.202 10.0552C276.202 9.4664 276.296 8.93307 276.483 8.4552C276.68 7.97733 276.936 7.56347 277.251 7.2136C277.576 6.86373 277.934 6.59493 278.327 6.4072C278.719 6.21947 279.12 6.1256 279.53 6.1256C279.999 6.1256 280.37 6.22373 280.643 6.42C280.925 6.61627 281.13 6.88507 281.258 7.2264C281.386 7.56773 281.45 7.95173 281.45 8.3784C281.45 8.61733 281.424 8.84773 281.373 9.0696C281.322 9.28293 281.275 9.44933 281.232 9.5688H277.187C277.111 10.1064 277.14 10.5459 277.277 10.8872C277.413 11.2285 277.623 11.4803 277.904 11.6424C278.194 11.796 278.519 11.8728 278.877 11.8728C279.124 11.8728 279.368 11.8216 279.607 11.7192C279.854 11.6083 280.076 11.4803 280.272 11.3352L280.656 11.988C280.409 12.1672 280.11 12.3251 279.76 12.4616C279.419 12.5896 279.048 12.6536 278.647 12.6536ZM277.29 8.9032H280.554C280.571 8.80933 280.584 8.7112 280.592 8.6088C280.609 8.5064 280.618 8.39973 280.618 8.2888C280.618 8.04987 280.579 7.828 280.503 7.6232C280.426 7.40987 280.298 7.2392 280.119 7.1112C279.948 6.97467 279.713 6.9064 279.415 6.9064C278.962 6.9064 278.536 7.08987 278.135 7.4568C277.733 7.8152 277.452 8.29733 277.29 8.9032ZM284.182 12.6536C283.636 12.6536 283.2 12.4616 282.876 12.0776C282.552 11.6851 282.39 11.1261 282.39 10.4008C282.39 9.80347 282.484 9.2488 282.671 8.7368C282.859 8.21627 283.111 7.75973 283.427 7.3672C283.742 6.97467 284.101 6.67173 284.502 6.4584C284.903 6.23653 285.321 6.1256 285.756 6.1256C286.089 6.1256 286.379 6.21093 286.627 6.3816C286.874 6.54373 287.075 6.76133 287.228 7.0344H287.267L287.471 5.8184L287.958 3.3864H288.943L287.1 12.5H286.294L286.396 11.5784H286.345C286.046 11.8941 285.709 12.1544 285.334 12.3592C284.958 12.5555 284.574 12.6536 284.182 12.6536ZM284.54 11.8344C284.864 11.8344 285.193 11.7363 285.526 11.54C285.859 11.3437 286.183 11.0451 286.499 10.644L287.062 7.8664C286.883 7.54213 286.686 7.30747 286.473 7.1624C286.26 7.01733 286.034 6.9448 285.795 6.9448C285.487 6.9448 285.189 7.0344 284.899 7.2136C284.617 7.3928 284.361 7.64027 284.131 7.956C283.909 8.2632 283.73 8.61733 283.593 9.0184C283.465 9.41093 283.401 9.82053 283.401 10.2472C283.401 10.7848 283.503 11.1859 283.708 11.4504C283.922 11.7064 284.199 11.8344 284.54 11.8344ZM289.137 12.5L290.379 6.2792H291.365L290.11 12.5H289.137ZM291.198 4.9864C291.036 4.9864 290.891 4.93947 290.763 4.8456C290.635 4.7432 290.571 4.59813 290.571 4.4104C290.571 4.19707 290.644 4.02213 290.789 3.8856C290.942 3.74053 291.117 3.668 291.313 3.668C291.484 3.668 291.629 3.7192 291.749 3.8216C291.877 3.924 291.941 4.06907 291.941 4.2568C291.941 4.47013 291.864 4.64507 291.71 4.7816C291.565 4.91813 291.394 4.9864 291.198 4.9864ZM294.146 12.6536C293.6 12.6536 293.216 12.5213 292.994 12.2568C292.772 11.9837 292.661 11.6552 292.661 11.2712C292.661 11.1432 292.67 11.0237 292.687 10.9128C292.704 10.8019 292.717 10.6909 292.725 10.58L293.455 7.0728H292.546L292.687 6.3432L293.66 6.2792L294.121 4.564H294.953L294.607 6.2792H296.181L296.028 7.0728H294.428L293.698 10.6312C293.673 10.7848 293.66 10.9384 293.66 11.092C293.66 11.348 293.719 11.54 293.839 11.668C293.958 11.796 294.163 11.86 294.453 11.86C294.573 11.86 294.688 11.8387 294.799 11.796C294.91 11.7533 295.012 11.7107 295.106 11.668L295.324 12.372C295.187 12.4317 295.017 12.4915 294.812 12.5512C294.615 12.6195 294.394 12.6536 294.146 12.6536ZM301.217 12.6536C300.543 12.6536 300.005 12.4317 299.604 11.988C299.203 11.5443 299.002 10.9341 299.002 10.1576C299.002 9.5688 299.096 9.0312 299.284 8.5448C299.472 8.04987 299.723 7.6232 300.039 7.2648C300.355 6.89787 300.713 6.61627 301.114 6.42C301.515 6.22373 301.929 6.1256 302.356 6.1256C303.03 6.1256 303.568 6.34747 303.969 6.7912C304.378 7.23493 304.583 7.84507 304.583 8.6216C304.583 9.2104 304.489 9.75227 304.302 10.2472C304.114 10.7336 303.858 11.1603 303.534 11.5272C303.218 11.8856 302.859 12.1629 302.458 12.3592C302.057 12.5555 301.643 12.6536 301.217 12.6536ZM301.319 11.8344C301.703 11.8344 302.066 11.6936 302.407 11.412C302.757 11.1304 303.039 10.7507 303.252 10.2728C303.474 9.79493 303.585 9.26587 303.585 8.6856C303.585 8.1224 303.47 7.69147 303.239 7.3928C303.009 7.0856 302.68 6.932 302.254 6.932C301.87 6.932 301.503 7.07707 301.153 7.3672C300.811 7.6488 300.53 8.02853 300.308 8.5064C300.095 8.98427 299.988 9.51333 299.988 10.0936C299.988 10.6568 300.103 11.0877 300.334 11.3864C300.564 11.6851 300.892 11.8344 301.319 11.8344ZM305.641 12.5L306.729 7.0728H305.923L306.063 6.3432L306.895 6.2792L307.1 5.2424C307.228 4.61093 307.459 4.12027 307.791 3.7704C308.124 3.412 308.551 3.2328 309.071 3.2328C309.293 3.2328 309.494 3.26267 309.673 3.3224C309.852 3.3736 310.019 3.44613 310.172 3.54L309.827 4.244C309.741 4.18427 309.639 4.13307 309.519 4.0904C309.408 4.04773 309.28 4.0264 309.135 4.0264C308.854 4.0264 308.623 4.13307 308.444 4.3464C308.274 4.55973 308.154 4.84987 308.086 5.2168L307.868 6.2792H309.123L308.969 7.0728H307.702L306.614 12.5H305.641ZM313.634 12.6536C313.087 12.6536 312.703 12.5213 312.482 12.2568C312.26 11.9837 312.149 11.6552 312.149 11.2712C312.149 11.1432 312.157 11.0237 312.174 10.9128C312.191 10.8019 312.204 10.6909 312.213 10.58L312.942 7.0728H312.034L312.174 6.3432L313.147 6.2792L313.608 4.564H314.44L314.094 6.2792H315.669L315.515 7.0728H313.915L313.186 10.6312C313.16 10.7848 313.147 10.9384 313.147 11.092C313.147 11.348 313.207 11.54 313.326 11.668C313.446 11.796 313.651 11.86 313.941 11.86C314.06 11.86 314.175 11.8387 314.286 11.796C314.397 11.7533 314.5 11.7107 314.594 11.668L314.811 12.372C314.675 12.4317 314.504 12.4915 314.299 12.5512C314.103 12.6195 313.881 12.6536 313.634 12.6536ZM315.825 12.5L317.643 3.3864H318.628L318.014 6.3944L317.809 7.1752H317.86C318.21 6.87653 318.56 6.62907 318.91 6.4328C319.26 6.228 319.622 6.1256 319.998 6.1256C320.527 6.1256 320.902 6.2664 321.124 6.548C321.355 6.82107 321.47 7.19653 321.47 7.6744C321.47 7.93893 321.436 8.2248 321.367 8.532L320.574 12.5H319.601L320.369 8.66C320.403 8.48933 320.429 8.3528 320.446 8.2504C320.463 8.148 320.471 8.04133 320.471 7.9304C320.471 7.2904 320.164 6.9704 319.55 6.9704C319.311 6.9704 319.038 7.06 318.731 7.2392C318.423 7.4184 318.073 7.70427 317.681 8.0968L316.798 12.5H315.825ZM325.047 12.6536C324.313 12.6536 323.72 12.4275 323.267 11.9752C322.824 11.5229 322.602 10.8829 322.602 10.0552C322.602 9.4664 322.696 8.93307 322.883 8.4552C323.08 7.97733 323.336 7.56347 323.651 7.2136C323.976 6.86373 324.334 6.59493 324.727 6.4072C325.119 6.21947 325.52 6.1256 325.93 6.1256C326.399 6.1256 326.77 6.22373 327.043 6.42C327.325 6.61627 327.53 6.88507 327.658 7.2264C327.786 7.56773 327.85 7.95173 327.85 8.3784C327.85 8.61733 327.824 8.84773 327.773 9.0696C327.722 9.28293 327.675 9.44933 327.632 9.5688H323.587C323.511 10.1064 323.54 10.5459 323.677 10.8872C323.813 11.2285 324.023 11.4803 324.304 11.6424C324.594 11.796 324.919 11.8728 325.277 11.8728C325.524 11.8728 325.768 11.8216 326.007 11.7192C326.254 11.6083 326.476 11.4803 326.672 11.3352L327.056 11.988C326.809 12.1672 326.51 12.3251 326.16 12.4616C325.819 12.5896 325.448 12.6536 325.047 12.6536ZM323.69 8.9032H326.954C326.971 8.80933 326.984 8.7112 326.992 8.6088C327.009 8.5064 327.018 8.39973 327.018 8.2888C327.018 8.04987 326.979 7.828 326.903 7.6232C326.826 7.40987 326.698 7.2392 326.519 7.1112C326.348 6.97467 326.113 6.9064 325.815 6.9064C325.362 6.9064 324.936 7.08987 324.535 7.4568C324.133 7.8152 323.852 8.29733 323.69 8.9032ZM334.514 12.6536C333.661 12.6536 333.004 12.4317 332.543 11.988C332.09 11.5357 331.864 10.8744 331.864 10.004C331.864 9.8248 331.877 9.63707 331.903 9.4408C331.928 9.236 331.958 9.02693 331.992 8.8136L332.94 4.1032H333.938L332.978 8.9032C332.901 9.2872 332.863 9.62427 332.863 9.9144C332.863 10.5117 332.999 10.9768 333.272 11.3096C333.545 11.6339 333.976 11.796 334.565 11.796C335.043 11.796 335.474 11.5997 335.858 11.2072C336.242 10.8147 336.524 10.1619 336.703 9.2488L337.74 4.1032H338.712L337.663 9.2872C337.424 10.4989 337.027 11.3651 336.472 11.8856C335.918 12.3976 335.265 12.6536 334.514 12.6536ZM339.512 12.6536C339.324 12.6536 339.175 12.5939 339.064 12.4744C338.961 12.3549 338.91 12.2013 338.91 12.0136C338.91 11.7917 338.991 11.5869 339.153 11.3992C339.324 11.2115 339.529 11.1176 339.768 11.1176C339.955 11.1176 340.1 11.1816 340.203 11.3096C340.305 11.4291 340.356 11.5827 340.356 11.7704C340.356 11.9837 340.275 12.1843 340.113 12.372C339.96 12.5597 339.759 12.6536 339.512 12.6536ZM344.672 12.6536C344.101 12.6536 343.576 12.5299 343.098 12.2824C342.62 12.0349 342.211 11.6637 341.869 11.1688L342.599 10.6184C342.846 10.9853 343.149 11.2755 343.508 11.4888C343.875 11.7021 344.293 11.8088 344.762 11.8088C345.274 11.8088 345.701 11.6637 346.042 11.3736C346.392 11.0835 346.567 10.6995 346.567 10.2216C346.567 9.9144 346.469 9.65413 346.272 9.4408C346.085 9.22747 345.833 9.02693 345.517 8.8392L344.544 8.2504C344.186 8.02853 343.879 7.764 343.623 7.4568C343.375 7.14107 343.252 6.74853 343.252 6.2792C343.252 5.85253 343.363 5.46427 343.584 5.1144C343.815 4.76453 344.126 4.48293 344.519 4.2696C344.911 4.05627 345.359 3.9496 345.863 3.9496C346.366 3.9496 346.823 4.06053 347.232 4.2824C347.642 4.50427 347.979 4.78587 348.244 5.1272L347.591 5.716C347.377 5.46 347.121 5.24667 346.823 5.076C346.524 4.8968 346.179 4.8072 345.786 4.8072C345.47 4.8072 345.197 4.87547 344.967 5.012C344.745 5.14 344.57 5.3064 344.442 5.5112C344.323 5.716 344.263 5.9336 344.263 6.164C344.263 6.48827 344.365 6.7528 344.57 6.9576C344.783 7.15387 345.044 7.34587 345.351 7.5336L346.324 8.1096C346.725 8.34853 347.036 8.6216 347.258 8.9288C347.48 9.22747 347.591 9.61147 347.591 10.0808C347.591 10.5757 347.463 11.0195 347.207 11.412C346.959 11.796 346.618 12.0989 346.183 12.3208C345.748 12.5427 345.244 12.6536 344.672 12.6536ZM349.087 12.6536C348.899 12.6536 348.75 12.5939 348.639 12.4744C348.536 12.3549 348.485 12.2013 348.485 12.0136C348.485 11.7917 348.566 11.5869 348.728 11.3992C348.899 11.2115 349.104 11.1176 349.343 11.1176C349.53 11.1176 349.675 11.1816 349.778 11.3096C349.88 11.4291 349.931 11.5827 349.931 11.7704C349.931 11.9837 349.85 12.1843 349.688 12.372C349.535 12.5597 349.334 12.6536 349.087 12.6536ZM357.693 12.6536C356.686 12.6536 355.914 12.3464 355.376 11.732C354.847 11.1091 354.583 10.2856 354.583 9.2616C354.583 8.596 354.685 7.94747 354.89 7.316C355.095 6.68453 355.389 6.11707 355.773 5.6136C356.166 5.1016 356.635 4.69627 357.181 4.3976C357.736 4.09893 358.359 3.9496 359.05 3.9496C359.553 3.9496 359.976 4.06907 360.317 4.308C360.667 4.5384 360.949 4.8328 361.162 5.1912L360.458 5.716C360.296 5.44293 360.095 5.22533 359.856 5.0632C359.626 4.89253 359.34 4.8072 358.999 4.8072C358.47 4.8072 357.996 4.93947 357.578 5.204C357.16 5.46 356.801 5.80133 356.503 6.228C356.213 6.65467 355.991 7.124 355.837 7.636C355.684 8.148 355.607 8.66 355.607 9.172C355.607 9.66693 355.679 10.1149 355.824 10.516C355.978 10.9171 356.217 11.2328 356.541 11.4632C356.865 11.6936 357.296 11.8088 357.834 11.8088C358.141 11.8088 358.414 11.7576 358.653 11.6552C358.901 11.5528 359.105 11.4333 359.268 11.2968L359.741 8.98H358L358.167 8.1608H360.804L360.074 11.796C359.767 12.052 359.413 12.2611 359.012 12.4232C358.61 12.5768 358.171 12.6536 357.693 12.6536ZM364.092 12.6536C363.418 12.6536 362.88 12.4317 362.479 11.988C362.078 11.5443 361.877 10.9341 361.877 10.1576C361.877 9.5688 361.971 9.0312 362.159 8.5448C362.347 8.04987 362.598 7.6232 362.914 7.2648C363.23 6.89787 363.588 6.61627 363.989 6.42C364.39 6.22373 364.804 6.1256 365.231 6.1256C365.905 6.1256 366.443 6.34747 366.844 6.7912C367.253 7.23493 367.458 7.84507 367.458 8.6216C367.458 9.2104 367.364 9.75227 367.177 10.2472C366.989 10.7336 366.733 11.1603 366.409 11.5272C366.093 11.8856 365.734 12.1629 365.333 12.3592C364.932 12.5555 364.518 12.6536 364.092 12.6536ZM364.194 11.8344C364.578 11.8344 364.941 11.6936 365.282 11.412C365.632 11.1304 365.914 10.7507 366.127 10.2728C366.349 9.79493 366.46 9.26587 366.46 8.6856C366.46 8.1224 366.345 7.69147 366.114 7.3928C365.884 7.0856 365.555 6.932 365.129 6.932C364.745 6.932 364.378 7.07707 364.028 7.3672C363.686 7.6488 363.405 8.02853 363.183 8.5064C362.97 8.98427 362.863 9.51333 362.863 10.0936C362.863 10.6568 362.978 11.0877 363.209 11.3864C363.439 11.6851 363.767 11.8344 364.194 11.8344ZM369.492 12.5L368.583 6.2792H369.556L370.017 9.876C370.051 10.1747 370.081 10.4861 370.107 10.8104C370.132 11.1261 370.162 11.4333 370.196 11.732H370.247C370.392 11.4248 370.542 11.1176 370.695 10.8104C370.849 10.4947 371.007 10.1832 371.169 9.876L372.999 6.2792H373.985L370.67 12.5H369.492ZM376.434 12.6536C375.7 12.6536 375.107 12.4275 374.655 11.9752C374.211 11.5229 373.989 10.8829 373.989 10.0552C373.989 9.4664 374.083 8.93307 374.271 8.4552C374.467 7.97733 374.723 7.56347 375.039 7.2136C375.363 6.86373 375.721 6.59493 376.114 6.4072C376.507 6.21947 376.908 6.1256 377.317 6.1256C377.787 6.1256 378.158 6.22373 378.431 6.42C378.712 6.61627 378.917 6.88507 379.045 7.2264C379.173 7.56773 379.237 7.95173 379.237 8.3784C379.237 8.61733 379.212 8.84773 379.16 9.0696C379.109 9.28293 379.062 9.44933 379.02 9.5688H374.975C374.898 10.1064 374.928 10.5459 375.064 10.8872C375.201 11.2285 375.41 11.4803 375.692 11.6424C375.982 11.796 376.306 11.8728 376.664 11.8728C376.912 11.8728 377.155 11.8216 377.394 11.7192C377.641 11.6083 377.863 11.4803 378.06 11.3352L378.444 11.988C378.196 12.1672 377.897 12.3251 377.548 12.4616C377.206 12.5896 376.835 12.6536 376.434 12.6536ZM375.077 8.9032H378.341C378.358 8.80933 378.371 8.7112 378.38 8.6088C378.397 8.5064 378.405 8.39973 378.405 8.2888C378.405 8.04987 378.367 7.828 378.29 7.6232C378.213 7.40987 378.085 7.2392 377.906 7.1112C377.735 6.97467 377.501 6.9064 377.202 6.9064C376.75 6.9064 376.323 7.08987 375.922 7.4568C375.521 7.8152 375.239 8.29733 375.077 8.9032ZM380.075 12.5L381.317 6.2792H382.123L381.982 7.4696H382.033C382.281 7.09413 382.567 6.7784 382.891 6.5224C383.215 6.25787 383.569 6.1256 383.953 6.1256C384.167 6.1256 384.363 6.164 384.542 6.2408L384.197 7.1112C384.06 7.04293 383.881 7.0088 383.659 7.0088C383.352 7.0088 383.036 7.14533 382.712 7.4184C382.387 7.68293 382.093 8.06693 381.829 8.5704L381.048 12.5H380.075ZM384.45 12.5L385.692 6.2792H386.498L386.408 7.2136H386.46C386.809 6.9064 387.159 6.6504 387.509 6.4456C387.859 6.23227 388.23 6.1256 388.623 6.1256C389.152 6.1256 389.527 6.2664 389.749 6.548C389.98 6.82107 390.095 7.19653 390.095 7.6744C390.095 7.93893 390.061 8.2248 389.992 8.532L389.199 12.5H388.226L388.994 8.66C389.028 8.48933 389.054 8.3528 389.071 8.2504C389.088 8.148 389.096 8.04133 389.096 7.9304C389.096 7.2904 388.789 6.9704 388.175 6.9704C387.936 6.9704 387.663 7.06 387.356 7.2392C387.048 7.4184 386.698 7.70427 386.306 8.0968L385.423 12.5H384.45ZM391.175 12.5L392.417 6.2792H393.223L393.133 7.2136H393.185C393.509 6.9064 393.846 6.6504 394.196 6.4456C394.554 6.23227 394.895 6.1256 395.22 6.1256C395.715 6.1256 396.065 6.24507 396.269 6.484C396.483 6.7144 396.611 7.00027 396.653 7.3416C397.054 6.96613 397.443 6.67173 397.818 6.4584C398.194 6.23653 398.539 6.1256 398.855 6.1256C399.375 6.1256 399.751 6.2664 399.981 6.548C400.212 6.82107 400.327 7.19653 400.327 7.6744C400.327 7.81947 400.318 7.956 400.301 8.084C400.284 8.212 400.259 8.36133 400.225 8.532L399.431 12.5H398.445L399.226 8.66C399.26 8.48933 399.286 8.3528 399.303 8.2504C399.32 8.148 399.329 8.04133 399.329 7.9304C399.329 7.2904 399.026 6.9704 398.42 6.9704C398.241 6.9704 397.997 7.06 397.69 7.2392C397.383 7.4184 397.042 7.70427 396.666 8.0968L395.783 12.5H394.81L395.578 8.66C395.612 8.48933 395.638 8.3528 395.655 8.2504C395.672 8.148 395.681 8.04133 395.681 7.9304C395.681 7.2904 395.382 6.9704 394.785 6.9704C394.597 6.9704 394.349 7.06 394.042 7.2392C393.735 7.4184 393.398 7.70427 393.031 8.0968L392.148 12.5H391.175ZM403.922 12.6536C403.188 12.6536 402.595 12.4275 402.142 11.9752C401.699 11.5229 401.477 10.8829 401.477 10.0552C401.477 9.4664 401.571 8.93307 401.758 8.4552C401.955 7.97733 402.211 7.56347 402.526 7.2136C402.851 6.86373 403.209 6.59493 403.602 6.4072C403.994 6.21947 404.395 6.1256 404.805 6.1256C405.274 6.1256 405.645 6.22373 405.918 6.42C406.2 6.61627 406.405 6.88507 406.533 7.2264C406.661 7.56773 406.725 7.95173 406.725 8.3784C406.725 8.61733 406.699 8.84773 406.648 9.0696C406.597 9.28293 406.55 9.44933 406.507 9.5688H402.462C402.386 10.1064 402.415 10.5459 402.552 10.8872C402.688 11.2285 402.898 11.4803 403.179 11.6424C403.469 11.796 403.794 11.8728 404.152 11.8728C404.399 11.8728 404.643 11.8216 404.882 11.7192C405.129 11.6083 405.351 11.4803 405.547 11.3352L405.931 11.988C405.684 12.1672 405.385 12.3251 405.035 12.4616C404.694 12.5896 404.323 12.6536 403.922 12.6536ZM402.565 8.9032H405.829C405.846 8.80933 405.859 8.7112 405.867 8.6088C405.884 8.5064 405.893 8.39973 405.893 8.2888C405.893 8.04987 405.854 7.828 405.778 7.6232C405.701 7.40987 405.573 7.2392 405.394 7.1112C405.223 6.97467 404.988 6.9064 404.69 6.9064C404.237 6.9064 403.811 7.08987 403.41 7.4568C403.008 7.8152 402.727 8.29733 402.565 8.9032ZM407.562 12.5L408.804 6.2792H409.61L409.521 7.2136H409.572C409.922 6.9064 410.272 6.6504 410.622 6.4456C410.971 6.23227 411.343 6.1256 411.735 6.1256C412.264 6.1256 412.64 6.2664 412.862 6.548C413.092 6.82107 413.207 7.19653 413.207 7.6744C413.207 7.93893 413.173 8.2248 413.105 8.532L412.311 12.5H411.338L412.106 8.66C412.141 8.48933 412.166 8.3528 412.183 8.2504C412.2 8.148 412.209 8.04133 412.209 7.9304C412.209 7.2904 411.902 6.9704 411.287 6.9704C411.048 6.9704 410.775 7.06 410.468 7.2392C410.161 7.4184 409.811 7.70427 409.418 8.0968L408.535 12.5H407.562ZM416.259 12.6536C415.712 12.6536 415.328 12.5213 415.107 12.2568C414.885 11.9837 414.774 11.6552 414.774 11.2712C414.774 11.1432 414.782 11.0237 414.799 10.9128C414.816 10.8019 414.829 10.6909 414.838 10.58L415.567 7.0728H414.659L414.799 6.3432L415.772 6.2792L416.233 4.564H417.065L416.719 6.2792H418.294L418.14 7.0728H416.54L415.811 10.6312C415.785 10.7848 415.772 10.9384 415.772 11.092C415.772 11.348 415.832 11.54 415.951 11.668C416.071 11.796 416.276 11.86 416.566 11.86C416.685 11.86 416.8 11.8387 416.911 11.796C417.022 11.7533 417.125 11.7107 417.219 11.668L417.436 12.372C417.3 12.4317 417.129 12.4915 416.924 12.5512C416.728 12.6195 416.506 12.6536 416.259 12.6536Z" fill="white"/>
</svg>
